<?xml version="1.0" encoding="UTF-8"?>
<svg id="Layer_1" xmlns="http://www.w3.org/2000/svg" version="1.1" viewBox="0 0 489 97">
  <!-- Generator: Adobe Illustrator 30.2.1, SVG Export Plug-In . SVG Version: 2.1.1 Build 1)  -->
  <defs>
    <style>
      .st0 {
        fill: #fdfefe;
      }
    </style>
  </defs>
  <path class="st0" d="M47.9,31.85c-1.95-3.41-5.61-6.05-9.04-2.76-1.09,1.04-2.15,4.91-2.31,6.45-.64,6.02,1.87,19,7.78,22.04,1.77.91,2.67.87,4.55.34.37-.1,1.53-.49,1.74-.71.29-.3.3-.93.33-1.34-.52-7.9,1.02-16.91-3.05-24.02Z"/>
  <path class="st0" d="M356.34,27.86c-2.36-1.26-5.61-.34-6.81,2.05-3.41,6.78.14,22.23,5.99,27.1,5.56,4.63,8.68-.7,9.14-6.05.5-5.89-1.68-17.56-6.25-21.69-.15-.14-1.83-1.29-2.06-1.41Z"/>
  <path class="st0" d="M472.57,40.87c-.59-5.36-4.32-7.71-8.71-9.91-3.17-1.58-6.34-3.17-9.51-4.75-2.88-1.44-5.91-3.48-9.01-4.39-3.28-.97-6.77-.5-9.86,1.17-.34-.19-.7-.33-1.07-.42-.05-.03-.09-.07-.15-.11l-.65-.4c-1.18-.73-2.65-.8-3.9-.19l-7.56,3.76c-.31-.14-.63-.26-.96-.35-1.04-.85-2.52-1.36-3.72-1.97-.43-.22-.86-.44-1.31-.63-2.09-.88-4.44-.89-6.67-.89-2.06,0-4.38-.37-6.4.09-1.15.26-3.41,1.09-4.18,3.65-2.42-1.16-5.24-3.24-7.94-3.53-2.61-.29-7.61-.2-10.04-.01,0,0-.11,0-.12,0-2.8.18-5.04,2.31-4.86,5.18-.64-.22-1.39-.56-1.98-.92-.65-.36-1.32-.69-2-1-.65-.36-1.32-.69-2-1-1.98-1.11-4.14-1.96-6.41-2.52-.39-.1-1.37-1.69-1.75-2.03-.76-.69-1.61-1.24-2.51-1.71-2.03-1.08-4.15-2.04-6.21-3.08-3.34-1.67-6.67-3.35-10.01-5.02-2.88-1.45-5.62-3.05-8.9-3.33-10.19-.89-18.52,5.63-19.86,15.53-.04,0-.07-.02-.11-.03-1-.18-8.29-.29-9.79.15-1.71.5-2.95,1.69-3.4,3.25-.07.25-.07.44-.23.65-2.76-.88-5.74-3.88-8.66-3.87-2.82,0-5.52.38-8.06-.89-3.12-1.56-6.25-3.12-9.37-4.68-1.57-.78-3.16-1.54-4.71-2.36-1.01-.53-2.11-1.33-3.31-1.33-2.53-.21-4.1,1.54-4.77,2.28-.06.07-.12.13-.17.19-3.1,2.46-6.66,4.85-11.17,7.51-.05.03-.1.08-.15.11-.84-.56-1.91-.92-3.23-1.06-.46-.05-6.64-.36-8.69.28-1.99.62-2.89,1.84-3.31,2.76-.06.13-.09.25-.14.37.03-.34-3.83-1.92-4.21-2.11-.61-.3-1.69-.59-2.19-1.05-.99-.91-1.42-2.44-2.5-3.4-.93-.83-1.98-1.45-3.12-1.85-.63-.41-1.3-.75-2-1-.63-.41-1.29-.75-2-1-.63-.41-1.3-.75-2-1-.63-.41-1.3-.75-2-1-.63-.41-1.3-.75-2-1-.63-.41-1.3-.75-2-1-.63-.41-1.3-.75-2-1-.63-.41-1.3-.75-2-1-.63-.41-1.3-.75-2-1-2.17-1.43-4.84-1.91-7.68-1.32-4.03.83-7.59,5.06-7.77,9.22-.21,4.94,2.63,8.26,6.19,9.69-.73-.29-1.89,1.22-2.59,1.33-1.15.2-2.37-.85-3.3-1.38-1.82-1.03-3.18-.58-5.06-.72-1.42-.1-2.95-1.03-4.24-1.59-1.86-.81-3.78-1.65-5.49-2.02-4.86-1.06-10.07-.17-13.84,2.29-.24-.11-.55-.2-.93-.28-.31-.27-.64-.52-1.01-.7-2-.99-10.27-.54-10.35-.53-2.94.33-4.02,2.04-4.41,3.03-.15.4-.24.84-.38,1.22-.11.25-7.36-4.01-8.34-4.02,0,0-15.68-.19-15.68-.19-.4-.01-.8.05-1.18.16-1.09.32-1.97.96-2.59,1.8-3.74-2.12-9.21-3.21-13.29-3.12-.43-.64-.93-1.22-1.51-1.75-.97-.88-2.09-1.54-3.31-1.98-.63-.41-1.3-.74-2-1-.63-.41-1.3-.74-2-1-.63-.41-1.3-.74-2-1-.63-.41-1.3-.74-2-1-.63-.41-1.3-.74-2-1-.63-.41-1.3-.74-2-1-.63-.41-1.3-.74-2-1-.63-.41-1.3-.74-2-1-.63-.41-1.3-.74-2-1-2.2-1.42-4.92-1.98-7.71-1.5-3.57.6-7.31,4.32-7.84,7.8-.61,3.97.72,7.52,3.64,9.73.83.63,1.77,1.02,2.69,1.49-1.54.53-4.1-.78-5.38-1.61-.66-.43-1.1-1.15-1.79-1.51-1.84-.95-4.21.03-5.86.93-.2.11-.47.26-.6.31-1.38.2-3.03-.42-4.94-1.14-1.84-.69-3.92-1.47-6.26-1.68-8.38-.74-15.99,2.32-20.88,8.41-4.82,5.99-6.16,13.94-3.69,21.82,1.52,4.85,5.02,8.86,9.84,11.29.38.19.77.35,1.15.52.28.16.55.33.85.48.38.19.77.35,1.16.52.28.16.55.33.84.48.38.19.77.35,1.16.52.28.16.55.33.84.48.38.19.77.35,1.15.52.28.16.55.33.85.48.38.19.77.35,1.16.52.28.16.55.33.84.48.38.19.77.35,1.16.52.28.16.55.33.84.48.38.19.77.35,1.15.52.28.16.55.33.85.48.38.19.77.35,1.15.52.08.05.17.1.25.14v3.61c0,4.14,5.32,5.51,8.27,6.98,2.61,1.23,5.17,2.58,7.75,3.87,3.5,1.75,6.57,3.96,10.71,3.78,2.92-.13,5.85-.17,8.78-.24,1.14-.03,2.22-.54,2.96-1.41,1.88-2.22,1.41-4.74,1.19-5.95-.03-.17-.07-.34-.08-.47-.06-2.45-.09-4.93-.09-7.41.78.64,1.92,1.13,3.56,1.3,1.2.12,3,.18,4.8.18s3.6-.06,4.78-.18c.67-.07,2.69-.28,4.19-1.91.68-.74,1.06-1.71,1.06-2.72v-.46c.27.13.54.25.82.37.64.36,1.31.7,2,1,.64.36,1.31.7,2,1,.64.36,1.31.7,2,1,1.9,1.08,4.02,1.9,6.37,2.39,1.75,3.28,4.86,4.43,7.98,6.02,3.93,1.99,7.86,3.99,11.79,5.98,3.14,1.59,6.53,3.61,10.13,3.61,2.59,0,5.2-.79,7.37-2.31,4.07-2.86,7.13-9.35,10.42-16.92.47-1.09.9-2.07,1.28-2.89.35-.77.71-1.55,1.06-2.34-.1.27,5.89,3.07,6.36,3.3,2.7,1.34,5.45,3.36,8.58,2.59.04-.01.09-.02.13-.03.95.03,2.49.73,3.85,1.35,1.24.57,2.53,1.15,3.89,1.54,1.69.48,3.69.75,5.8.75,3.61,0,7.54-.82,10.73-2.87.43-.28.83-.57,1.22-.88.29.13.57.21.83.28.69.58,1.41.86,2,1,1.14.95,2.37,1.09,2.91,1.15.92.1,1.84.14,2.77.14,1.53,0,3.07-.1,4.57-.2,1.35-.09,2.63-.18,3.79-.18.92,0,1.77-.33,2.44-.86,1.13.88,2.52.99,3.52,1.05,1.9.13,3.5.18,4.84.18,6.13,0,7.1-1.15,7.67-1.82.5-.59.8-1.31.9-2.07.13.08.26.16.4.23,1.48.73,2.99,1.44,4.46,2.21,3.45,1.8,7.56,1.23,11.37,1.24,2.48.01,4.96.02,7.45.04.86,0,1.79-.3,2.5-.86l.58-.46c.77-.61,1.24-1.45,1.42-2.35.02,0,.04.02.06.03.12.06.41,2.43.51,2.74.34,1.06.86,2.06,1.52,2.95,1.51,2.01,3.62,2.96,5.8,4.05,6.04,3.02,12.02,6.28,18.15,9.09,1.72.79,3.47,1.17,5.19,1.17,4.7,0,9.19-2.85,12.25-8.07,2.17-3.7,3.96-7.96,5.69-12.09.49-1.17.97-2.31,1.45-3.42-.12.29,12.24,6.54,13.71,6.9.52.13,1.18.29,1.99.36,1.27.1,3.24.17,5.19.17,1.72,0,3.43-.05,4.61-.19,4.05-.47,4.78-3.42,4.91-4.31.03-.19.04-.38.04-.57v-1.8c.2.1.4.18.6.28,7.1,3.18,13.16,7.32,21.23,7.41.09,0,.18,0,.27,0,6.34,0,13.28-2.13,18.24-6.65.21.1.43.17.64.26,5.2,2.18,10.17,6.23,16.01,6.23,2.87,0,5.77-.79,8.46-2.3.15.06.29.12.43.16.09.03.19.04.28.07,1.9,1.55,4.5,1.13,6.78,1.24,2.27.11,4.62.23,6.83-.02.59-.07,2.08-.25,3.39-1.42.17.06.33.13.51.19.78.63,1.83,1.08,3.17,1.23,1.19.14,2.84.19,4.53.19,2.07,0,4.29.1,6.33-.28,2.25-.42,4.29-1.62,4.29-4.15v-20.59c.55.36,1.13.68,1.76.91.07.03.14.04.21.07.56.37,1.15.7,1.79.93,2.52.95,5.37.72,7.82-.64,3.44-1.91,5.3-5.67,4.85-9.81ZM62.37,74.28l-10.99.26c-.16-.05-.43-.6-.43-.65v-14.55c-.76-.06-1.2.54-1.92.79-8.81,3.02-20.52-.5-23.51-10-4.4-14,5.88-26.33,20.4-25.04,4.26.38,8.06,3.49,12.3,2.77,1.49-.25,2.71-1.71,4.31-1.49.29,14.71-.38,29.48-.01,44.19.03,1.2.77,2.65-.16,3.73ZM80.82,59.72c-.42.45-1.08.58-1.67.64-2.1.22-6.66.21-8.76,0-.74-.08-1.78-.22-1.69-1.15.57-8.42-.7-17.72,0-26.04.27-3.19,3.82-3.62,6.25-4.83,1.82-.9,3.9-2.74,5.87-2.5v33.87ZM80.83,17.22c-.54,7.59-13.46,6.82-12.1-2.04.28-1.84,2.73-4.15,4.55-4.46,4.21-.71,7.86,2.11,7.55,6.5ZM118.55,37.95c-.69,1.76-3.41,3.47-5.14,4.13-2.03.79-4.05,1.22-6.16,1.57-.97.16-5.13,1.04-5.67.94-.85-.15-.85-1.75-.43-2.41.37-.58,2.42-1.02,3.34-1.55,4.13-2.39,5.89-8.25,3.07-12.3-.87-1.25-3.65-2.33-5.12-1.86-1.37.44-3.18,1.77-3.96,2.99-3.25,5.05-4.01,16.11-.02,20.85,2.94,3.5,9.77,3.53,13.85,2.5,1.71-.43,3.11-1.95,4.93-1.97l.38.4c.54,1.61-1.9,5.04-3.05,6.15-1.84,1.8-6.11,3.66-8.66,3.96-24.88,2.88-29.93-32.1-4.3-36.23,3.78-.61,10.68.77,13.81,3.08,2.96,2.19,4.51,6.21,3.13,9.74ZM156.08,30.15c-4.76,8.18-8.73,18.04-12.73,26.68-2.21,4.78-6.15,15.25-10.37,18.22-4.56,3.2-11.69,1.49-12.2-4.54-.21-2.49,1.33-5.22,3.96-5.51,4.3-.47,4.93,2.19,6.3,5.55.31.22,1.5.18,1.89.07.86-.26,2.78-3.79,3.23-4.75.47-1,1.69-3.84,1.53-4.79-.18-1.09-2.03-4.38-2.64-5.62-3.95-7.92-8.72-17.63-13.32-25.05-.55-.88-3.43-3.7-1.58-4.25l15.68.19.31.43c-.35,1.54-.35,2.99.19,4.47,1.56,4.33,4.72,9.07,6.96,13.13.32.58.54,2.09,1.28,2.09l.7-.6,4.78-12.48c.34-1.68.49-3.08-.4-4.63-.47-.81-2.66-2.39-.2-2.66.94-.11,7.67-.09,8.13.14.22.11.39.34.48.57.17.67-1.54,2.59-1.98,3.35ZM189.14,53.68c-1.17,7.42-11.18,9.08-17.2,7.39-2.89-.81-6.11-3.15-9.09-3.03-.93.03-1.99.78-2.5-.31-.49-1.05.07-2.07.08-3.15.02-1.09-.49-1.95,0-2.96.78-.55,3.06,2.49,3.72,3.09,2.24,2.06,5.61,4.63,8.76,4.63,2.75,0,3.67-2.27,3.16-4.71-.65-3.12-8.95-8.27-11.54-10.61-3.55-3.2-5.35-5.79-4.89-10.82.64-6.95,8.75-9.24,14.64-7.95,3.1.68,8.22,3.8,10.73,3.71,1.13-.04,2.51-.95,2.71.87.08.74.28,4.04-.66,4.02l-6.84-5.01c-2.13-.98-4.82-2.07-7.2-1.32-1.78.56-1.62,2.71-.98,4.1,1.71,3.78,10.7,8.88,14.01,12.27,2.87,2.93,3.76,5.66,3.1,9.8ZM193.62,16.19c.1-2.29,2.34-5.01,4.58-5.48,4.64-.96,7.73,2.49,7.28,7.03-.68,7.01-12.19,6.12-11.86-1.55ZM205.48,60.11c-3.39,0-7.32.63-10.7.27-.36-.04-.67-.06-.91-.38l-.12-28.24c.45-1.42,3.57-2.24,4.84-2.89.97-.5,5.74-3.33,6.25-3.29.15.01.28.03.41.12l.24.53c.02,2.84-.02,5.67-.01,8.51.02,5.73-.19,11.71.28,17.49l-.27,7.87ZM248.57,60.31l-15.53-.08c-.81-.4-.43-1.77-.53-2.56-.09-.65-1.15-2.43-1.56-3.07-1.25-1.96-3.01-3.82-4.11-5.93-.92-1.25-2.05.58-2.66,1.4-.89,1.19-3.31,4.66-3.63,5.9-.45,1.74.38,2.53.37,4.11-.34.4-10.24.45-10.53,0-.11-.18-.06-.57.16-.77.71-.66,1.99-1.34,2.79-2.05,3.3-2.95,6.9-6.71,9.66-10.17.66-.83,1.43-1.57.9-2.7l-9.02-12.87c-.84-1.25-2.55-2.73-3.32-3.89-.48-.72-.56-1.05.29-1.48l15.79.08c1,.49.15,2.88.83,3.81l5.51,7.9c.53.11,2.39-2.57,2.77-3.1.97-1.36,2.76-3.84,2.75-5.51,0-1.31-1.67-2.51.22-3.1.95-.3,5.89-.24,7.1-.12.86.09,2.22.37,1.43,1.43-4.83,3.22-8.2,7.91-12.13,12.07l-.27.79,13.31,19.45-.58.46ZM272.32,27.65h-4.89l-.66,1.15c.44,6.58-.56,13.84.04,20.33.18,1.88,1.23,6.79,2.41,8.15.76.89,2.04,1.13,2.47,2.18,0,.8-3.34,1.51-4.07,1.61-4.42.57-9.28-1.18-11.15-5.47-.47-1.09-.43-2.22-1.22-3.16-.66-7.41.68-15.83-.06-23.12-.05-.49-.17-.97-.38-1.42-.45-.51-2.38-.02-2.18-1.39,4.04-2.39,8.02-4.96,11.7-7.88.61-.49,1.26-1.62,2.06-1.56,1.2.1.4,1.98.38,2.71-.03,1-.15,5.22.14,5.81.63,1.27,4.83-.31,5.77,1.18l-.36.87ZM313.98,28.1c-.24.57-.97.96-1.31,1.52-3.98,6.42-7.86,15.59-11.16,22.58-2.76,5.84-5.2,12.91-8.41,18.38-2.61,4.44-7.04,7.71-12.33,5.28-6.12-2.8-4.16-12.45,2.51-11.01,3.51.76,2.67,5.05,4.1,5.95,1.8,1.12,3.82-2.51,4.49-3.77.73-1.4,2.17-4.51,1.95-6.01-.16-1.09-2.02-4.9-2.62-6.14-3.92-8.08-8.8-16.92-13.38-24.74-.3-.51-2.57-3.44-2.01-3.78l16.38-.02c.66.52.04,2.04.09,2.99.1,1.79,3.72,8.43,4.77,10.43.88,1.67,2.13,3.39,2.94,5.04.28.56.18,1.23.67,1.65.89.2,1.41-2.36,1.67-2.97,1.22-2.87,2.32-5.33,3.28-8.31.69-2.14,1.85-4.01.56-6.33-.32-.58-2.33-2.16-.56-2.69.59-.18,7.17-.19,7.93-.05.94.17.74,1.31.45,2ZM330.79,26.11c.89.1,4.54-.36,4.77.65.4,1.76-5.2,0-5.41,1.8v30.91c-.1.71-.81.84-1.41.91-2.17.25-6.79.18-9.03,0-.5-.04-.93-.15-1.4-.27v-31.55c0-.09-.27-.41-.3-.61l-1.66-.27-.36-1.31,1.64-.04c1.01-.32.58-2.61.69-3.43,1-7.95,7.68-12.92,15.58-12.23,4.06.35,7.69,2.93,7.35,7.35-.23,2.94-2.27,4.68-5.23,4.18-1.04-.18-2.69-1.65-3.09-2.58-.98-2.31.72-6.76-2.7-7.09-1.12-.11-3.36,1.19-3.9,2.17-1.91,3.45-.02,10.95,4.47,11.43ZM376.95,45.99c-3.2,20.22-37.77,20.62-40.59.3-1.63-11.76,6.98-20.04,18.2-21.15,12.46-1.23,24.51,7.44,22.39,20.84ZM414.76,59.85c-.35.38-.8.46-1.29.52-3.11.35-7.01-.18-10.19-.12-1.88-.61.3-3.62-.89-4.77-4,4.61-10.29,7.39-16.2,4.6-5.66-2.67-6.15-9.29-6.35-14.77l.14-18.69c.31-.53.75-.49,1.28-.53,2.33-.18,7.03-.25,9.3,0,.45.05.78.11,1.02.53l.19,22.47c.56,2.55,1.05,5.04,3.8,5.98,3.04,1.04,5.76-.34,7.15-3.14,0-7.62.17-15.26.07-22.88-.02-1.18-.75-2.72,1.2-3.15.41-.09.82-.09,1.23-.06,1.56.1,3.09.22,4.64.26,1.16.03,4.64-.43,4.97.69l-.07,33.05ZM445.78,37.29c-2.94,1.63-6.38.38-7.51-2.76-.64-1.79.04-3.7-2.64-3.26-.78.13-1.6.92-2.06,1.55-.19.26-1.43,2.29-1.43,2.43v24.86c-.57.04-1.08.23-1.66.27-2.29.17-6.82.25-9.03,0-.72-.08-1.47-.27-1.43-1.15.48-8.41-.59-17.44,0-25.78.06-.81.29-1.59.44-2.38l11.03-5.48.65.4v4.12c.29.39.59.54,1.04.27,2.49-3.44,6.72-5.87,11.02-4.6,4.87,1.44,6.2,8.96,1.58,11.53Z"/>
</svg>