<?xml version="1.0" encoding="UTF-8"?>
<svg id="Layer_1" data-name="Layer 1" xmlns="http://www.w3.org/2000/svg" viewBox="0 0 493.66 309.46">
  <defs>
    <style>
      .cls-1 {
        fill: #fff;
        stroke-width: 0px;
      }
    </style>
  </defs>
  <path class="cls-1" d="M137.33,223.36s-.02.04-.03.06c0-.02.02-.04.03-.06Z"/>
  <path class="cls-1" d="M136.33,225.41s0,.01,0,.02c0,0,0-.01,0-.02Z"/>
  <path class="cls-1" d="M136.09,225.9s-.02.05-.03.07c.01-.02.02-.04.03-.07Z"/>
  <path class="cls-1" d="M135.99,226.08s0,.02-.01.02c0,0,0-.02.01-.02Z"/>
  <path class="cls-1" d="M136.19,225.69s-.02.03-.03.05c0-.02.02-.03.03-.05Z"/>
  <path class="cls-1" d="M138.2,221.53c-.05.11-.1.22-.15.32.05-.1.1-.21.15-.32Z"/>
  <path class="cls-1" d="M137.03,223.97s-.04.08-.06.12c.02-.04.04-.08.06-.12Z"/>
  <path class="cls-1" d="M139.15,219.56c-.05.1-.1.2-.14.3.05-.1.09-.2.14-.3Z"/>
  <path class="cls-1" d="M138.67,220.55c-.06.12-.12.24-.17.36.06-.12.11-.24.17-.36Z"/>
  <path class="cls-1" d="M136.79,224.48c-.03.05-.05.11-.08.16.02-.05.05-.1.08-.16Z"/>
  <path class="cls-1" d="M136.54,224.99s-.02.04-.03.06c0-.02.02-.04.03-.06Z"/>
  <g>
    <g>
      <path class="cls-1" d="M249.35,103.79c-.5-.86-.85-1.73-1.08-2.62-.53-.31-1.09-.61-1.73-.9-.22-.1-.47-.18-.7-.26-.34.15-.68.27-1.04.3-.01,0-.03,0-.04,0-1.08.6-2.03,1.11-2.84,1.49-1.34.65-2.81,1.04-4.39,1.17-.26.02-.53.03-.79.03-.3,0-.6-.01-.9-.04-.49-.05-.98-.13-1.46-.26-2.63,3.29-5.4,5.88-8.26,7.71-.77.49-1.6.94-2.47,1.34-.3.52-.54.95-.7,1.27-.35.67-.98,1.9-1.87,3.69-.9,1.79-1.44,2.91-1.63,3.36-.83,1.73-2.48,4.91-4.94,9.55-2.46,4.64-4.3,8.27-5.52,10.89-3.65,7.68-5.66,11.87-6.04,12.57-.2.37-.38.74-.55,1.11-.22.47-.42.95-.6,1.43-.32.86-.64,1.79-.96,2.78-.32.99-.54,1.71-.67,2.16-.25.64-.59,1.43-1.01,2.35-.42.93-.75,1.71-1.01,2.35-.25.64-.38,1.22-.38,1.73,0,.82.24,1.74.71,2.78.44.96,1.11,2.03,1.96,3.19,2.76-2.35,6.14-4.21,10.06-5.51,3.91-1.3,7.73-1.97,11.33-1.97,2.04,0,4.01.08,5.95.21.64-1.39,1.25-2.87,1.85-4.45l1.92.29c1.19,2.28,2.84,4,4.92,5.2,2.81.5,5.48,1.16,8,1.97.17,0,.33.02.51.02,4.16,0,7.47-.93,9.93-2.78.69-.52,1.26-1.09,1.75-1.69-.32-.4-.61-.78-.82-1.11-.21-.32-.37-.59-.49-.85-.36-.76-.76-1.76-1.21-3.05-.52-1.47-.78-3.02-.78-4.61,0-1.71.1-3.4.31-5.04.2-1.64.57-3.48,1.07-5.47l.11-.44c.42-1.66.76-2.97.99-3.89.27-1.05.79-2.74,1.57-5.15-.01-.75-.03-1.44-.05-2.07-.06-2.37-.23-5.15-.48-8.35-.26-3.2-.64-5.82-1.15-7.87-.58-2.43-1.02-4.24-1.34-5.42-.23-.85-.59-1.87-1.07-3.04-.35-.23-.69-.47-1.01-.72-1.2-.96-2.18-2.1-2.92-3.37ZM237.38,149.38l-9.45-1.68,9.45-21.83v23.51Z"/>
      <path class="cls-1" d="M389.19,106.6c-4.45-2.02-10.03-3.02-16.74-3.02-7.61,0-14.23-.18-19.86-.53-5.63-.35-8.54-.53-8.73-.53-3.77,0-7.12.74-10.03,2.21-2.91,1.47-4.36,3.68-4.36,6.62,0,1.15.32,2.27.96,3.36.64,1.09,1.33,1.97,2.06,2.64.73.67,1.84,1.55,3.31,2.64-1.92,2.69-3.13,4.51-3.65,5.47-3.77,0-6.54.77-8.3,2.3-1.76,1.53-2.64,4.12-2.64,7.77,0,1.6.96,3.55,2.88,5.85-.38.83-.69,2.06-.91,3.69-.22,1.63-.4,2.64-.53,3.02-.13.45-.48,1.5-1.06,3.17-.15.42-.27.82-.38,1.18-.32,1.08-.48,1.94-.48,2.56,0,2.11.13,3.81.38,5.08.26,1.28.93,2.62,2.01,4.03,1.09,1.41,2.22,2.61,3.41,3.6.64.54,1.55,1.27,2.7,2.18.96.76,2.08,1.64,3.39,2.66,1.77,1.37,3.86,2.41,6.24,3.13,7.43-4.02,15.64-6.08,24.44-6.08,3.25,0,6.72.39,10.39,1.15,1.6-.64,3.24-1.31,4.94-2.04,4-1.73,7.39-3.69,10.17-5.9,2.78-2.21,4.17-4.3,4.17-6.28s-1.2-3.95-3.6-5.71c-2.4-1.76-5.74-2.64-10.03-2.64-4.8,0-10.39,1.18-16.79,3.55-6.4,2.37-11.03,3.68-13.91,3.93,0-.45.14-1.12.43-2.01.29-.89.59-1.66.91-2.3.32-.64.51-.96.58-.96l3.36-.48c6.39-.9,11.08-1.93,14.06-3.12,2.97-1.18,7.02-3.63,12.14-7.34,1.66-1.21,2.88-2.27,3.65-3.17.77-.89,1.15-1.92,1.15-3.07,0-3.9-4.22-5.85-12.66-5.85-3.07,0-7.26.54-12.57,1.63l2.01-3.55c1.15,0,2.83-.05,5.04-.14,2.21-.1,3.85-.14,4.94-.14,1.79,0,3.97-.22,6.52-.67,2.56-.45,5.2-1.09,7.92-1.92,2.72-.83,5.02-2.01,6.91-3.55,1.89-1.53,2.83-3.2,2.83-4.99,0-2.94-2.22-5.42-6.67-7.43Z"/>
      <path class="cls-1" d="M196.63,106.12c-.12-.07-.25-.14-.37-.2-.16.12-.31.24-.48.36-.84.7-2.06,1.63-3.62,2.75-1.58,1.15-3.37,2.33-5.3,3.5-1.97,1.19-3.98,2.27-6,3.19-2.2,1.01-4.23,1.59-6.04,1.74-.39.03-.79.05-1.18.05-.46,0-.93-.02-1.39-.07-.99-.09-2-.29-3-.59-1.48-.44-4.02-1.77-4.35-5.77-.01-.17-.02-.35-.02-.54-.62.55-1.27,1.12-1.96,1.76-2.49,2.3-4.61,4.54-6.33,6.72-1.73,2.18-3.13,4.46-4.22,6.86-1.09,2.4-1.86,4.27-2.3,5.61-.45,1.34-1.02,3.33-1.73,5.95-1.02,3.84-1.54,7.26-1.54,10.27,0,.25.02.48.02.72.03.99.09,1.93.22,2.78.15.96.4,2.11.76,3.44.04.14.07.26.11.4.42,1.5.69,2.45.82,2.83.9,4.03,3.23,8.09,7,12.18,2.39,2.51,5.05,4.34,7.96,5.57,1.19-1.09,2.4-1.93,3.58-2.47,1.16-.53,2.53-1.03,4.05-1.48,1.65-.49,3.43-.74,5.29-.74,2.43,0,4.6.42,6.45,1.25,1.77.79,3.23,1.71,4.35,2.75.04.04.08.09.13.14.25-.11.51-.22.75-.33,1.5-.7,3.44-1.69,5.8-2.97.34-.19.97-.49,1.84-.89-.64-1.41-.96-2.69-.96-3.91,0-.87.19-1.77.58-2.76.27-.68.63-1.51,1.05-2.45.37-.83.68-1.54.91-2.12.14-.47.36-1.17.66-2.11.34-1.04.67-2.01,1-2.89.16-.43.36-.88.57-1.35-2.09-.59-4.23-.9-6.42-.9-2.49,0-5.47.64-8.92,1.92-3.45,1.28-6.08,1.92-7.87,1.92-1.22,0-1.82-2.37-1.82-7.1,0-7.29.41-11.35,1.25-12.18,1.41-1.41,3.49-4.32,6.24-8.73.38,1.92,1.63,3.52,3.74,4.8,2.11,1.28,4.16,1.92,6.14,1.92.7,0,1.36-.01,1.97-.05.61-.03,1.15-.06,1.63-.1.48-.03.93-.11,1.34-.24.41-.13.75-.22,1.01-.29.26-.06.54-.21.86-.43.32-.22.56-.37.72-.43.16-.06.37-.24.62-.53.26-.29.43-.48.53-.58.1-.1.29-.32.58-.67.29-.35.46-.59.53-.72.13-.13.51-.58,1.15-1.34.64-.77,1.09-1.31,1.34-1.63.25-.32.64-.88,1.15-1.68.51-.8.88-1.47,1.1-2.02.22-.54.45-1.21.67-2.01.22-.8.34-1.58.34-2.35,0-2.25-.7-4.39-2.08-6.42-2.03-.66-3.87-1.69-5.48-3.08-1.38-1.18-2.52-2.62-3.44-4.28Z"/>
      <path class="cls-1" d="M139.83,120.37c-.41.03-.82.05-1.22.05-.44,0-.88-.02-1.31-.06-1.15-.11-2.27-.37-3.34-.77-1.38-.51-3.75-1.98-4.08-5.99-.09-1.1.03-2.41.37-3.91.22-.99.49-2.03.79-3.08-2.5,2.34-5.17,4.66-7.97,6.92-2.96,2.4-5.96,4.54-8.89,6.37-3.23,2.01-5.99,3.09-8.45,3.29-.37.03-.73.05-1.08.05-.38,0-.75-.02-1.11-.05-.52-.05-1.02-.14-1.51-.26-.32.69-.58,1.32-.74,1.9-.35,1.25-.53,2.51-.53,3.79,0,4.16,2.05,8.52,6.14,13.1,4.09,4.57,8.54,8.14,13.33,10.7-3.26,2.69-6.49,4.19-9.69,4.51-.58-.58-1.52-1.15-2.83-1.73-1.31-.58-2.51-.86-3.6-.86-3.45,0-5.82.66-7.1,1.97-1.28,1.31-1.92,3.31-1.92,6,0,3.22.65,5.93,1.94,8.12,3.01-.53,6.09-.81,9.26-.81,4.91,0,10.34.88,16.18,2.62,1.7.54,3.53,1.28,5.44,2.21.29-.18.58-.35.85-.54,1.15-.83,2.99-1.79,5.52-2.88,2.53-1.09,4.37-2.11,5.52-3.07,3.03-2.64,5.2-5.41,6.54-8.33-.1-.34-.2-.68-.28-1.02-.11-.34-.32-1.04-.81-2.83l-.07-.28-.04-.14c-.39-1.44-.66-2.69-.82-3.74-.13-.9-.22-1.92-.25-3.12v-.23c-.02-.18-.02-.37-.02-.56,0-1,.07-2.05.17-3.13-1.87-2.35-3.9-4.49-6.1-6.41-2.46-2.14-4.72-4.13-6.76-5.95-2.05-1.82-3.07-2.93-3.07-3.31,0-2.43.77-4.32,2.3-5.66.58,1.66,1.85,3.05,3.84,4.17,1.98,1.12,4.16,1.68,6.52,1.68,3.71,0,6.4-.85,8.1-2.54.25-.57.51-1.17.81-1.81.37-.81.78-1.61,1.22-2.4.09-.59.14-1.22.14-1.89,0-.58-.03-1.18-.1-1.82-.06-.64-.1-1.02-.1-1.15,0-.55.16-1.29.48-2.21-1.93,1.23-3.9,2.34-5.87,3.28-2.23,1.07-4.14,1.66-5.82,1.8Z"/>
      <path class="cls-1" d="M274.76,106.19c-1.69,1.1-3.59,1.97-5.64,2.57-.06.13-.12.25-.18.39-.19.45-.85,1.77-1.97,3.98-1.12,2.21-1.84,3.82-2.16,4.85-.51,1.53-1.09,3.76-1.73,6.67-.64,2.91-1.18,5.04-1.63,6.38-.19.58-.67,2.05-1.44,4.41-.77,2.37-1.28,4.05-1.53,5.04-.23.91-.57,2.22-.99,3.88-.04.15-.07.28-.11.44-.48,1.89-.82,3.6-1.01,5.13-.19,1.53-.29,3.1-.29,4.7,0,1.28.21,2.51.62,3.69.42,1.18.78,2.11,1.1,2.78.07.15.18.33.31.53.43.65,1.15,1.53,2.19,2.64,1.34,1.44,2.27,2.4,2.78,2.88.51.48,1.85,1.71,4.03,3.69,4.16,3.77,7.35,6.08,9.59,6.91,1.72.65,4.09,1.21,7.11,1.7.14-.19.29-.37.42-.53.67-.77,1.57-1.71,2.75-2.86,1.34-1.3,2.7-2.27,4.04-2.88,1.16-.53,2.53-1.03,4.05-1.48,1.65-.49,3.43-.74,5.29-.74,2.43,0,4.6.42,6.45,1.25,1.77.79,3.23,1.71,4.35,2.75.41.38.8.85,1.19,1.36,3.62-1.23,7.68-2.7,12.21-4.42.64-.24,1.23-.48,1.82-.73-.66-.53-1.2-.97-1.63-1.33-1.33-1.11-2.61-2.47-3.82-4.02-1.34-1.74-2.2-3.48-2.54-5.18-.29-1.48-.44-3.32-.44-5.62,0-.62.1-1.33.29-2.16-2.67.54-5.79,1.6-9.38,3.21-5.41,2.43-9.26,3.65-11.56,3.65-2.88,0-5.72-.27-8.54-.81-2.81-.54-4.22-1.58-4.22-3.12,0-6.78,1.28-13.91,3.84-21.39.19-.58.53-1.98,1.01-4.22.48-2.24.97-3.74,1.49-4.51.45-.64,1.18-1.28,2.21-1.92,1.02-.64,1.63-1.06,1.82-1.25,1.53-1.54,2.62-2.88,3.26-4.03.64-1.15.96-2.69.96-4.61,0-2.81-1.62-5.8-4.84-8.97-3.23-3.17-6.96-4.75-11.18-4.75-.62,0-1.21.01-1.78.03-.63.73-1.24,1.4-1.83,2.02-1.51,1.58-3.12,2.93-4.77,4Z"/>
    </g>
    <g>
      <path class="cls-1" d="M197.26,103.91c.12.06.25.14.37.2-.06-.11-.14-.22-.2-.34-.06.04-.12.09-.17.13Z"/>
      <path class="cls-1" d="M89.66,92.32l7.91-38.44c.2-.72.47-1.82.82-3.38.35-1.56.7-3.21,1.02-4.9.33-1.71.61-3.33.84-4.84.24-1.6.32-2.77.26-3.57-.29-3.44-1.66-5.94-4.09-7.43-1.52-.93-3.3-1.5-5.29-1.69-.51-.05-1.04-.07-1.58-.07s-1.08.02-1.63.07c-4.26.35-8.45,1.58-12.43,3.66-3.9,2.03-7.69,4.64-11.26,7.74-3.54,3.08-6.95,6.59-10.15,10.41-3.2,3.82-6.16,7.8-8.8,11.82-2.65,4.03-5.1,8.04-7.27,11.91-2.18,3.88-4.03,7.45-5.5,10.61v.03s-.03.03-.03.03c-.01.03-.08.08-.17.13-.26.13-.5.2-.76.22-.43.04-1.05.11-1.92.22-.69.1-1.4.19-2.14.29l-.41.05c-.96.13-1.92.3-2.86.51-.91.2-1.75.38-2.5.52-1.39.32-2.28.61-2.86.93-.8.45-1.37,1.32-1.73,2.67l-1.67,6.34c-.25.89-.35,1.46-.31,1.91.04.47.27.95.81,1.64.66.86,1.41,1.1,1.92,1.15.08,0,.15.01.23.01.07,0,.14,0,.21,0,.27-.02.7-.1,2.42-.7.57-.2,1.78-.53,4.3-1.03-.06.15-.12.31-.19.48-.57,1.42-1.25,3.08-2.03,5-.79,1.92-1.6,4-2.41,6.18-.81,2.18-1.57,4.22-2.27,6.13-.71,1.94-1.3,3.61-1.74,4.97-.7,2.15-.73,2.62-.7,2.98.09,1.03.78,1.76,1.76,1.85.07,0,.14.01.22.01.07,0,.14,0,.21,0l10.77-.89c.38-.03.78-.18,1.29-.48.69-.35,1.08-1.14,1.69-3.32.42-1.5,1.07-3.55,1.92-6.09.85-2.53,1.98-5.55,3.35-8.98,1.29-3.21,2.93-6.67,4.89-10.31.33,0,.66,0,.99,0,1.99,0,3.93.09,5.77.26,1.65.16,3.27.39,4.81.69,3.77.73,7.07,1.74,9.82,3,2.7,1.24,4.84,2.63,6.36,4.14,1.39,1.39,2.15,2.74,2.26,4.01.02.19.02.71-.12,2.15-.17,1.68-.15,2.31-.13,2.65.22,2.71,1.02,4.79,2.38,6.17,1.02,1.05,2.45,1.67,4.24,1.84.34.03.71.05,1.08.05s.78-.02,1.19-.05c2.86-.24,5.01-1.24,6.38-2.97,1.35-1.7,1.91-4,1.68-6.83-.1-1.19-.42-2.37-.96-3.51-.58-1.23-.63-1.61-.63-1.65-.04-.45.02-1.74.79-5.28.62-2.85,1.28-5.85,1.96-9.01ZM84.21,44.46c-.3,1.36-.46,1.98-.55,2.26l-.02.06v.06s-9.45,44.93-9.45,44.93c-2.88-2.25-5.8-3.92-8.71-4.98-3.43-1.25-6.58-2.1-9.37-2.54-1.51-.23-2.88-.41-4.08-.53-1.01-.1-1.94-.15-2.75-.17-.32,0-.61-.02-.86-.04-.01,0-.02,0-.04,0,.26-.47.66-1.18,1.31-2.25,1.29-2.14,2.99-4.78,5.05-7.85,2.08-3.11,4.48-6.48,7.13-10.03,2.63-3.52,5.39-6.84,8.18-9.87,2.77-3,5.53-5.56,8.22-7.64,2.36-1.82,4.46-2.87,6.24-3.12-.01.19-.07.66-.3,1.71Z"/>
      <path class="cls-1" d="M484.24,69.67c-.25-3.04-.81-6.17-3.07-6.39-.07,0-.14,0-.21,0-.06,0-.12,0-.19,0-.55.04-.66.11-2.93,2.22-1.29,1.2-2.81,2.55-4.52,4.02-1.7,1.45-3.4,2.81-5.07,4.04-1.11.82-1.87,1.26-2.37,1.48.05-.32.18-.95.57-2.13.47-1.42,1.1-3.09,1.87-4.97.79-1.91,1.63-3.93,2.53-6.07.87-2.06,1.72-4.17,2.53-6.24.79-2.03,1.43-3.88,1.91-5.49.53-1.8.75-3.04.67-3.91-.16-1.87-.97-3.34-2.41-4.35-.85-.6-1.99-.97-3.39-1.1-.4-.04-.83-.06-1.29-.06-.5,0-1.03.02-1.59.07-1.35.11-2.97.78-4.93,2.06-1.78,1.15-3.74,2.6-5.84,4.31-2.06,1.68-4.2,3.52-6.38,5.47-2.17,1.96-4.16,3.78-5.9,5.41-1.6,1.5-2.92,2.73-4.02,3.74.47-1.3,1.04-2.81,1.68-4.51.78-2.05,1.57-4.16,2.38-6.34.84-2.25,1.51-4.11,2.06-5.68l.7-2-2.12.18-10.9.9c-2.05.17-2.61,2.81-2.82,3.8-.27,1.43-1.03,3.14-2.27,5.11-1.29,2.08-2.72,4.11-4.24,6.04-1.52,1.93-2.99,3.65-4.39,5.11-1.87,1.96-2.4,2.47-2.54,2.59-1,.91-1.79,1.7-2.41,2.43-.37.31-.82.71-1.42,1.25-1.36,1.23-2.88,2.61-4.56,4.12-1.66,1.5-3.29,2.87-4.87,4.09-1.06.82-1.76,1.24-2.2,1.46.16-.6.51-1.66,1.3-3.52,1.09-2.56,2.29-5.45,3.56-8.58,1.29-3.17,2.47-6.33,3.52-9.4,1.11-3.26,1.57-5.78,1.41-7.7-.12-1.48-.82-2.78-2.08-3.84-.87-.74-2.02-1.18-3.41-1.31-.3-.03-.62-.04-.95-.04s-.69.01-1.05.04c-2.26.19-4.73,1.35-7.56,3.57-2.6,2.03-5.39,4.49-8.29,7.29-2.89,2.8-5.83,5.69-8.73,8.61-1.75,1.76-3.47,3.37-5.14,4.8l5.43-17.83c1.35-2.97,2.95-6.53,4.87-10.85,1.88-4.24,3.66-8.61,5.29-12.97,1.63-4.38,2.99-8.64,4.04-12.66,1.08-4.14,1.51-7.65,1.28-10.44-.12-1.47-.64-2.77-1.53-3.88-.73-.89-1.88-1.42-3.42-1.57-.31-.03-.64-.04-.98-.04-.38,0-.78.02-1.19.05-1.67.14-3.28,1.49-4.9,4.14-1.4,2.28-2.84,5.22-4.3,8.74-1.44,3.48-2.86,7.43-4.24,11.75-1.36,4.28-2.7,8.56-3.98,12.73-1.29,4.19-2.46,8.18-3.48,11.88-1.03,3.68-1.88,6.65-2.55,8.82-.15.5-.61,1.45-1.93,3.16-1.13,1.47-2.47,3.05-3.98,4.7-1.61,1.75-3.12,3.35-4.6,4.87-1.55,1.6-2.82,2.93-3.76,3.95-.07.08-.13.18-.2.27-.08.09-.17.16-.25.26-.41.49-.84.95-1.28,1.38-.71.75-1.67,1.65-2.88,2.71-1.2,1.06-2.45,2.13-3.71,3.2-1.21,1.02-2.33,1.9-3.31,2.61-.47.34-.8.55-1.03.68.08-.27.19-.63.34-1.11.42-1.3.95-2.84,1.59-4.6.68-1.84,1.42-3.81,2.22-5.84.82-2.09,1.58-4.08,2.29-5.95l.77-2.04-2.18.18-7.05.58c-.1,0-.23.01-.4.01-.25,0-.58-.01-1.01-.05-.13-.01-.26-.03-.39-.04-.98-.11-1.47-.23-1.72-.3l-1.22-.38-.47,1.18c-.82,2.06-1.97,4.38-3.4,6.9-1.43,2.52-2.98,4.9-4.6,7.09-1.6,2.17-3.29,4.04-5.01,5.58-1.56,1.4-3.02,2.17-4.33,2.28h0c-.05,0-.11,0-.16,0s-.11,0-.16,0c-.27-.03-.63-.12-1.03-.63-.51-.64-.79-1.4-.86-2.32l-.31-3.72c-.19-2.35.38-4.69,1.69-6.97,1.38-2.37,3.23-4.51,5.51-6.36,2.32-1.88,4.88-3.45,7.61-4.66,2.71-1.2,5.29-1.91,7.7-2.11.73-.06,1.43-.09,2.09-.09.62,0,1.21.03,1.77.08.92.09,1.76.25,2.5.48,2.5.78,3,.87,3.27.9h.12s.17,0,.17,0c.71-.06,1.31-.44,1.64-1.04.25-.45.34-.99.29-1.66-.12-1.39-.34-3.02-.67-4.85-.33-1.85-.62-3.18-.87-4.07l-.2-.68-.67-.24c-.65-.23-1.43-.39-2.37-.48-.6-.06-1.27-.09-1.99-.09-.14,0-.28,0-.42,0-1.91.03-3.67.11-5.24.24-3.78.31-7.94,1.31-12.39,2.95-4.44,1.64-8.59,3.89-12.33,6.67-3.77,2.8-6.88,6.18-9.24,10.03-1.65,2.7-2.64,5.66-2.98,8.82-.48.47-1.03.98-1.67,1.52-.7.6-1.4,1.16-2.1,1.66-.68.5-1.1.6-1.3.62-.13.01-.26.02-.38.02s-.24,0-.35-.02c-.17-.02-.33-.04-.47-.09,0-.03-.01-.06-.01-.11,0-.03,0-.44.5-1.87.43-1.24.86-2.77,1.29-4.56.42-1.81.81-3.88,1.14-6.15.34-2.36.4-4.9.18-7.55-.19-2.3-.81-4.17-1.83-5.55-.92-1.23-2.21-1.96-3.75-2.11-.2-.02-.4-.03-.61-.03-.2,0-.4,0-.6.03-1.8.15-3.5,1.06-5.08,2.7-1.45,1.51-2.73,3.5-3.81,5.91-1.05,2.36-1.87,5.12-2.42,8.19-.55,3.07-.68,6.33-.41,9.68.08.93.28,1.77.61,2.48.19.43.33,1.06.39,1.82.01.15-.02.73-.91,1.93-.8,1.08-1.77,2.14-2.9,3.15-1.14,1.04-2.34,1.96-3.58,2.75-1.46.94-2.18,1.12-2.48,1.14-.09,0-.18.01-.26.01-.08,0-.15,0-.22-.01-.37-.04-.99-.09-1.12-1.71-.2-2.45.57-6.31,2.29-11.46,1.79-5.35,3.9-11.99,6.25-19.72.32-1.1.96-2.8,1.91-5.07.97-2.32,2.05-4.9,3.23-7.76,1.17-2.82,2.42-5.88,3.71-9.1,1.29-3.21,2.47-6.39,3.51-9.46,1.05-3.09,1.89-6.03,2.49-8.74.63-2.84.86-5.17.7-7.12-.13-1.58-.58-2.99-1.34-4.2-.5-.8-1.5-1.78-3.43-1.96-.22-.02-.44-.03-.67-.03s-.47.01-.71.03c-2.01.17-3.5.67-4.54,1.53-.96.8-1.8,1.94-2.56,3.47-.91,1.85-1.97,4.5-3.17,7.9-1.18,3.36-2.42,7.1-3.68,11.13-1.26,4.02-2.55,8.2-3.82,12.4-1.28,4.24-2.47,8.14-3.55,11.72-1.08,3.58-1.99,6.63-2.73,9.14-.98,3.31-1.27,4.05-1.35,4.22-.39.79-1.16,1.88-2.3,3.22-1.19,1.41-2.51,2.87-3.9,4.33-1.39,1.46-2.72,2.79-3.95,3.96-.31.3-.58.55-.82.77-.41.11-.76.38-1.3.89-.38.36-.85.77-1.39,1.23-.49.42-1.07.81-1.72,1.16-.58.32-1.14.49-1.72.54-.09,0-.18.01-.26.02.08-.26.18-.54.28-.82.42-1.12.6-2.19.52-3.16-.07-.91-.33-1.88-.76-2.89-.23-.53-.43-1.01-.6-1.43.31-.4.68-.86,1.13-1.39.96-1.13,1.32-3,1.09-5.72-.19-2.33-.82-4.43-1.88-6.24-1.04-1.79-2.33-3.3-3.84-4.49-1.52-1.2-3.25-2.07-5.14-2.58-.92-.25-1.86-.42-2.77-.5-.51-.05-1.02-.07-1.52-.07-.44,0-.88.02-1.31.05-3.74.31-7.45,1.34-11.02,3.07-3.59,1.74-6.78,4.24-9.48,7.42-2.69,3.18-4.81,7.08-6.3,11.61-.89,2.68-1.42,5.63-1.61,8.81-.25.24-.52.5-.83.82-1.33,1.34-2.86,2.82-4.56,4.41-1.71,1.6-3.41,3.09-5.05,4.43-2.14,1.76-2.86,1.86-2.93,1.87-.05,0-.09,0-.13,0-.03,0-.07,0-.1,0-.02,0-.03,0-.04,0-.02-.05-.04-.13-.05-.26,0-.12.02-.9,1.03-4.37.76-2.61,1.73-5.83,2.98-9.84,1.22-3.92,2.61-8.3,4.14-13.04,1.45-4.49,2.91-9.01,4.39-13.58l6.01-.5c1.9-.16,3.26-1.14,3.91-2.85.53-1.39.72-3.11.55-5.1-.12-1.44-.39-2.35-.86-2.95-.45-.57-1.1-.91-1.88-.99-.11-.01-.22-.02-.33-.02-.1,0-.21,0-.32.01l-3.91.32c.34-1.16.73-2.43,1.16-3.8.72-2.29,1.35-4.35,1.94-6.31.61-2.04,1.11-3.96,1.5-5.71.41-1.86.57-3.21.49-4.13-.14-1.75-.58-3.22-1.28-4.39-.71-1.16-1.79-1.84-3.15-1.97-.16-.02-.32-.02-.49-.02-.16,0-.32,0-.48.02-2.3.19-4.29,1.48-5.92,3.84-1.44,2.1-2.69,4.51-3.71,7.17-1.01,2.62-1.83,5.32-2.44,8-.6,2.64-1.03,4.65-1.27,5.98l-.43,2.49-7.14.59c-1.12.09-2.68.67-3.73,2.87-.73,1.51-1,3.44-.81,5.73.23,2.7,1.7,3.24,2.55,3.32.09,0,.18.01.27.01.08,0,.17,0,.25-.01l4.94-.41-2.85,10.11c-.16.57-.64,1.69-2.05,3.79-1.2,1.78-2.62,3.72-4.23,5.76-1.63,2.07-3.28,4.05-4.89,5.91-1.6,1.84-2.99,3.28-4.14,4.28-.12.11-.21.21-.31.31-.34.26-.69.6-1.06,1.07-.5.63-1.13,1.31-1.88,2.02-.78.74-1.74,1.61-2.85,2.59-1.09.97-2.22,1.89-3.35,2.73-1.13.84-2.19,1.56-3.13,2.13-.05.03-.09.05-.14.08-.27.16-.5.29-.68.38.09-.23.19-.5.3-.81.02-.06.04-.11.06-.17l8.75-23.4c.77-1.92,1.35-3.36,1.75-4.29.51-1.21.71-1.98.66-2.57-.04-.48-.21-.96-.53-1.48-.27-.44-.8-.97-1.85-1.07-.12-.01-.24-.02-.37-.02s-.26,0-.4.02l-7.69.64c-.75.06-1.42.37-1.93.88-.25.25-.47.45-.65.59l-.11.09-.09.11-1.36,1.61-1.93,2.28-1.7,2.01-2.88,3.41c-1.64,1.94-3.33,3.9-5.05,5.89-1.72,1.99-3.3,3.73-4.68,5.18l-.03.03-.03.03c-.31.36-1.04,1.15-2.77,2.86-1.41,1.39-2.91,2.81-4.45,4.21-1.37,1.24-2.64,2.36-3.79,3.32l9.23-24.41c.27-.67.51-1.26.73-1.74.31-.7.44-1.39.39-2.05-.11-1.3-.96-2.19-2.23-2.31-.1,0-.21-.01-.32-.01s-.21,0-.32.01l-9.49.79c-.45.04-1.28.28-1.8,1.45-.2.45-.38.93-.54,1.43l-.02.06v.07c-.09.37-.32,1.19-.98,2.97-.52,1.38-1.05,2.44-1.59,3.15-1.76,2.55-3.83,5.2-6.19,7.93-2.36,2.74-4.99,5.49-7.8,8.17-.91.94-1.38,2.05-1.45,3.33-.05,1.02,0,2.6.19,4.82.1,1.21.21,2.24.32,3.08.25,1.83,1.14,2.29,1.84,2.36.06,0,.11,0,.17,0,.05,0,.1,0,.15,0,.51-.04.99-.3,1.71-.92.09-.08.18-.16.28-.25-.02.09-.05.17-.07.26-.31,1.14-.55,2.29-.73,3.43-.19,1.21-.24,2.23-.17,3.11.23,2.82,1.66,3.96,2.81,4.43.45.18.92.31,1.41.42.37.08.74.15,1.12.19.33.03.67.05,1.01.05.33,0,.66-.01,1-.04,2.29-.19,4.9-1.22,7.99-3.14,2.9-1.81,5.86-3.93,8.79-6.3,2.91-2.35,5.69-4.77,8.26-7.2.92-.87,1.78-1.68,2.56-2.44-.29.86-.58,1.76-.88,2.7-.45,1.43-.82,2.82-1.12,4.14-.31,1.4-.43,2.61-.34,3.6.27,3.27,2,4.58,3.41,5.1.98.37,2.02.6,3.08.71.4.04.8.06,1.22.06.37,0,.75-.02,1.13-.05,1.55-.13,3.33-.69,5.45-1.7,2-.96,4-2.09,5.95-3.34.28-.18.55-.37.83-.56,1.63-1.07,3.23-2.18,4.74-3.31,1.81-1.36,3.19-2.43,4.23-3.29.59-.49,1.09-.96,1.55-1.43.66-.38,1.53-1.16,2.87-2.7.73-.83,1.6-1.76,2.61-2.77-.4,1.52-.77,3.01-1.13,4.44-.51,2.06-.8,3.69-.89,4.95-.04.52-.04.98-.01,1.38.27,3.22,2.11,4.42,3.61,4.86.94.28,1.88.46,2.8.55.43.04.86.06,1.3.06.37,0,.73-.01,1.1-.04,1.69-.14,3.6-.7,5.69-1.65,1.98-.91,3.96-1.96,5.89-3.13,1.91-1.16,3.67-2.33,5.23-3.46,1.54-1.11,2.74-2.03,3.57-2.71.03-.02.06-.05.09-.07.59-.44,1.11-.86,1.58-1.27.49,1.12,1.08,2.15,1.77,3.09.64.88,1.37,1.67,2.19,2.38,1.08.93,2.26,1.67,3.54,2.25,1.59.72,3.33,1.19,5.21,1.37.62.06,1.26.09,1.91.09s1.27-.03,1.92-.08c4.44-.37,8.22-1.43,11.27-3.13.32-.18.64-.36.95-.56,2.92-1.86,5.76-4.56,8.44-8.02.64.21,1.29.35,1.94.41.27.03.53.04.8.04.24,0,.47,0,.71-.03,1.45-.12,2.8-.48,4.02-1.07.74-.36,1.62-.82,2.59-1.36.14-.08.28-.15.43-.24.05,0,.09,0,.14,0,.03,0,.06,0,.08,0,.86-.07,1.76-.74,3.21-2.4.35-.4.71-.78,1.09-1.16,0,.06,0,.13-.01.19-.08,1.17-.07,2.41.03,3.69.07.86.3,1.71.66,2.56.16.37.34.74.55,1.11.57.97,1.3,1.85,2.16,2.63.17.16.34.31.52.46,1.09.88,2.42,1.58,3.95,2.07.81.26,1.66.44,2.54.52.41.04.83.06,1.26.06.4,0,.81-.02,1.22-.05,2.64-.22,4.96-.62,6.89-1.18.32-.09.63-.21.95-.31,1.61-.55,3.11-1.26,4.46-2.14,1.58-1.03,3.13-2.33,4.59-3.85.37-.39.75-.8,1.13-1.23.9-1.01,1.84-2.13,2.81-3.36.91.38,1.78.65,2.61.8.28.05.57.09.88.12.43.04.9.06,1.38.06.52,0,1.07-.02,1.65-.07,2.16-.18,3.94-.65,5.29-1.4.73-.4,1.39-.79,2.03-1.18.79,2.51,1.94,4.59,3.45,6.2,2.13,2.26,4.68,3.54,7.59,3.82.4.04.81.06,1.22.06.39,0,.78-.02,1.17-.05l2.44-.2c3.25-.27,5.9-1.19,7.89-2.75,1.15-.91,2.32-1.97,3.49-3.17.24.96.6,1.78,1.09,2.47.79,1.12,2.08,1.77,3.83,1.94.3.03.62.04.95.04.35,0,.71-.02,1.09-.05,1.44-.12,2.98-.56,4.57-1.3,1.49-.7,3.03-1.54,4.59-2.51,1.55-.96,3.06-2,4.5-3.08,1.42-1.06,2.74-2.04,3.93-2.89,1.89-1.45,3.31-2.74,4.32-3.89.44-.32.93-.76,1.5-1.38-.12.42-.24.85-.36,1.29-.3,1.13-.57,2.25-.78,3.31-.24,1.18-.33,2.16-.26,2.99.25,3.03,1.94,4.85,4.75,5.12.24.02.5.03.76.03s.53-.01.81-.03c1.08-.09,2.28-.7,3.78-1.91,1.28-1.03,2.76-2.41,4.38-4.08,1.6-1.66,3.35-3.53,5.19-5.56,1.85-2.05,3.86-4.2,5.96-6.41,5.09-5.27,9.04-9.13,11.73-11.47.66-.57,1.22-1.05,1.69-1.44-.31.82-.65,1.73-1.01,2.73-.59,1.62-1.26,3.4-2,5.3-.76,1.95-1.44,3.84-2.02,5.59-.59,1.78-1.09,3.41-1.49,4.83-.46,1.61-.64,2.72-.57,3.5.2,2.46,1.21,4.18,3,5.11,1.04.54,2.18.88,3.39.99.32.03.66.05,1,.05.31,0,.63-.01.96-.04,1.75-.14,3.63-.63,5.59-1.43,1.89-.78,3.77-1.74,5.59-2.87,1.77-1.1,3.5-2.26,5.15-3.44,1.66-1.19,3.11-2.33,4.31-3.38,1.21-.94,2.18-1.85,2.98-2.74.13-.1.26-.21.42-.35.15-.13.29-.26.44-.4-.11.35-.21.7-.31,1.04-.34,1.17-.63,2.34-.85,3.48-.24,1.23-.32,2.26-.24,3.17.1,1.18.62,2.26,1.55,3.21.76.77,1.73,1.22,2.86,1.33.18.02.36.03.55.03.18,0,.35,0,.53-.02,1.25-.1,2.51-.57,3.72-1.39,1.09-.73,2.3-1.75,3.69-3.09,1.31-1.27,2.83-2.82,4.51-4.61,1.67-1.78,3.64-3.78,5.88-5.97.59-.5,1.41-1.28,2.5-2.38,1.07-1.08,2.24-2.25,3.51-3.52,1.24-1.23,2.58-2.53,3.98-3.85,1.4-1.33,2.71-2.54,3.87-3.6.62-.56,1.2-1.08,1.73-1.54-.04.1-.07.19-.11.3-.81,2.13-1.73,4.5-2.76,7.12-1.04,2.66-1.97,5.26-2.75,7.74-.85,2.67-1.21,4.61-1.1,5.91.25,2.98,1.85,4.36,3.16,4.99.99.48,2.13.79,3.4.91.43.04.88.06,1.34.06s.95-.02,1.45-.06c1.72-.14,3.77-.81,6.27-2.03,2.35-1.16,4.72-2.5,7.04-4.01,2.32-1.5,4.49-3.08,6.46-4.68,2.02-1.65,3.45-2.98,4.37-4.07.34-.4.68-1.04,1.06-2,.41-1.02.52-2.49.35-4.52ZM224.2,78.5c-.87,1.02-1.63,2.28-2.26,3.74-.66,1.54-.91,3.47-.72,5.74.07.84.34,1.82.83,3,.35.85.73,1.67,1.14,2.44-.16.27-.38.54-.65.82-.54.55-1.15,1.08-1.82,1.57-.63.46-1.3.84-1.99,1.12-.66.27-1.22.42-1.68.46-.28.02-.55.03-.81.03s-.52-.01-.76-.03c-1.07-.1-1.95-.42-2.68-.97-.99-.75-1.62-2.48-1.83-5.01-.23-2.73,0-5.29.69-7.63.69-2.36,1.66-4.44,2.88-6.18,1.21-1.74,2.54-3.14,3.95-4.16,1.33-.96,2.61-1.5,3.8-1.6.27-.02.53-.03.78-.03.23,0,.45,0,.65.03.92.09,1.57.36,1.97.83.71.83,1.09,1.63,1.16,2.44.02.27-.14.58-.48.93-.66.68-1.39,1.5-2.19,2.44Z"/>
    </g>
  </g>
  <path class="cls-1" d="M93.75,163.69c-.28-2.24-.23-4.48.02-6.7-1.43-.15-2.41-.64-2.11-2.64-4.54-.5-8.91-.98-13.25-1.46-.09-.91-.16-1.56-.24-2.37-2.48-.27-4.88-.46-7.26-.85-.57-.09-1.14-.78-1.51-1.33-.77-1.14-2.28-1.79-2.27-3.44-2.56-.28-1.58-2.11-1.5-3.5.06-1.12.23-2.24.37-3.5-2.41-.09-2.32-1.52-2.05-3.12.21-1.26.23-2.55.45-3.8.28-1.57.37-2.95-1.82-3.18.16-1.41.21-2.69.45-3.94.32-1.65.23-2.96-1.51-3.01-1.39-1.4,1.48-3.84-1.59-4.39-1.44-.26-3.22-.77-4.31-.18-.87.47-.93,2.44-1.36,3.75-.62.12-1.25.23-1.96.36-.22,1.98-.44,3.84-.62,5.71-.17,1.68-.04,3.58-2.73,3.1-.26,2.33-.51,4.46-.72,6.6-.12,1.18-.14,2.31-1.85,2.25-.3,0-.79.79-.9,1.28-.31,1.33.18,3.14-2.16,3.04-.14,0-.28.55-.46.81-.25.36-.49.76-.83,1.01-.79.57-1.64,1.05-2.46,1.57-.12.43-.45.42-.78.41-1.41-.06-3.15-.98-3.57,1.49-.03.2-1.05.38-1.59.33-2.48-.22-4.96-.43-7.42-.82-1.57-.25-2.62-.05-2.72,1.88-.84-.04-1.57-.03-2.3-.1-2.41-.24-4.81-.57-7.22-.74-.54-.04-1.54.3-1.61.62-.28,1.39-1.16,1.23-2.13,1.11-2.38-.28-4.76-.53-7.09-.79-.29.92-.49,1.55-.7,2.23-1.31-.13-2.21-.01-2.39,1.64-.19,1.72.11,2.73,2.19,2.77-.72,2.03.57,2.14,1.87,2.26,1.41.13,2.8.37,4.21.44,1.69.09,3.06.44,2.85,2.67,2.74.3,5.34.58,7.94.88,1.62.19,3.66-.11,2.96,2.75,4.58.5,8.91.98,13.35,1.47-.12,1.39.11,2.33,1.72,2.36,1.35.03,3-.06,2.86,2.13-.01.16.33.47.53.49,1.73.2,1.24,1.42,1.14,2.44-.12,1.15-.42,2.3,1.31,2.62.3.05.61,1.07.58,1.63-.09,1.72-.34,3.43-.55,5.3,2.45-.07,2.32,1.31,2.09,2.84-.21,1.33-.31,2.67-.45,4.01-.12,1.17-.58,2.46,1.27,2.81.24.05.48.89.47,1.36-.03,1.21-.27,2.41-.31,3.61-.02.55.12,1.2.43,1.63.57.79,1.33,1.44,2.01,2.15-.11.13-.21.25-.32.38,1.18.13,2.35.26,3.59.4.21-.65.38-1.21.62-1.95,2.28.54,2.36-1.03,2.46-2.61.06-.94.15-1.88.33-2.8.08-.4.44-1.05.67-1.05,1.82,0,1.72-1.32,1.84-2.5.14-1.34.34-2.67.43-4.01.1-1.55.32-2.89,2.71-2.3.35-3.17.66-6.02.88-7.98,3.1-2.58,5.61-4.67,8.58-7.15,2.49.27,5.61.65,8.75.93.54.05,1.55-.26,1.61-.56.35-1.66,1.44-1.46,2.63-1.33,2.98.35,5.97.66,9.09,1.01.04-2,1.04-2.24,2.38-2.1,0-.1,0-.19,0-.29-.47-1.29-.85-2.62-1.03-4.05ZM88.81,165.51c-2.36-.26-4.49-.42-6.59-.75-1.63-.26-3-.36-2.96,2.09-3.72-.41-7.29-.8-11.03-1.21-.08,2.11-1.21,2.55-2.84,2.1-1.47-.41-2.29.19-2.56,1.65-.66.04-1.25.08-1.72.11-1.32,1.42.73,4.83-3.25,4.48-.26,2.37-.53,4.68-.76,7-.1.99-.2,1.75-1.5,1.96-.48.08-.85,1.25-1.13,1.98-.33.86.04,2.39-1.5,2.08-1.33-.27-3.44.86-3.82-1.78-.08-.55-.99-.99-1.94-1.88.19-1.74.43-4.06.71-6.37.12-.99.23-1.8-1.1-2.16-.42-.11-.85-1.1-.84-1.67.05-1.67.32-3.33.51-5.09-.71-.26-1.32-.49-2-.74.12-1.67-.86-2.11-2.36-2.15-1.41-.04-2.8-.35-4.21-.42-1.6-.08-2.82-.43-2.28-2.67-3.08-.34-6-.72-8.92-.96-1.59-.13-2.84-.42-2.4-2.6-1.4-.22-2.7-.42-4-.63.1-.15.21-.3.31-.45-.66-.6-1.39-1.15-1.96-1.83-.34-.4-.65-1.04-.57-1.5.08-.45.6-.97,1.06-1.16.45-.18,1.07-.05,1.59.06,1.41.28,2.42.02,2.45-1.87,3.68.4,7.26.8,11,1.21.13-2.52,1.62-2.42,3.37-2.13,1.98.33,3.98.46,5.27.61,2.11-1.74,3.74-3.09,6.06-5.01.12-1.1.35-3.2.59-5.37.89-.08,1.53-.14,2.48-.23.25-2.28.61-4.59.73-6.91.09-1.73.79-2.07,2.41-1.88,5.01.59,5.08.54,4.59,5.54-.15,1.51.42,2.1,1.98,2.26-.24,2.2-.47,4.3-.72,6.56,2.4.03,2.44,1.39,2.1,3.02-.2.96-.31,1.91,1.07,2.13.27.05.72.39.71.59-.05,2.21,1.62,1.87,2.93,2.02,2.8.33,5.61.72,8.42.9,1.65.11,2.57.62,2.24,2.6,2.86.31,5.64.62,8.42.93-.06.23-.12.46-.18.69.65.63,1.34,1.24,1.95,1.91.28.31.61.75.59,1.11-.04,1.19-.23,2.37-.39,3.81Z"/>
  <path class="cls-1" d="M107.2,161.66c-.06.25-.1.51-.15.76.08.89.18,1.77.33,2.64.3-.17.7-.23,1.25-.15.19.03.64-.5.66-.79.01-.28-.31-.7-.6-.86-.38-.22-.87-.25-1.33-.36-.05-.43-.1-.83-.15-1.24Z"/>
  <g>
    <rect class="cls-1" x="303.4" y="287.33" width="2.23" height="2.15"/>
    <path class="cls-1" d="M300.51,292.06h8.04v-12.31h-8.04v12.31ZM301.04,282.72c0-.1.01-.16.04-.18.03-.02.08-.03.17-.03l2.09.04h.3v-.16c0-.96-.04-1.68-.12-2.15.63.02,1.21.06,1.74.12.19.03.28.09.28.2,0,.04-.01.09-.04.16-.03.08-.05.14-.07.17-.06.26-.1.76-.1,1.48v.18h.38l2.08-.04c.1,0,.16.01.18.04.02.02.03.08.03.17v1.21c0,.1-.01.17-.04.19-.03.02-.08.03-.17.03l-2.08-.05h-.38v1.77h.04l1.66-.05c.1,0,.17.01.19.04.02.02.03.09.03.18l-.05,1.53v1.74l.05,1.52c0,.14-.07.2-.22.2l-1.66-.04h-1.76l-1.66.04c-.14,0-.21-.07-.21-.2l.04-1.52v-1.74l-.04-1.53c0-.11.01-.17.04-.19.03-.02.08-.03.17-.03l1.68.05v-1.77h-.3l-2.09.05c-.1,0-.16-.01-.18-.04-.02-.03-.03-.09-.03-.18v-1.21Z"/>
    <path class="cls-1" d="M275.56,285.49c-1.02,0-1.84.64-2.47,1.91,0,2.98.79,4.47,2.37,4.47,1.42,0,2.13-1.11,2.13-3.32,0-2.04-.68-3.06-2.04-3.06Z"/>
    <path class="cls-1" d="M176.19,282.46c.09.29.17.58.26.87.29.98.6,1.99.94,2.97.11.31.38.73.52.86,1.49-.37,1.81-.59,1.88-.67.13-1.95.18-3.75.14-5.46l-.21.08-3.53,1.35Z"/>
    <path class="cls-1" d="M93.65,289.68c1.54-.25,1.99-.79,2-2.44,0-.46-.08-.77-.25-.94-.14-.14-.35-.2-.66-.2-.1,0-.2,0-.31.02-.22.03-.49.07-.77.12-.44.08-.9.16-1.23.16-.2,0-.48-.03-.61-.25-.79-1.38-1.4-2.92-1.76-4.43-.21-.89-.3-1.81-.38-2.71-.07-.74-.14-1.51-.29-2.25-.05-.27-.67-.76-.9-.76-1.1.24-2.16.58-3.39.99-.33.11-.67.22-1.02.33,1.6,1.57,2.99,3.66,1.26,6.26.84.71,1.15,1.22,1.07,1.73-.08.55-.63.98-1.83,1.47-1.72.69-3.59,1.08-5.2,1.37-.56.1-.94.14-1.25.14-.16,0-.31-.01-.44-.04.96.41,1.91,1.18,2.2,2.18.23.81.53.92.79.92.2,0,.46-.07.78-.22.14-.06.28-.11.41-.16.2-.07.39-.13.53-.23.7-.5,1.44-.74,2.27-.74.97,0,1.9.33,2.8.65.29.1.6.21.89.31.38.12.62.3.71.56.15.41-.12.82-.36,1.19-.09.13-.17.26-.22.36-.13.27-.29.53-.44.79-.24.4-.47.77-.57,1.17-.5,2.1-.94,4.34-1.32,6.66-.02.16.29.66.45.77,1.78-.15,3.59-.37,5.18-.57.33-.04.65-.08.96-.12-.09-.43-.17-.85-.26-1.26-.24-1.18-.46-2.29-.7-3.4-.06-.29-.11-.59-.16-.89-.13-.74-.26-1.51-.58-2.13-.65-1.22-.46-2.13-.19-2.67.45-.89,1.46-1.53,2.77-1.74Z"/>
    <path class="cls-1" d="M237.67,283.81l.11.11c.27-.13.55-.25.83-.36.72-.3,1.46-.61,1.76-1.1.38-.63.35-1.58.32-2.49,0-.3-.02-.6-.01-.89,0-.1-.19-.37-.31-.48-1.12.33-2.25.71-3.34,1.08-.25.09-.51.17-.76.26h0s0,.03,0,.03c2.17.8,1.77,2.58,1.42,3.84Z"/>
    <path class="cls-1" d="M175.98,279.92c.07,0,.14,0,.21,0,.86-.06,1.73-.15,2.58-.25.35-.04.7-.08,1.05-.11h.04c-.02-.36-.04-.71-.07-1.06-.03-.38-.17-1.02-.82-1.02-.31,0-.68.15-1.05.41-.27.19-.55.38-.73.5l-.14.09-.11.08-.13-.04-1.05-.34-.33-.11-.45,1.78c.06,0,.11.01.17.02.29.03.56.06.83.06Z"/>
    <path class="cls-1" d="M285.57,284.22l-1.86,4h3.7v-3.32c0-1.06.04-2.6.12-4.62h-.27c-.45,1.18-1.01,2.5-1.68,3.95Z"/>
    <path class="cls-1" d="M130.87,275.68c.25,0,.5.01.76.04.1.01.2.02.3.02.9,0,1.9-.42,2.86-.82.38-.16.77-.32,1.15-.46.1-.04.31-.41.34-.73.06-.66.09-1.33.12-1.99.04-.88.08-1.79.2-2.68.1-.76.24-1.52.4-2.29h-10.34c.34.15.6.36.76.63.25.45.23,1.03-.06,1.71-1.4,3.26-3.28,7.54-5.33,11.82-.51,1.06-.4,1.51.49,1.99,1.44.78,2.02,2.05,1.84,4-.03.32-.06.64-.09.95l.21-.12c3.9-2.29,7.93-4.65,10.31-9.44-.39.09-.76.17-1.13.25-1.17.25-2.18.47-3.16.81-.45.16-.86.23-1.28.23-1.22,0-2.18-.68-3.04-1.42l-.25-.21.25-.22c1.23-1.08,2.65-2.08,4.69-2.08Z"/>
    <path class="cls-1" d="M443.76,291.69c-.15-.33-.43-.78-.84-1.34l-.12-.15c-.71-.94-1.08-1.72-1.13-2.36-.57.79-1.13,1.52-1.68,2.19.3.04.56.13.75.31.24.23.36.54.36.92,0,.33-.1.61-.31.84-.21.23-.46.34-.77.34-.12,0-.27-.04-.46-.13-.05-.02-.09-.03-.13-.04-.16.1-.28.24-.35.41-.08.18-.12.4-.12.66,0,.59.2,1.06.59,1.42.39.36.92.54,1.58.54.79,0,1.46-.26,2.01-.77.56-.52.83-1.12.83-1.82,0-.34-.07-.68-.22-1.02Z"/>
    <path class="cls-1" d="M412.29,285.28c-.23-.26-.55-.38-.95-.38-.56,0-1.15.22-1.77.65-.62.43-1.24,1.06-1.86,1.89-.64.85-1.14,1.75-1.5,2.67-.36.92-.55,1.76-.55,2.49,0,.58.12,1.03.36,1.36.24.32.58.49,1.02.49.49,0,1.02-.22,1.59-.66.57-.44,1.17-1.08,1.78-1.94.71-.98,1.25-1.95,1.64-2.9.38-.95.58-1.81.58-2.57,0-.47-.12-.84-.35-1.09Z"/>
    <path class="cls-1" d="M143.18,287.28c-.25.43-.51.87-.93,1.09-.59.32-1.25.49-1.89.67-.31.08-.63.17-.94.27-1.29.43-1.58.9-1.25,2.22.45-.05.9-.12,1.33-.18,1.11-.16,2.25-.32,3.38-.32.11,0,.21,0,.32,0,.06,0,.12,0,.18,0,.6,0,.95-.09,1.12-.29.16-.19.18-.54.08-1.06-.32-1.65-.66-3.3-1.02-5.05-.13-.65-.27-1.31-.4-1.98-.16.06-.32.12-.47.18-.5.19-.93.35-1.33.57-.36.2-.77.42-1.19.42s-.77-.2-1.1-.63c-.02,0-.04,0-.07,0-.28,0-.7.12-.81.23-.34.35-.6.8-.85,1.24-.07.13-.15.26-.22.38.63.79.8.95,1.13.95.22,0,.52-.07.98-.18l.1-.02c.64-.15,1.33-.3,2.02-.3.15,0,.3,0,.44.02.44.04.81.32,1.18.58.15.11.29.21.44.3l.27.16-.18.25c-.11.15-.21.32-.31.5Z"/>
    <path class="cls-1" d="M384.92,285.68c0-.27-.07-.47-.21-.6-.14-.14-.34-.21-.6-.21-.8,0-1.72.56-2.78,1.67-1.06,1.11-1.83,2.46-2.32,4.04,1.72-.45,3.14-1.15,4.25-2.1,1.11-.95,1.67-1.88,1.67-2.8Z"/>
    <path class="cls-1" d="M221.67,266.77c.18.11.36.2.53.32.45.31.6,1.05.62,1.44.06,1.25.06,2.53.06,3.76v.52c0,.71.13,1.07.91,1.18.52.07,1.15.63,1.3,1.15.13.47-.39,1.28-.84,1.47-1.54.63-1.59,1.86-1.66,3.28,0,.12-.01.24-.02.36-.17,3.14-.35,6.34-.53,9.43-.16,2.83-.33,5.75-.49,8.63-.06,1.07-.09,2.16-.12,3.21-.04,1.44-.09,2.92-.2,4.38-.03.48-.32.9-.6,1.3-.12.18-.23.34-.32.51l-.18.33-.27-.27c-.15-.15-.33-.29-.51-.44-.45-.36-.92-.73-1.01-1.23-.15-.81-.1-1.65-.05-2.47.02-.38.04-.78.05-1.16,0-2.3,0-4.6,0-6.9v-2.62s-.16-.15-.16-.15c0,.01-.01.03-.01.04-.12.35-.25.7-.51.98-1.41,1.52-3.28,3.51-5.25,5.45-.35.35-1.16.7-1.59.7-.15,0-.27-.04-.36-.12-.63-.59-1.1-1.43-1.24-2.17-.06-.32.19-.7.35-.9.25-.32.63-.67.98-.69,1.63-.12,2.54-1.17,3.5-2.28.45-.52.91-1.05,1.45-1.48.82-.66,1.51-1.55,2.17-2.41.22-.29.45-.58.68-.87.21-.26.36-.62.37-.9.07-1.55.12-3.12.17-4.64.04-1.12.07-2.24.12-3.35.02-.55-.05-.92-.22-1.09-.06-.06-.17-.14-.41-.14-.2,0-.45.06-.75.17-.22.08-.46.13-.68.17-.26.05-.51.1-.71.2-.7.35-1.41.53-2.11.53-1.16,0-2.33-.49-3.59-1.48l-.22-.17.17-.22c1.3-1.7,3.16-2.59,5.86-2.79,1.15-.09,1.93-.17,2.18-.47.24-.29.18-.99.06-2.14l-.03-.29c-.15-1.57-.09-3.18-.02-4.74.01-.3.02-.62.03-.93h-77.72c.46.9.41,1.93.07,3.54-.04.17-.07.35-.11.52-.13.65-.27,1.32-.46,1.97-.16.55-.11.78-.04.88.07.1.25.15.52.15.13,0,.29-.01.47-.04.69-.1,1.37-.2,2.06-.3,2.59-.38,5.27-.77,7.92-.95.23-.02.48-.02.73-.02,1.04,0,2.12.14,3.26.29.68.09,1.39.18,2.15.26l.55.05-.36.42c-1.21,1.38-2.18,2.36-3.69,2.39-.39,0-.78.01-1.16.01-.62,0-1.24,0-1.86-.01-.62,0-1.23-.01-1.85-.01-1.11,0-2.02.02-2.85.08-2.27.14-4.55.56-6.7.96-.48.09-1.11.57-1.26.97-1.02,2.63-2.86,4.68-5.63,6.29-.6.35-1.18.76-1.74,1.17-.62.45-1.26.91-1.94,1.29-1.24.69-2.67,1.23-4.25,1.6l-.47.11c-.25,2.7-.48,5.43-.71,8.08-.26,3.06-.53,6.23-.83,9.34-.04.45-.35.84-.65,1.21-.13.16-.25.31-.34.46l-.18.28-.25-.22c-.13-.11-.29-.23-.47-.35-.43-.3-.87-.6-.93-1.04l-.03-.2c-.2-1.48-.41-3.02-.11-4.45,1.16-5.46,1.32-11.19.5-17.04l-8.31,9.7-.17.2-.21-.15-.46-.33-.22-.16.14-.23.27-.43c.2-.31.39-.62.59-.92,4.09-6.41,8.58-13.99,10.03-22.72.22-1.32.37-2.19.83-2.65H55.22v42.69h89.61c-.09-.17-.2-.34-.28-.52-.22-.48-.09-1.07.04-1.64.04-.17.07-.33.1-.48.05-.28.13-.56.2-.82.12-.4.23-.79.22-1.15-.09-2.86-.24-5.77-.38-8.59-.04-.74-.07-1.47-.11-2.21,0-.04-.01-.08-.02-.13-.54.07-1.07.14-1.61.21-1.41.19-2.86.38-4.3.46-1.08.06-1.32.56-1.42,1.5l-.06.55c-.16,1.61-.33,3.28-.63,4.9-.37,2.04-1.65,3.55-3.83,4.5l-.27.12-.11-.28c-.02-.06-.05-.11-.07-.16-.07-.14-.15-.3-.07-.48,1.54-3.34,1.68-6.99,1.81-10.52.02-.61.05-1.23.08-1.84.07-1.33-.16-2.72-.38-4.06-.08-.49-.16-.99-.23-1.49-.19-1.43.88-3.55,2.12-4.21.08-.04.16-.08.24-.12.2-.1.46-.21.52-.33.97-2.05,2.78-2.24,4.53-2.43.18-.02.36-.04.54-.06,1.18-.14,2.13-.37,2.91-.71.6-.26,1.19-.39,1.79-.39,1.38,0,2.59.67,3.62,1.3.43.26.53,1.2.36,1.63-.12.31-.38.54-.62.76-.17.15-.34.3-.44.46-.08.12-.16.24-.24.37-.35.52-.71,1.05-.71,1.53-.03,5.64,0,11.67.11,18.43.02,1.63.21,3.29.4,4.9l.04.39c.02.21.03.42.03.61h321.37v-42.69h-248.42ZM111.7,304.31c-.64,1.62-1.41,2.25-2.75,2.25-.26,0-.56-.02-.9-.07-1.15-.16-2.31-.35-3.44-.54-3.16-.51-6.42-1.04-9.62-1.04h-.02c-2.96,0-5.99.52-8.92,1.02-1.23.21-2.5.43-3.75.6-.9.13-1.81.28-2.69.44-1.9.33-3.86.67-5.81.72-.03,0-.06,0-.09,0-1.09,0-2.17-.5-3.22-.98-.42-.19-.86-.4-1.29-.56-.29-.11-.47-.64-.37-.91.08-.21.31-.38.68-.51.91-.32,1.94-.68,2.96-.98.19-.06.47-.12.76-.12.17,0,.32.02.46.07.74.24,1.5.36,2.32.36,1.21,0,2.41-.24,3.84-.61.73-.19,1.46-.28,2.05-.36.12-.02.23-.03.33-.05l.07-1.28c.08-1.35.15-2.64.23-3.94.01-.2.04-.4.07-.59.03-.21.06-.4.07-.6.03-.73.03-1.44-.16-1.63-.03-.03-.09-.07-.23-.07-.29,0-.77.15-1.44.39-.7.25-1.5.4-2.15.4-.6,0-1.06-.12-1.37-.37-1.05-.83-1.52-2.33-1.23-3.89.11-.57-.14-1.25-.4-1.97-.13-.35-.26-.72-.36-1.09l-.06-.21.19-.11c.21-.12.47-.18.78-.18.28,0,.61.06.96.16-.6-.35-.9-1.11-1.31-2.27l-.19-.54.54.17c.54.17,1.08.26,1.6.26,1.31,0,2.56-.54,3.95-1.69.85-.71,1.23-3.28.67-4.51-.43-.95-1.04-1.37-1.96-1.37-.33,0-.71.05-1.15.16-.9.22-1.48.35-1.97.35-1.21,0-1.67-.76-3.01-3.04l-.04-.06-.14-.23.22-.15c.28-.19.56-.38.84-.57.71-.49,1.44-.99,2.2-1.44.29-.17.7-.28,1.07-.28.16,0,.3.02.43.05.96.25,1.95.37,3.05.37,1.74,0,3.5-.31,5.21-.61.9-.16,1.84-.32,2.76-.44.77-.1,1.55-.25,2.3-.4,1.24-.25,2.53-.5,3.81-.52.07,0,.13,0,.2,0,1.76,0,3.54.29,5.27.57.4.06.8.13,1.2.19.32.05.58.46.67.64.13.23.26.56.15.8-.41.91-.87,1.51-1.39,1.77-.2.1-.43.15-.72.15-.26,0-.54-.04-.8-.08-.21-.03-.4-.06-.59-.07-.75-.04-1.5-.08-2.24-.12-1.8-.1-3.65-.2-5.48-.28-.01,0-.03,0-.04,0-.19,0-.4.05-.66.11-.04,0-.08.02-.12.03.13.16.25.32.38.47.45.55.87,1.07,1.06,1.68.42,1.29.58,2.67.71,3.98.09.87.44,1.05.95,1.05.09,0,.2,0,.31-.02.06,0,.13-.01.2-.01.1,0,.19,0,.25-.03.77-.33,1.53-.5,2.33-.5,1.78,0,3.4.81,4.97,1.6l.25.12c.54.27,1.03,1.08,1.02,1.68-.02.97-.56,1.54-1.44,1.54-.07,0-.15,0-.23-.01h-.02c-.28,0-.81.4-.98.74-.21.4-.34.84-.48,1.31-.18.57-.36,1.15-.67,1.67-.52.83-1.34,1.57-2.15,1.91-.62.27-1.27.45-1.96.64-.49.14-.99.28-1.5.46,1.68.95,1.8,2.54,1.65,4.14-.1,1.06-.28,2.12-.45,3.15-.06.36-.12.72-.18,1.07,1.73.29,3.53.37,5.44.45,3.49.14,7.1.29,10.54,1.86l.25.11-.1.25ZM186.52,274.75l.08-.27.08-.27.05-.16.16-.04c.42-.1.84-.21,1.25-.32.95-.26,1.94-.53,2.94-.58.17,0,.35-.01.52-.01,1.42,0,2.85.27,4.07.53.16.03.3.16.42.37.22.37.44,1.12.3,1.57-.52,1.69-1.09,3.38-1.64,5.03-.55,1.62-1.11,3.3-1.62,4.97-.31,1-.91,1.56-1.68,1.56-.11,0-.22-.01-.33-.03-.2-.04-.41-.06-.61-.06-.93,0-1.72.41-2.55.85-.25.13-.51.27-.78.4-.25.12-.51.25-.75.39-.42.22-.85.45-1.31.62-.23.09-.52.14-.78.14-.31,0-.55-.07-.7-.21-.37-.34-.42-1.07-.33-1.47.52-2.51,1.2-3.07,3.86-3.15,1.21-.04,1.84-.54,1.98-1.57.24-1.76.44-3.52.63-5.23.07-.61.14-1.22.21-1.82l-3.27-.86-.28-.07.08-.28ZM162.4,282.93c.09-.73.19-1.44.28-2.15.23-1.71.44-3.32.61-4.96.17-1.63,1.11-1.97,1.88-1.97h.05c.06,0,.12,0,.18,0,.22,0,.45,0,.68-.01.24,0,.49-.01.73-.01.84,0,1.77.07,2.34.57,1.16,1.02.14,2.46-.53,3.41-.07.1-.14.19-.2.28-.13.19-.26.38-.39.57-1.32,1.93-2.68,3.93-5.28,4.58l-.4.1.05-.41ZM167.21,294.07c-.14,0-.6-.02-.8-.28-.8-1.09-1.43-2.08-1.94-3.01-.3-.55-.54-1.13-.78-1.69-.23-.53-.46-1.08-.73-1.59-.28-.52-.62-1.01-1.02-1.56-.19-.26-.38-.54-.58-.83l-.24-.35.41-.09c.36-.08.74-.11,1.11-.11,2.8,0,5.41,2.11,5.6,4.51.06.73.28.73.46.73.1,0,.22-.02.36-.05.22-.06.44-.11.65-.17.9-.23,1.82-.47,2.75-.64.06-.01.13-.02.2-.02.25,0,.5.08.74.15.12.04.24.07.35.1l.14.03c-.37-.65-.69-1.34-1-2-.19-.42-.4-.85-.61-1.27-.73-1.45-1.49-2.93-2.22-4.36-.32-.61-.63-1.23-.95-1.85l-.18-.36.37-.05c.15-.05.29-.08.42-.08,0,0,.01,0,.02,0l.93-1.39c1.98-2.96,2.56-6.22,1.77-9.97l-.08-.39.4.05c.5.06.96.12,1.42.17,1.1.12,2.05.23,3,.46.54.13,1.28,1.05,1.19,1.63l-.03.17c-.18,1.14-.38,2.43-1.14,3.17-1.35,1.33-2.87,2.52-4.34,3.68-.58.46-1.19.93-1.77,1.41l-1.26,1.03s.07,0,.11.01c.43.11.94.23,1.41.23.77,0,1.33-.32,1.79-1.02.26-.39.61-.69.96-.98.62-.52,1.16-.97,1.17-1.89,0-.61,1.11-1.25,1.69-1.38,1.28-.28,2.72-.48,4.52-.62.4-.03.87-.06,1.34-.06.69,0,1.27.07,1.77.21.44.13.85.79,1.02,1.21.14.34.15.59.05.76-1.33,2.25-1.71,4.79-2.08,7.24-.21,1.41-.43,2.87-.83,4.27-.18.63-.82,1.31-1.46,1.57-1.68.66-3.4,1.21-5.12,1.62-.1.02-.2.03-.32.03-.56,0-1.34-.28-1.62-.72-.07-.11-.13-.22-.2-.33l-.08.16c-.05.1-.1.22-.14.34-.12.32-.24.65-.53.82-1.69,1.05-3.5,2.1-5.54,3.23-.17.1-.39.12-.55.12ZM176.5,298.17c-.65,1.17-1.24,2.39-1.82,3.57-.66,1.36-1.35,2.77-2.11,4.1-.38.66-1.04,1.13-1.68,1.59-.28.2-.56.4-.81.61l-.22.19-.18-.22-.38-.45-.14-.17.13-.18c3.12-4.39,4.31-9.31,3.53-14.61l-.05-.33h.34c1.91.05,3.24.64,3.86,1.72.62,1.07.46,2.52-.46,4.18ZM204.39,303.66c-5.73,2.74-11.93,3.48-17.78,3.88h-.03s-.03,0-.03,0c-.3-.05-.63-.1-.98-.15-1.02-.15-2.29-.34-3.52-.65-.64-.16-1.29-.94-1.45-1.53-.46-1.73-.74-3.29-.85-4.76-.14-1.74-.2-3.52-.25-5.23-.02-.75-.05-1.5-.07-2.24,0-.08,0-.16-.01-.25-.05-.96-.11-2.27,1.66-2.4.04,0,.08,0,.12,0,1.12,0,2.78,1.23,2.88,2.44.07.88,0,1.78-.08,2.64l-.03.32c-.18,2.2-.39,4.59-.65,7.3-.07.77.18,1.09.97,1.26,1.25.26,2.53.39,3.82.39,2.72,0,5.54-.57,8.61-1.74,1.77-.67,2.19-2.18,2.31-4.39.02-.32.1-.62.19-.91.04-.12.07-.25.1-.37l.08-.34.32.16c.12.06.23.11.35.17.25.12.52.25.77.38.35.19.66.42.97.64.63.46,1.23.9,2.12.96.85.06,1.52,1.89,1.77,2.67.18.56-.76,1.49-1.3,1.75ZM228.54,275.01c.25-.56.5-1.13.76-1.7.7-1.59,1.42-3.24,2.24-4.83.31-.61,1.22-1.1,1.87-1.17.18-.02.37-.03.55-.03.79,0,1.53.17,2.08.48.45.25.71.76,1,1.31.1.19.2.39.31.58l.42-.09c.68-.14,1.52-.31,2.36-.48.05-.01.1-.02.15-.03.16-.04.33-.08.5-.08.1,0,.2.01.28.04.64.22,1.27.47,1.87.71.23.09.46.18.69.27l.3.12-.15.28c-.11.2-.2.41-.3.64-.23.5-.46,1.02-.84,1.42-1.29,1.34-2.49,2.42-3.68,3.3-.12.09-.29.14-.48.14-.28,0-.62-.1-.94-.19-.2-.06-.41-.12-.59-.15l-.19-.03-.02-.09-.79.86-.13.14-.18-.06-.33-.11-.27-.09.1-.27c.13-.35.26-.71.39-1.06.33-.89.67-1.81.98-2.73.09-.26.11-.55.14-.85,0,0,0-.01,0-.02-.01,0-.02,0-.04,0-.31.07-.6.14-.83.28-.47.29-.93.68-1.45,1.23-.96.99-1.95,2.02-3.63,2.02-.06,0-.13,0-.2,0-.01,0-.03,0-.04,0-.37,0-.78.22-1.12.4-.16.08-.3.16-.44.22l-.65.26.29-.64ZM227.17,289.51c-.43-.67-1.09-1.87-.71-2.42.88-1.27.47-2.39.03-3.57-.13-.36-.27-.73-.37-1.11-.05-.19-.1-.39-.16-.61l-.09-.37-.09-.35h.37s.05,0,.05,0c3.24,0,3.62.26,4.55,3.13.19.6.81,1.34,1.01,1.36,1.16-.13,2.05-.33,2.17-1.68l.02-.22q.18-2.02-2.35-4.35l-.34-.32.44-.16c.47-.17.93-.35,1.37-.52.97-.37,1.89-.73,2.85-.98.42-.11.84-.22,1.25-.33,2.19-.59,4.46-1.19,6.74-1.43.12-.01.25-.02.38-.02.98,0,1.98.38,2.94.74.37.14.76.29,1.13.4.17.05.28.23.35.57.06.3.08.68-.12.85-1.42,1.18-2.05,2.77-2.72,4.45-.32.8-.65,1.63-1.07,2.41-.52.96-1.28,1.49-2.13,1.49-.56,0-1.14-.24-1.68-.69-.18-.15-.53-.26-.81-.26-.09,0-.16.01-.22.03-2.92.95-5.88,1.99-8.73,3l-.1.03c-.32.11-.64.25-.95.39-.38.17-.76.34-1.17.47-.21.07-.91.28-1.34.28-.09,0-.35,0-.47-.2ZM235.69,290.28c-.07.28-.13.57-.19.85-.13.65-.27,1.32-.58,1.91-1.07,2.06-2.26,4.25-3.66,6.32-.38.56-1,.9-1.72,1.3-.34.19-.69.39-1.05.62l-.66.44.23-.76c.23-.76.46-1.49.68-2.2.68-2.22,1.28-4.14,1.86-6.09.11-.36.1-.69.03-.78-.44-.6-.58-1.05-.44-1.43.19-.52.85-.67,1.48-.81l.17-.04h.02s.1-.04.17-.04h.02s.01,0,.01,0c.96.1,1.93.19,2.89.29l.49.05.33.03-.09.32ZM257.38,300.13l-.2.71-.03.12v.04s-.03.04-.03.04c-.17.26-.31.49-.44.7-.27.43-.46.75-.7,1.05-.09.12-.42.5-.86.61-3.63.87-6.42,1.26-9.04,1.26-2.23,0-4.28-.29-6.27-.88-2.2-.66-3.73-2.77-3.65-5.02l.04-1c.09-2.43.18-4.93.2-7.4,0-.92.34-1.29,1.16-1.29.07,0,.16,0,.24,0,1.4.09,2.21.16,2.63.66.42.5.36,1.28.21,2.75-.2,1.97-.29,3.99-.38,5.94-.02.45-.04.89-.06,1.34-.03.68.29,1.02,1.13,1.21,1.69.39,3.19.57,4.59.57,1.03,0,2-.1,2.97-.3,2.58-.53,3.02-1.03,3.1-3.55.01-.34.03-.67.06-1.09.01-.22.03-.46.05-.75l.03-.58.44.39,1.93,1.71,2.8,2.48.13.12-.05.17ZM278.63,292.53c-.82.83-1.87,1.25-3.15,1.25-1.63,0-2.85-.65-3.68-1.95-.78-1.22-1.17-2.99-1.17-5.29,0-5.59,1.74-8.38,5.22-8.38,1.93,0,3.24.82,3.93,2.46l-2.41.9c-.21-.99-.74-1.49-1.57-1.49-1.74,0-2.65,1.78-2.73,5.34.69-1.18,1.72-1.78,3.08-1.78,1.27,0,2.26.49,2.98,1.48.64.87.96,2.01.96,3.41,0,1.72-.49,3.08-1.46,4.05ZM291.56,290.08h-1.88v3.42h-2.28v-3.42h-5.75v-1.75l4.9-10.02h3.13v9.9h1.88v1.86ZM298.04,278.89c-.37,1.01-.71,1.85-1.02,2.53v10.36l.04,3c0,.1-.02.17-.05.19-.02.02-.08.03-.17.03h-1.64c-.1,0-.16-.01-.18-.04-.02-.03-.03-.09-.03-.18l.04-3v-4.29c0-1.15,0-2.04.02-2.65-.28.41-.65.89-1.11,1.44-.17.17-.29.26-.34.26-.1,0-.17-.12-.23-.36-.17-.6-.39-1.15-.66-1.64,1.45-1.6,2.61-3.68,3.48-6.25.19-.55.3-1.02.33-1.4.77.18,1.37.36,1.82.53.23.08.34.18.34.3,0,.09-.07.21-.22.36-.13.11-.27.38-.42.81ZM310.51,294.65c0,.13-.07.19-.22.19h-1.53c-.14,0-.21-.06-.21-.19v-.81h-8.04v.93c0,.1-.02.17-.05.19-.02.02-.08.03-.17.03h-1.49c-.1,0-.16-.01-.18-.04-.02-.03-.03-.09-.03-.18l.04-6.66v-5.01l-.04-4.95c0-.11.01-.17.04-.19.03-.02.08-.03.17-.03l2.71.04h6.04l2.73-.04c.1,0,.17.01.19.04.02.03.03.09.03.18l-.04,4.52v5.41l.04,6.58ZM338.69,281.83c-.05.47-.11,1.15-.18,2.02-.26,3.39-.73,5.78-1.43,7.17-.75,1.47-1.83,2.62-3.24,3.44-1.42.82-3.03,1.22-4.85,1.22-2.01,0-3.61-.48-4.81-1.44-1.2-.96-1.8-2.22-1.8-3.8,0-.91.21-1.68.63-2.29.42-.61.94-.91,1.56-.91.42,0,.79.13,1.11.4.31.27.47.57.47.9,0,.48-.12.87-.35,1.17-.23.29-.53.44-.89.44-.05,0-.14-.02-.28-.04-.04-.01-.07-.01-.09-.01-.14.29-.24.55-.29.8-.06.25-.09.48-.09.71,0,1.14.44,2.06,1.31,2.76.88.7,2.03,1.05,3.45,1.05,1.1,0,2.08-.24,2.94-.72.86-.48,1.59-1.19,2.19-2.15.85-1.32,1.45-3.98,1.8-7.98.07-.81.12-1.43.16-1.87.13-1.24.35-2.31.66-3.22.31-.9.73-1.69,1.26-2.35.73-.92,1.57-1.63,2.52-2.12s1.94-.74,2.97-.74c1.19,0,2.16.29,2.92.86.76.57,1.14,1.29,1.14,2.17,0,.72-.27,1.32-.81,1.79-.54.48-1.22.72-2.04.72-.15,0-.26,0-.35,0-.08,0-.17-.02-.24-.04.34-.4.6-.82.78-1.25.18-.43.27-.87.27-1.31,0-.75-.23-1.37-.69-1.86-.46-.49-1.05-.74-1.76-.74-1.12,0-2,.58-2.63,1.73-.63,1.16-1.07,2.99-1.32,5.51ZM447.8,293.6c-1.88,1.35-3.86,2.02-5.96,2.02-1.33,0-2.36-.28-3.1-.83-.71-.53-1.06-1.27-1.09-2.19-.33.31-.65.61-.97.88-1.61,1.34-3.05,2.01-4.32,2.01-.69,0-1.22-.17-1.59-.5-.37-.33-.56-.81-.56-1.43,0-.4.11-.89.32-1.47.22-.58.53-1.22.94-1.94l.87-1.51c-.29.25-.59.47-.93.66-.75.41-1.51.62-2.29.62s-1.37-.2-1.8-.61c-.43-.41-.65-.97-.65-1.69,0-.29.03-.57.08-.83.05-.26.14-.51.26-.75-1.46.91-2.8,2.11-4.04,3.6-1.24,1.48-2.39,3.28-3.45,5.38l-2.96.18,3.79-6.57c-1.94,2.34-3.54,4.04-4.81,5.08-1.48,1.22-2.79,1.83-3.94,1.83-.54,0-.98-.18-1.31-.52s-.5-.8-.5-1.35c0-.12,0-.24.02-.36.02-.12.04-.25.07-.39-.8.83-1.58,1.45-2.34,1.88-.76.43-1.47.64-2.13.64-.76,0-1.35-.24-1.79-.72-.44-.48-.66-1.13-.66-1.97s.19-1.7.58-2.61c.17-.39.37-.76.59-1.12-.63.59-1.29,1.11-1.97,1.54-1.24.8-2.63,1.38-4.15,1.73-1.04.94-2.08,1.67-3.13,2.18-1.04.51-2.01.76-2.89.76-.33,0-.6-.08-.81-.24-.21-.16-.31-.37-.31-.63,0-.49.31-.88.93-1.17.62-.29,1.95-.58,4-.9.7-1.04,1.22-2.01,1.56-2.9.34-.89.52-1.7.52-2.44,0-.5-.1-.89-.3-1.18-.2-.28-.48-.43-.83-.43-.66,0-1.53.59-2.62,1.76-1.09,1.17-2.22,2.75-3.4,4.75l-7.21,12.23-2.76.09,8.87-14.8c-1.41,1.71-2.87,3.09-4.36,4.13-1.99,1.4-3.87,2.09-5.66,2.09-.99,0-1.82-.31-2.47-.94-.65-.62-.98-1.41-.98-2.37,0-.71.15-1.43.44-2.14-1.06,1.28-2.09,2.37-3.08,3.22-1.62,1.4-3,2.09-4.13,2.09-.61,0-1.08-.16-1.41-.49-.33-.32-.49-.79-.49-1.39,0-.49.21-1.2.64-2.13.25-.55.62-1.24,1.07-2.04-1.64,1.94-3.03,3.37-4.14,4.29-1.48,1.22-2.79,1.83-3.94,1.83-.54,0-.98-.18-1.31-.52-.33-.35-.5-.8-.5-1.35,0-.12,0-.24.02-.36.02-.12.04-.25.07-.39-.8.83-1.58,1.45-2.34,1.88-.76.43-1.47.64-2.13.64-.76,0-1.35-.24-1.79-.72-.44-.48-.66-1.13-.66-1.97s.19-1.7.58-2.61c.06-.15.15-.28.22-.43-1.25,1.49-2.55,2.74-3.91,3.71-1.97,1.41-3.81,2.12-5.51,2.12-1.14,0-2.03-.3-2.68-.9-.65-.6-.97-1.43-.97-2.49,0-.91.24-1.8.72-2.67.48-.86,1.18-1.69,2.1-2.46.91-.78,1.89-1.38,2.94-1.81,1.04-.43,2.04-.64,2.98-.64.84,0,1.48.17,1.94.51.46.34.69.81.69,1.42s-.25,1.16-.74,1.58c-.49.42-1.11.63-1.86.63-.1,0-.19,0-.27,0-.08,0-.17-.02-.26-.04.25-.64.42-1.16.53-1.56.11-.4.16-.73.16-1,0-.42-.08-.74-.25-.95-.17-.21-.42-.32-.75-.32-.41,0-.92.2-1.52.6-.6.4-1.17.94-1.71,1.62-.65.8-1.14,1.6-1.48,2.41-.34.81-.51,1.59-.51,2.34,0,.86.23,1.53.7,2.03.47.5,1.11.74,1.93.74,1.31,0,2.77-.62,4.38-1.85,1.26-.96,2.53-2.25,3.81-3.85.28-.44.59-.85.94-1.24.02-.02.04-.04.05-.06.03-.04.06-.08.09-.12h.02c.79-.83,1.7-1.52,2.73-2.04,1.1-.56,2.13-.83,3.08-.83.64,0,1.17.16,1.59.48.42.32.69.77.8,1.36l.66-1.3,3.02-.18c-2.08,3.17-3.46,5.36-4.11,6.58-.66,1.22-.99,2.09-.99,2.63,0,.24.07.43.21.59.14.16.31.24.52.24.69,0,1.8-.7,3.35-2.11,1.3-1.18,2.68-2.71,4.14-4.54.14-.24.28-.47.43-.73l7.49-12.48,3.23-.24c-.52.81-1.28,2.01-2.27,3.6l-.55.87-6.55,10.6c-.64,1.02-1.12,1.87-1.43,2.55s-.47,1.19-.47,1.52c0,.27.07.46.21.59.14.13.34.19.6.19.69,0,1.79-.69,3.3-2.07,1.04-.95,2.1-2.11,3.19-3.45.54-.97,1.3-1.85,2.27-2.64.82-.65,1.7-1.16,2.65-1.54.95-.38,1.84-.57,2.67-.57s1.43.16,1.9.49c.47.32.7.76.7,1.3,0,.89-.65,1.7-1.96,2.43-1.31.72-3.39,1.41-6.25,2.07-.01.06-.02.14-.03.25-.04.26-.06.45-.06.59,0,.91.23,1.63.7,2.14.47.51,1.12.77,1.95.77,1.24,0,2.69-.63,4.35-1.89,1.51-1.14,3.02-2.71,4.53-4.65l5.33-8.89,2.88-.19-3.81,6.02c-.42.66-.86,1.32-1.31,1.98s-.91,1.32-1.39,1.97l.19.09c1.17-1.61,2.21-2.77,3.13-3.47.92-.7,1.84-1.05,2.75-1.05.7,0,1.27.26,1.7.77.44.51.66,1.18.66,2.01,0,.75-.19,1.51-.57,2.29s-.95,1.59-1.7,2.43c1.36-.33,2.64-.89,3.84-1.68,1.04-.68,2.03-1.55,2.96-2.59.02-.03.04-.05.06-.08.04-.05.09-.08.13-.13.08-.09.16-.18.24-.27h.01c.74-.73,1.57-1.35,2.51-1.82,1.1-.56,2.13-.83,3.08-.83.64,0,1.17.16,1.59.48.42.32.69.77.8,1.36l.66-1.3,3.02-.18c-2.08,3.17-3.46,5.36-4.12,6.58-.66,1.22-.99,2.09-.99,2.63,0,.24.07.43.21.59.14.16.31.24.52.24.69,0,1.8-.7,3.35-2.11,1.52-1.38,3.15-3.22,4.9-5.5l1.29-2.25,3.39-.21c-.72,1.06-1.41,2.05-2.07,2.97-.66.92-1.26,1.71-1.79,2.37l.15.15c.75-.95,1.54-1.83,2.39-2.62.85-.79,1.76-1.52,2.74-2.18.2-.31.43-.54.69-.66.26-.13.66-.21,1.19-.25l1.59-.12c-.5.76-.86,1.4-1.08,1.93-.22.53-.33,1-.33,1.42s.1.73.29.97c.2.25.44.37.74.37.52,0,1.02-.15,1.5-.44.31-.19.61-.45.92-.76l1.71-2.97h-2.24l.22-.34h2.26l2.01-3.32,3.01-.18-2.14,3.5h3.63l-.25.34h-3.64l-3.36,5.65c-.42.73-.75,1.39-1,2-.24.6-.36,1.07-.36,1.41,0,.28.07.48.2.62.13.14.33.21.58.21.89,0,2.11-.69,3.65-2.06.24-.21.48-.46.72-.69.04-.6.24-1.11.6-1.53.4-.45.88-.68,1.45-.7.65-.77,1.3-1.6,1.97-2.53.07-.78.45-1.46,1.2-2.02.82-.62,1.81-.93,2.98-.93.95,0,1.73.21,2.32.63.59.42.89.97.89,1.64,0,.52-.2.97-.59,1.36-.39.38-.87.58-1.43.58-.1,0-.21-.02-.35-.06-.13-.04-.29-.1-.47-.19.24-.36.42-.71.54-1.05s.18-.66.18-.97c0-.48-.14-.88-.43-1.19-.29-.31-.64-.47-1.06-.47s-.8.18-1.11.55c-.31.37-.46.82-.46,1.36,0,.34.07.69.2,1.03.13.34.39.78.76,1.31.05.07.12.16.21.28.8,1.11,1.19,2.02,1.19,2.71s-.23,1.28-.69,1.82c-.46.55-1.06.92-1.78,1.11v.18c1.57-.27,3.13-1.06,4.68-2.35,1.55-1.29,3.08-3.1,4.61-5.44l.16.09c-1.74,2.74-3.55,4.79-5.43,6.14Z"/>
    <path class="cls-1" d="M391.85,294.44c0,.2.05.35.14.45.09.1.24.15.44.15.33,0,.79-.23,1.37-.68.58-.45,1.19-1.06,1.83-1.83-1.24.15-2.18.38-2.82.71-.64.32-.96.72-.96,1.19Z"/>
    <path class="cls-1" d="M361.8,285.28c-.23-.26-.55-.38-.95-.38-.56,0-1.15.22-1.77.65-.62.43-1.24,1.06-1.86,1.89-.64.85-1.14,1.75-1.5,2.67-.36.92-.55,1.76-.55,2.49,0,.58.12,1.03.36,1.36.24.32.58.49,1.02.49.49,0,1.02-.22,1.59-.66.57-.44,1.17-1.08,1.78-1.94.71-.98,1.25-1.95,1.64-2.9.38-.95.58-1.81.58-2.57,0-.47-.12-.84-.35-1.09Z"/>
  </g>
  <path class="cls-1" d="M493.64,119.87c-.09-.31-.59-.64-.95-.71-.49-.09-1.03.05-1.56.09-.39-.82-.73-1.54-1.13-2.39-1.52.33-2.92.63-4.26.92q-1.31-2.2-3.82-1.67c-2.39.51-4.79.95-7.15,1.57-1.77.46-3.16.43-3.58-2-5.06,1.09-9.94,2.14-14.77,3.19-.43-.95-.73-1.62-1.1-2.46-2.76.6-5.42,1.26-8.11,1.69-.65.1-1.51-.43-2.1-.88-1.23-.95-3.1-1.11-3.68-2.88-2.86.62-2.45-1.7-2.87-3.23-.33-1.23-.55-2.49-.86-3.9-2.62.77-3.04-.8-3.33-2.62-.23-1.43-.67-2.82-.88-4.25-.26-1.79-.66-3.31-3.1-2.76-.34-1.58-.74-2.97-.93-4.4-.02-.17-.05-.32-.08-.48-2.86,3.33-7.04,5.57-11.39,5.57-.08,0-.16-.01-.24-.01.1.47.2.94.31,1.41.43,1.87,1.24,3.86-1.82,4.32.56,2.59,1.05,4.98,1.59,7.35.3,1.31.68,2.53-1.18,3.09-.32.1-.56,1.13-.51,1.7.15,1.54,1.32,3.31-1.23,4.04-.15.04-.1.69-.2,1.04-.14.47-.25.99-.53,1.38-.65.89-1.39,1.72-2.09,2.57.02.5-.33.62-.7.72-1.54.44-3.74.08-3.31,2.89.04.23-.99.79-1.59.93-2.74.66-5.49,1.32-8.27,1.78-1.78.29-2.84.88-2.26,3-.91.26-1.7.53-2.51.71-2.68.6-5.38,1.12-8.04,1.79-.6.15-1.55.88-1.51,1.24.19,1.59-.81,1.74-1.89,1.96-.13.03-.25.05-.38.08-1.75,1.64-3.63,3.16-5.71,4.45-.47.29-.95.56-1.43.82,2.49.38,4.94.97,7.28,1.82,3.92-.04,7.78,1.01,10.97,3.33,1.06-.23,2.12-.45,3.17-.68,1.81-.38,3.9-1.44,4.17,1.89,5.11-1.1,9.93-2.14,14.89-3.21.36,1.54.96,2.47,2.7,1.92,1.46-.46,3.2-1.14,3.84,1.27.05.17.52.39.75.34,1.93-.4,1.85,1.08,2.1,2.21.29,1.28.37,2.63,2.35,2.35.34-.05,1.04.94,1.21,1.55.52,1.88.86,3.81,1.31,5.89,2.61-.96,2.97.58,3.26,2.3.26,1.5.62,2.99.95,4.47.29,1.3.26,2.86,2.38,2.57.28-.04.84.79,1,1.3.4,1.31.57,2.69.97,4,.18.59.56,1.25,1.05,1.59.9.64,1.95,1.07,2.93,1.59l-.21.53c1.31-.28,2.62-.57,4.01-.86-.01-.77-.02-1.44-.04-2.32,2.65-.24,2.17-1.95,1.71-3.69-.27-1.03-.52-2.08-.65-3.13-.06-.46.09-1.29.34-1.37,1.96-.66,1.37-2.03,1.08-3.36-.32-1.49-.59-3-.98-4.47-.45-1.7-.69-3.22,2.09-3.45-.76-3.53-1.45-6.71-1.92-8.9,2.41-3.89,4.35-7.04,6.66-10.77,2.77-.6,6.27-1.31,9.74-2.14.6-.14,1.58-.84,1.54-1.18-.22-1.91,1.03-2.09,2.35-2.37,3.34-.69,6.66-1.43,10.14-2.18-.74-2.36.49-2.88,2.2-3.19,2.7-.49,5.38-1.1,8.05-1.75.59-.14,1.25-.54,1.59-1.02.63-.87,1.05-1.88,1.56-2.84.28.14.57.29.85.43-.63-1.62-.44-2.74,1.32-3.06.22-.04.51-.77.42-1.09ZM464.76,130.27c-1.84.31-3.36.69-2.43,3.31-4.14.89-8.13,1.75-12.3,2.65.67,2.3-.38,3.18-2.3,3.28-1.73.09-2.4,1.03-2.16,2.7-.7.29-1.32.54-1.81.74-.92,2,2.51,4.94-1.89,5.98.57,2.64,1.11,5.23,1.69,7.81.25,1.09.42,1.95-.91,2.65-.49.26-.47,1.65-.51,2.53-.05,1.04.9,2.55-.86,2.77-1.53.19-3.39,2.16-4.75-.54-.28-.57-1.41-.71-2.76-1.32-.42-1.94-1-4.52-1.52-7.1-.23-1.11-.4-2.02-1.95-1.93-.49.03-1.31-.88-1.5-1.5-.55-1.81-.85-3.7-1.28-5.65-.86-.03-1.59-.05-2.42-.08-.47-1.84-1.68-1.96-3.31-1.47-1.53.46-3.14.63-4.68,1.06-1.75.49-3.19.55-3.41-2.05-3.43.74-6.71,1.38-9.94,2.17-1.76.43-3.2.57-3.51-1.94-1.59.27-3.06.51-4.53.76.06-.2.11-.4.17-.59-.93-.41-1.91-.74-2.77-1.26-.51-.31-1.07-.88-1.15-1.41-.08-.51.3-1.26.72-1.62.42-.36,1.13-.43,1.73-.51,1.62-.21,2.62-.85,1.96-2.89,4.1-.88,8.1-1.75,12.27-2.65-.76-2.76.87-3.19,2.86-3.5,2.24-.35,4.45-.93,5.89-1.24,1.64-2.63,2.91-4.66,4.72-7.56-.26-1.23-.77-3.57-1.29-5.99.93-.41,1.59-.7,2.58-1.14-.55-2.54-.99-5.15-1.7-7.69-.52-1.89.11-2.51,1.92-2.89,5.6-1.16,5.66-1.24,6.92,4.31.38,1.68,1.2,2.11,2.95,1.72.53,2.45,1.03,4.8,1.58,7.32,2.59-.83,3.13.62,3.34,2.49.13,1.1.35,2.16,1.92,1.91.31-.05.91.16.98.38.74,2.4,2.42,1.43,3.88,1.13,3.14-.65,6.29-1.24,9.38-2.06,1.81-.48,2.98-.25,3.34,1.99,3.19-.69,6.29-1.36,9.39-2.03.02.27.03.54.05.8.93.45,1.88.85,2.78,1.36.41.23.92.59,1.04.99.38,1.29.61,2.63.95,4.24-2.63.57-4.98,1.16-7.35,1.56Z"/>
  <path class="cls-1" d="M136.43,212.23c-2.43-2.46-5.32-4.2-8.68-5.23-3.36-1.02-6.92-1.54-10.7-1.54-8.38,0-14.6.74-18.66,2.21-4.06,1.47-6.09,3.42-6.09,5.85,0,3.07,1.23,5.87,3.69,8.4,2.46,2.53,5.58,3.92,9.35,4.17l4.12.29c-2.43,1.73-4.45,2.59-6.04,2.59-1.79,0-3.58-.11-5.37-.34-1.79-.22-3.66-.62-5.61-1.2-1.95-.58-3.55-1.5-4.8-2.78-1.25-1.28-1.87-2.78-1.87-4.51,0-.32-.05-1.07-.14-2.26-.1-1.18-.14-2.16-.14-2.93,0-2.24.42-4.35,1.25-6.33,1.6-3.65,4.25-7.02,7.96-10.12,3.71-3.1,7.1-4.65,10.17-4.65,1.79,0,3.66.53,5.61,1.58,1.95,1.05,3.15,2.19,3.6,3.41.51,1.22,1.65,1.97,3.41,2.26,1.76.29,4.78.43,9.07.43,1.66,0,4.51-1.31,8.54-3.93,1.73-1.21,2.99-2.29,3.79-3.21.8-.93,1.2-2.09,1.2-3.5,0-2.3-1.18-4.65-3.55-7.05-2.37-2.4-4.88-4.32-7.53-5.76-2.65-1.44-5.1-2.51-7.34-3.21-5.56-1.66-10.68-2.49-15.35-2.49-8.63,0-16.57,2.03-23.79,6.09-7.23,4.06-12.89,9.44-16.98,16.12-4.09,6.68-6.14,13.83-6.14,21.44,0,7.04,1.84,13.18,5.52,18.42,3.68,5.25,8.44,9.13,14.29,11.66,5.85,2.53,12.3,3.79,19.33,3.79,2.37,0,7.23-.99,14.58-2.97.7-.19,1.81-.43,3.31-.72,1.5-.29,2.89-.62,4.17-1.01,1.28-.38,2.53-.86,3.74-1.44,2.39-1.14,4.6-2.82,6.63-5,0-.02.01-.04.02-.06.27-.68.63-1.51,1.05-2.45.19-.42.36-.8.51-1.16s.29-.68.4-.96c.03-.12.07-.25.12-.39.13-.44.31-1.01.54-1.71.34-1.04.67-2.01,1-2.89.37-.98.81-1.95,1.31-2.9.01-.03.03-.06.06-.11,0,0,0-.02.01-.02.02-.03.04-.07.06-.12.01-.02.02-.04.03-.07.02-.05.05-.1.08-.16,0-.02.02-.03.03-.05.04-.08.08-.16.13-.26,0,0,0-.01,0-.02.05-.11.11-.23.18-.36,0-.02.02-.04.03-.06.05-.11.11-.23.17-.36.02-.05.05-.1.08-.16.06-.12.12-.25.19-.38.02-.04.04-.08.06-.12.08-.17.17-.36.27-.55,0-.02.02-.04.03-.06.21-.44.45-.94.73-1.51.05-.1.1-.21.15-.32.1-.2.19-.4.3-.62.06-.12.11-.24.17-.36.11-.22.22-.45.33-.69.05-.1.09-.2.14-.3.12-.24.24-.5.36-.76.08-.18.17-.35.25-.53-.5-2.26-1.6-4.28-3.34-6.04Z"/>
  <path class="cls-1" d="M441.69,247.54c3.45-1.18,7.18-2.64,11.18-4.36,4-1.73,7.39-3.69,10.17-5.9,2.78-2.21,4.17-4.3,4.17-6.28s-1.2-3.95-3.6-5.71c-2.4-1.76-5.74-2.64-10.03-2.64-4.8,0-10.39,1.18-16.79,3.55-6.4,2.37-11.03,3.68-13.91,3.93,0-.45.14-1.12.43-2.01.29-.89.59-1.66.91-2.3.32-.64.51-.96.58-.96l3.36-.48c6.39-.9,11.08-1.93,14.06-3.12,2.97-1.18,7.02-3.63,12.14-7.34,1.66-1.21,2.88-2.27,3.65-3.17.77-.89,1.15-1.92,1.15-3.07,0-3.9-4.22-5.85-12.66-5.85-3.07,0-7.26.54-12.57,1.63l2.01-3.55c1.15,0,2.83-.05,5.04-.14,2.21-.1,3.85-.14,4.94-.14,1.79,0,3.97-.22,6.52-.67,2.56-.45,5.2-1.09,7.92-1.92,2.72-.83,5.02-2.01,6.91-3.55,1.89-1.53,2.83-3.2,2.83-4.99,0-2.94-2.22-5.42-6.67-7.43-4.45-2.02-10.03-3.02-16.74-3.02-7.61,0-14.23-.18-19.86-.53-5.63-.35-8.54-.53-8.73-.53-3.77,0-7.12.74-10.03,2.21-2.91,1.47-4.36,3.68-4.36,6.62,0,1.15.32,2.27.96,3.36.64,1.09,1.33,1.97,2.06,2.64.73.67,1.84,1.55,3.31,2.64-1.92,2.69-3.13,4.51-3.65,5.47-3.77,0-6.54.77-8.3,2.3-1.76,1.53-2.64,4.12-2.64,7.77,0,1.6.96,3.55,2.88,5.85-.38.83-.69,2.06-.91,3.69-.16,1.15-.29,1.98-.4,2.51.04-.33.07-.64.07-.92,0-3.45-1.22-6.41-3.65-8.87-2.43-2.46-5.32-4.2-8.68-5.23-3.36-1.02-6.92-1.54-10.7-1.54-8.38,0-14.6.74-18.66,2.21-4.06,1.47-6.09,3.42-6.09,5.85,0,3.07,1.23,5.87,3.69,8.4,2.46,2.53,5.58,3.92,9.35,4.17l4.12.29c-2.43,1.73-4.45,2.59-6.04,2.59-1.79,0-3.58-.11-5.37-.34-1.79-.22-3.66-.62-5.61-1.2-1.95-.58-3.55-1.5-4.8-2.78-1.25-1.28-1.87-2.78-1.87-4.51,0-.32-.05-1.07-.14-2.26-.1-1.18-.14-2.16-.14-2.93,0-2.24.42-4.35,1.25-6.33,1.6-3.65,4.25-7.02,7.96-10.12,3.71-3.1,7.1-4.65,10.17-4.65,1.79,0,3.66.53,5.61,1.58,1.95,1.05,3.15,2.19,3.6,3.41.51,1.22,1.65,1.97,3.41,2.26,1.76.29,4.78.43,9.07.43,1.66,0,4.51-1.31,8.54-3.93,1.73-1.21,2.99-2.29,3.79-3.21.8-.93,1.2-2.09,1.2-3.5,0-2.3-1.18-4.65-3.55-7.05-2.37-2.4-4.88-4.32-7.53-5.76-2.65-1.44-5.1-2.51-7.34-3.21-5.56-1.66-10.68-2.49-15.35-2.49-8.63,0-16.57,2.03-23.79,6.09-7.23,4.06-12.89,9.44-16.98,16.12-3.41,5.56-5.37,11.45-5.95,17.66-.03-2.06-.06-3.81-.1-5.23-.06-2.37-.22-5.15-.48-8.35-.26-3.2-.64-5.82-1.15-7.87-.58-2.43-1.02-4.24-1.34-5.42-.32-1.18-.88-2.67-1.68-4.46-.8-1.79-1.65-3.1-2.54-3.93-.9-.83-2.1-1.58-3.6-2.25-1.5-.67-3.28-1.01-5.32-1.01-1.6,0-3.1.21-4.51.62-1.41.42-2.64.86-3.69,1.34-1.06.48-2.14,1.26-3.26,2.35-1.12,1.09-1.98,1.98-2.59,2.69-.61.7-1.38,1.84-2.3,3.41-.93,1.57-1.57,2.69-1.92,3.36-.35.67-.98,1.9-1.87,3.69-.9,1.79-1.44,2.91-1.63,3.36-.83,1.73-2.48,4.91-4.94,9.55-2.46,4.64-4.3,8.27-5.52,10.89-3.65,7.68-5.66,11.87-6.04,12.57-.45.83-.83,1.68-1.15,2.54-.32.86-.64,1.79-.96,2.78-.32.99-.54,1.71-.67,2.16-.25.64-.59,1.43-1.01,2.35-.42.93-.75,1.71-1.01,2.35-.25.64-.38,1.22-.38,1.73,0,.85.27,1.83.78,2.92-1.84-1-3.83-2.35-6.01-4.12-5.02-4.06-9.32-8.23-12.9-12.52.83-.58,3.17-2.14,7-4.7,3.84-2.56,6.75-4.78,8.73-6.67,1.98-1.89,3.52-4.01,4.61-6.38.38-.83,1.01-2.09,1.87-3.79.86-1.69,1.54-3.05,2.01-4.08.48-1.02.93-2.32,1.34-3.89.42-1.57.62-3.12.62-4.65,0-7.42-4.06-13.49-12.18-18.23-8.12-4.73-18.45-7.1-30.99-7.1-3.33,0-6.81.61-10.46,1.82-3.65,1.22-6.73,2.91-9.26,5.08-2.53,2.18-3.79,4.41-3.79,6.72,0,.96-.38,2.3-1.15,4.03-.77,1.73-1.15,3.1-1.15,4.12,0,8.51,3.93,12.86,11.8,13.05-.64,1.53-2.13,4.43-4.46,8.68-2.34,4.25-3.73,7.53-4.17,9.83-.32,1.73-1.1,3.55-2.35,5.47-1.25,1.92-1.9,2.97-1.97,3.17-.05.16-.37.82-.93,1.91-.07-.77-.21-1.73-.42-2.92-.32-1.82-.51-3.25-.58-4.27,0-1.34-.02-4.08-.05-8.2-.03-4.12-.08-7.37-.14-9.74-.06-2.37-.22-5.15-.48-8.35-.26-3.2-.64-5.82-1.15-7.87-.58-2.43-1.02-4.24-1.34-5.42-.32-1.18-.88-2.67-1.68-4.46-.8-1.79-1.65-3.1-2.54-3.93-.9-.83-2.1-1.58-3.6-2.25-1.5-.67-3.28-1.01-5.32-1.01-1.6,0-3.1.21-4.51.62-1.41.42-2.64.86-3.69,1.34-1.06.48-2.14,1.26-3.26,2.35-1.12,1.09-1.98,1.98-2.59,2.69-.61.7-1.38,1.84-2.3,3.41-.93,1.57-1.57,2.69-1.92,3.36-.35.67-.98,1.9-1.87,3.69-.9,1.79-1.44,2.91-1.63,3.36-.83,1.73-2.48,4.91-4.94,9.55-2.46,4.64-4.3,8.27-5.52,10.89-3.65,7.68-5.66,11.87-6.04,12.57-.45.83-.83,1.68-1.15,2.54-.32.86-.64,1.79-.96,2.78-.32.99-.54,1.71-.67,2.16-.25.64-.59,1.43-1.01,2.35-.42.93-.75,1.71-1.01,2.35-.25.64-.38,1.22-.38,1.73,0,2.11,1.58,4.96,4.75,8.54,3.17,3.58,5.87,5.37,8.11,5.37,7.74,0,14.07-6.56,19-19.67l1.92.29c2.49,4.8,6.97,7.2,13.43,7.2,4.16,0,7.47-.93,9.93-2.78.35-.26.67-.54.97-.83-.1.69-.16,1.38-.16,2.08,0,2.56,1.39,4.97,4.17,7.24,2.78,2.27,5.93,3.41,9.45,3.41,5.69,0,10.27-3.49,13.72-10.46,7.16,8.63,13.38,14.52,18.66,17.65,5.28,3.13,12.42,5.21,21.44,6.24.19,0,1.02.18,2.49.53,1.47.35,2.37.53,2.69.53,4.16,0,8.09-1.09,11.8-3.26,3.71-2.17,5.56-4.8,5.56-7.87,0-1.61-.58-3.04-1.73-4.29,3.56-3.25,6.69-8.46,9.4-15.66l1.92.29c2.49,4.8,6.97,7.2,13.43,7.2,4.16,0,7.47-.93,9.93-2.78,2.46-1.85,3.69-4.25,3.69-7.2,0-.83-.16-2.16-.48-3.98-.32-1.82-.51-3.25-.58-4.27,0-.9,0-2.43-.02-4.57.62,5.24,2.35,9.94,5.25,14.07,3.68,5.25,8.44,9.13,14.29,11.66,5.85,2.53,12.3,3.79,19.33,3.79,2.37,0,7.23-.99,14.58-2.97.7-.19,1.81-.43,3.31-.72,1.5-.29,2.89-.62,4.17-1.01,1.28-.38,2.53-.86,3.74-1.44,4.41-2.11,8.22-5.98,11.42-11.61,1.11-1.95,2-3.69,2.68-5.22-.32,1.07-.48,1.92-.48,2.54,0,2.11.13,3.81.38,5.08.26,1.28.93,2.62,2.01,4.03,1.09,1.41,2.22,2.61,3.41,3.6,1.18.99,3.21,2.61,6.09,4.84,3.71,2.88,8.76,4.32,15.16,4.32.7,0,1.77-.21,3.21-.62,1.44-.42,2.54-.62,3.31-.62.25,0,.73.03,1.44.1.7.06,1.18.1,1.44.1.38,0,.96-.06,1.73-.19,2.24-.51,5.08-1.36,8.54-2.54ZM172,221.85l-8.88-1.58,8.88-20.52v22.09ZM231.31,207.58c.06-.19.51-1.33,1.34-3.41.83-2.08,1.25-3.5,1.25-4.27,0-1.79-.96-3.77-2.88-5.95-1.92-2.17-4.77-3.26-8.54-3.26-1.22,0-2.3.16-3.26.48.83-2.17,2.59-3.26,5.28-3.26,3.07,0,6.57.66,10.5,1.97,3.93,1.31,5.9,2.93,5.9,4.84,0,1.6-1.06,3.9-3.17,6.91-2.11,3.01-4.25,4.99-6.43,5.95ZM296.87,220.49l-9.05-1.61,9.05-20.92v22.53Z"/>
</svg>