<?xml version="1.0" encoding="UTF-8"?>
<svg id="Layer_1" xmlns="http://www.w3.org/2000/svg" version="1.1" viewBox="0 0 317.03 112.25">
  <!-- Generator: Adobe Illustrator 30.2.1, SVG Export Plug-In . SVG Version: 2.1.1 Build 1)  -->
  <defs>
    <style>
      .st0 {
        fill: #fff;
      }

      .st1 {
        fill: #c65ea4;
      }
    </style>
  </defs>
  <g>
    <g>
      <g>
        <path class="st0" d="M111.76,6.35v9.83c0,1.1-.35,1.65-1.06,1.65-.31,0-.65-.16-1.02-.49s-.75-.69-1.13-1.09c-.39-.4-1.03-.76-1.94-1.09s-1.98-.49-3.21-.49h-15.99c-1.05,0-1.89.35-2.52,1.05s-.95,1.47-.95,2.32v2.55c0,.44.2.66.6.66.18,0,.81-.25,1.87-.76,1.06-.51,2.23-.76,3.49-.76,1.6,0,3.77.56,6.49,1.69,2.73,1.12,4.64,1.69,5.75,1.69.83,0,1.56-.27,2.2-.8.63-.53,1.02-.8,1.18-.8.77,0,1.16.78,1.16,2.34,0,.74-.15,1.49-.46,2.26s-.76,1.51-1.34,2.22c-.59.71-1.41,1.29-2.47,1.75-1.06.45-2.27.68-3.63.68-1.26,0-2.49-.25-3.67-.76-1.19-.51-2.21-1.12-3.07-1.85s-1.69-1.46-2.47-2.2-1.57-1.36-2.36-1.87-1.53-.76-2.24-.76c-.25,0-.48.08-.69.25-.22.16-.32.42-.32.78,0,1.48.22,2.84.67,4.07s1.03,2.28,1.76,3.12c.72.85,1.52,1.65,2.4,2.39.88.74,1.76,1.44,2.63,2.1.88.66,1.68,1.32,2.4,1.99.73.67,1.31,1.46,1.76,2.36.45.9.67,1.89.67,2.96,0,.99-.29,1.93-.88,2.82s-1.39,1.34-2.4,1.34h-13.17c1.08-.96,1.62-2.58,1.62-4.85V11.2c0-1.23-.14-2.22-.42-2.96s-.79-1.37-1.53-1.89h32.31-.02Z"/>
        <path class="st0" d="M115.11,17.88c.1-.03.49-.22,1.17-.56s1.29-.64,1.83-.9,1.24-.59,2.1-1,1.65-.76,2.37-1.07c.72-.31,1.46-.6,2.22-.88s1.46-.5,2.08-.66,1.12-.24,1.51-.24c.46,0,.8.11,1.03.32s.36.42.39.64c.03.21.05.53.05.95v27.25c0,2.7.57,4.62,1.71,5.76h-16.36c1.14-1.14,1.71-3.06,1.71-5.76v-19.51c0-.11,0-.28-.03-.51-.02-.23-.04-.42-.07-.59-.03-.16-.09-.36-.17-.59s-.18-.42-.29-.56c-.11-.15-.26-.29-.44-.44s-.38-.25-.61-.32c-.49-.16-.73-.39-.73-.68,0-.23.18-.44.54-.64h-.01Z"/>
        <path class="st0" d="M135.99,11.7c1.68-1.06,3.2-2.23,4.57-3.52,1.37-1.29,2.69-2.46,3.96-3.52s2.12-1.59,2.54-1.59c.62,0,.93.39.93,1.17v9.04h4.2v2.44h-4.2v22.05c0,.21,0,.59.02,1.12.02.54.03.92.05,1.15.02.23.06.56.12,1s.14.78.22,1.03l.29.88c.11.34.24.62.39.83.15.21.33.43.54.66s.45.42.71.59c.07.03.49.13,1.27.29-.13.85-.74,1.54-1.83,2.08s-2.26.81-3.49.81c-1.82,0-3.39-.27-4.71-.81s-2.35-1.22-3.1-2.05c-.75-.83-1.35-1.88-1.81-3.15-.46-1.27-.75-2.49-.88-3.66s-.19-2.51-.19-4v-15.68c0-.52,0-.9-.03-1.15-.02-.24-.09-.55-.22-.93-.13-.37-.36-.64-.68-.81s-.77-.24-1.32-.24h-1.51v-2.44c1.11,0,2.5-.53,4.18-1.59h-.02,0Z"/>
        <path class="st0" d="M153.65,47.47c1.14-1.14,1.71-3.06,1.71-5.76v-22.66c0-2.7-.57-4.62-1.71-5.76h11.97c1.01,0,1.71.34,2.1,1.03.39.68.59,1.69.59,3.03v.83c0,.78.11,1.17.34,1.17.36,0,.73-.24,1.12-.71s.85-1.04,1.37-1.71c.52-.67,1.12-1.33,1.81-1.98.68-.65,1.64-1.21,2.86-1.68s2.6-.71,4.13-.71c4.1,0,6.69,2.08,7.77,6.25.19.36.5.54.93.54.36,0,.73-.24,1.12-.71s.85-1.04,1.37-1.71c.52-.67,1.12-1.33,1.81-1.98.68-.65,1.64-1.21,2.86-1.68s2.6-.71,4.13-.71c5.57,0,8.35,3.83,8.35,11.48l.05,9.33v8.35c0,2.7.57,4.62,1.71,5.76h-16.36c1.14-1.14,1.71-3.06,1.71-5.76v-15.87c0-2.9-.93-4.35-2.78-4.35-2.67,0-4.1,2.02-4.3,6.06l.05,5.81v8.35c0,2.7.57,4.62,1.71,5.76h-16.36c1.14-1.14,1.71-3.06,1.71-5.76v-15.87c0-2.9-.93-4.35-2.78-4.35-2.87,0-4.3,2.31-4.3,6.94v13.28c0,2.7.57,4.62,1.71,5.76h-16.4Z"/>
        <path class="st0" d="M216.11,17.78c3.08-3.48,7.38-5.23,12.92-5.23,4.17,0,7.48,1.29,9.94,3.86,2.46,2.57,3.69,5.63,3.69,9.18,0,1.11-.19,2.07-.56,2.88-.37.82-.97,1.45-1.78,1.91s-1.64.81-2.49,1.07-1.94.41-3.27.46-2.51.07-3.52.05c-1.01-.02-2.3-.05-3.88-.1-1.58-.05-2.82-.07-3.74-.07-.75,0-1.12.26-1.12.78,0,.58.72,1.42,2.15,2.49,1.43,1.07,3.24,2.06,5.42,2.96,2.18.89,4.15,1.34,5.91,1.34,1.37,0,2.5-.21,3.39-.64s1.56-.85,2-1.27.76-.64.95-.64c.52,0,.78.34.78,1.03,0,.98-.28,2.04-.83,3.2s-1.35,2.28-2.39,3.37-2.47,1.99-4.27,2.71c-1.81.72-3.82,1.07-6.03,1.07-4.79,0-8.96-1.64-12.53-4.91-3.57-3.27-5.35-7.27-5.35-11.99,0-5.54,1.54-10.04,4.61-13.53v.02h0ZM218.35,27.35c.93,1.4,2.32,2.1,4.18,2.1,1.34,0,2.52-.04,3.54-.12,1.03-.08,2.07-.24,3.13-.46,1.06-.23,1.88-.6,2.47-1.12s.88-1.17.88-1.95c0-2.35-1.07-4.25-3.22-5.71-2.15-1.47-4.4-2.2-6.74-2.2-1.47,0-2.77.42-3.91,1.25s-1.71,1.91-1.71,3.25c0,1.92.46,3.58,1.39,4.98v-.02h0Z"/>
        <path class="st0" d="M244.37,47.47c1.14-1.14,1.71-3.06,1.71-5.76v-22.66c0-2.7-.57-4.62-1.71-5.76h11.97c1.01,0,1.71.34,2.1,1.03.39.68.59,1.69.59,3.03v.83c0,.78.11,1.17.34,1.17.36,0,.73-.24,1.12-.71s.85-1.04,1.37-1.71c.52-.67,1.12-1.33,1.81-1.98.68-.65,1.64-1.21,2.86-1.68s2.6-.71,4.13-.71c5.57,0,8.35,3.83,8.35,11.48l.05,9.33v8.35c0,2.7.57,4.62,1.71,5.76h-16.36c1.14-1.14,1.71-3.06,1.71-5.76v-15.87c0-2.9-.93-4.35-2.78-4.35-2.87,0-4.3,2.31-4.3,6.94v13.28c0,2.7.57,4.62,1.71,5.76h-16.38,0Z"/>
        <path class="st0" d="M285.18,11.7c1.68-1.06,3.2-2.23,4.57-3.52,1.37-1.29,2.69-2.46,3.96-3.52s2.12-1.59,2.54-1.59c.62,0,.93.39.93,1.17v9.04h4.2v2.44h-4.2v22.05c0,.21,0,.59.02,1.12.02.54.03.92.05,1.15.02.23.06.56.12,1s.14.78.22,1.03l.29.88c.11.34.24.62.39.83.15.21.33.43.54.66s.45.42.71.59c.07.03.49.13,1.27.29-.13.85-.74,1.54-1.83,2.08-1.09.54-2.26.81-3.49.81-1.82,0-3.39-.27-4.71-.81-1.32-.54-2.35-1.22-3.1-2.05-.75-.83-1.35-1.88-1.81-3.15s-.75-2.49-.88-3.66-.19-2.51-.19-4v-15.68c0-.52,0-.9-.03-1.15-.02-.24-.09-.55-.22-.93-.13-.37-.36-.64-.68-.81s-.77-.24-1.32-.24h-1.51v-2.44c1.11,0,2.5-.53,4.18-1.59,0,0-.02,0-.02,0Z"/>
      </g>
      <g>
        <path class="st0" d="M106.47,52.23c-.33,1.15-.79,2.69-1.38,4.63-.59,1.94-1.18,3.79-1.77,5.56-.59-1.77-1.18-3.63-1.77-5.56-.59-1.94-1.05-3.48-1.38-4.63-.22-.77-.48-1.58-.73-2.39h-19.51v36.17c0,2.72-.58,4.66-1.72,5.81h10.29c1.58,0,2.88-.37,3.92-1.11,1.03-.74,1.55-1.81,1.55-3.23,0-1.28-.39-2.71-1.16-4.28-.77-1.58-1.71-3.22-2.81-4.92-1.1-1.71-2.19-3.54-3.27-5.49-1.08-1.95-2.01-4.28-2.78-6.99s-1.16-5.52-1.16-8.45c0-3.58.61-5.37,1.82-5.37.26,0,.55.16.86.49s.65.82,1.01,1.48.71,1.34,1.06,2.04c.34.71.71,1.58,1.11,2.61.39,1.03.74,1.95,1.03,2.76.3.8.63,1.76,1.01,2.86s.66,1.95.86,2.56.44,1.35.74,2.24c.3.89.46,1.4.49,1.53.23.72.58,1.81,1.06,3.28s.84,2.58,1.11,3.35c.26.77.6,1.76,1.01,2.96s.75,2.12,1.01,2.76.57,1.31.91,2.02.66,1.21.94,1.5c.28.3.53.44.76.44.36,0,.72-.25,1.06-.76s.71-1.39,1.08-2.66c.38-1.26.69-2.38.94-3.35s.62-2.52,1.11-4.65c.49-2.13.87-3.71,1.13-4.73,3.02-12.48,5.3-18.71,6.85-18.71,1.22,0,1.82,1.79,1.82,5.37v28.66c0,2.72-.58,4.66-1.72,5.81h16.5c-1.15-1.15-1.72-3.09-1.72-5.81v-33.33c0-1.57-1.27-2.84-2.84-2.84h-15.28c-.77,0-1.45.51-1.67,1.25-.12.39-.23.77-.34,1.14l-.03-.02h0Z"/>
        <path class="st0" d="M163.55,71.39c0-1.81-.34-3.57-1.03-5.29s-1.69-3.3-3-4.73-3.06-2.58-5.25-3.45c-2.18-.87-4.64-1.31-7.36-1.31-6.4,0-10.98,1.31-13.74,3.94-.23.23-.43.48-.59.74s-.27.58-.32.96-.08.67-.1.89-.02.58,0,1.08c.02.5.03.83.03.96v2.71c0,.43.16.8.47,1.11s.66.47,1.06.47c.56,0,1.17-.35,1.85-1.03.67-.69,1.37-1.53,2.09-2.51s1.49-1.98,2.32-2.98c.82-1,1.77-1.85,2.86-2.54,1.08-.69,2.2-1.05,3.35-1.08.85,0,1.58.15,2.19.44.61.29,1.05.71,1.33,1.23s.48,1.05.59,1.58c.11.52.17,1.1.17,1.72,0,1.22-.59,1.94-1.77,2.17-2.46.53-4.74,1.24-6.85,2.14-2.1.9-4.06,2.05-5.88,3.45-1.82,1.4-3.26,3.13-4.31,5.2s-1.58,4.37-1.58,6.89c0,2.36.86,4.36,2.58,5.98,1.72,1.63,3.78,2.44,6.18,2.44,1.61,0,3.05-.24,4.31-.72s2.21-1,2.83-1.58c.62-.57,1.24-1.1,1.85-1.58s1.12-.71,1.55-.71c.66,0,1.08.58,1.28,1.72.26,1.41,1.12,2.12,2.56,2.12h12.07c-1.15-1.15-1.72-3.09-1.72-5.81v-14.63h-.02,0ZM149.47,84.76c-.69,1.03-1.67,1.55-2.96,1.55-3.12,0-4.68-2.26-4.68-6.8,0-2.86.71-5.21,2.14-7.07,1.43-1.85,3-2.78,4.7-2.78.66,0,1.12.23,1.38.69.26.46.39,1.25.39,2.36,0,1.02,0,2.34.02,3.96.02,1.63.03,2.96.03,4.01,0,1.67-.35,3.03-1.03,4.06v.02h0Z"/>
        <path class="st0" d="M179.86,57.36v-7.51h-4.87c-.85.75-1.72,1.52-2.62,2.36-1.38,1.3-2.91,2.48-4.6,3.55s-3.09,1.6-4.21,1.6v2.46h1.53c.56,0,1,.08,1.33.25s.56.44.69.81c.13.38.21.69.22.94.02.25.03.63.03,1.16v15.81c0,1.51.07,2.86.2,4.04.13,1.18.43,2.41.89,3.69s1.07,2.34,1.82,3.18c.76.84,1.8,1.53,3.13,2.07s2.91.81,4.75.81c1.25,0,2.42-.27,3.52-.81s1.72-1.24,1.85-2.09c-.79-.16-1.21-.26-1.28-.29-.26-.16-.5-.36-.71-.59s-.39-.45-.54-.66c-.15-.21-.28-.49-.39-.84l-.29-.89c-.08-.25-.16-.59-.22-1.03-.07-.44-.11-.78-.12-1.01-.02-.23-.03-.62-.05-1.16s-.02-.92-.02-1.13v-22.23h2.27v-2.46h-2.27l-.04-.03h0Z"/>
        <path class="st0" d="M190.94,52.21c-1.38,1.3-2.91,2.48-4.6,3.55s-3.09,1.6-4.21,1.6h1.97v2.46h-.44c.56,0,1,.08,1.33.25s.56.44.69.81c.13.38.21.69.22.94.02.25.03.63.03,1.16v15.81c0,1.51.07,2.86.2,4.04.13,1.18.43,2.41.89,3.69s1.07,2.34,1.82,3.18c.76.84,1.8,1.53,3.13,2.07s2.91.81,4.75.81c1.25,0,2.42-.27,3.52-.81s1.72-1.24,1.85-2.09c-.79-.16-1.21-.26-1.28-.29-.26-.16-.5-.36-.71-.59s-.39-.45-.54-.66c-.15-.21-.28-.49-.39-.84l-.29-.89c-.08-.25-.16-.59-.22-1.03-.07-.44-.11-.78-.12-1.01-.02-.23-.03-.62-.05-1.16s-.02-.92-.02-1.13v-22.23h4.24v-2.46h-4.24v-7.51h-4.87c-.85.75-1.72,1.52-2.62,2.36l-.04-.03h0Z"/>
        <polygon class="st0" points="184.09 57.36 182.13 57.36 182.13 59.82 183.65 59.82 184.09 59.82 184.09 57.36"/>
        <path class="st0" d="M233.3,81.09c-.2,0-.52.21-.96.64s-1.12.85-2.02,1.28-2.04.64-3.42.64c-1.77,0-3.76-.45-5.96-1.35-2.2-.9-4.02-1.9-5.47-2.98s-2.17-1.92-2.17-2.51c0-.53.38-.79,1.13-.79.92,0,2.18.03,3.77.07,1.59.05,2.9.08,3.92.1s2.2,0,3.55-.05,2.45-.2,3.3-.47c.85-.26,1.69-.62,2.51-1.08.82-.46,1.42-1.1,1.8-1.92s.57-1.79.57-2.9c0-3.58-1.24-6.67-3.72-9.26-2.48-2.59-5.82-3.89-10.02-3.89-5.58,0-9.92,1.76-13.03,5.27-3.1,3.51-4.65,8.06-4.65,13.64,0,4.76,1.8,8.79,5.39,12.09,3.59,3.3,7.81,4.95,12.63,4.95,2.23,0,4.26-.36,6.08-1.08s3.26-1.63,4.31-2.73c1.05-1.1,1.85-2.23,2.41-3.4s.84-2.24.84-3.23c0-.69-.26-1.03-.79-1.03h0ZM209.34,71.54c-.94-1.41-1.4-3.09-1.4-5.02,0-1.35.58-2.44,1.72-3.27s2.46-1.26,3.94-1.26c2.36,0,4.63.74,6.8,2.22,2.17,1.48,3.25,3.4,3.25,5.76,0,.79-.29,1.44-.89,1.97s-1.42.9-2.49,1.13c-1.07.23-2.12.39-3.15.47s-2.22.12-3.57.12c-1.87,0-3.27-.71-4.21-2.12Z"/>
        <path class="st0" d="M265.51,57.43c-1.31-.54-2.71-.81-4.19-.81s-2.74.24-3.89.71c-1.15.48-2.06,1.04-2.73,1.7s-1.25,1.32-1.72,1.99c-.48.67-.9,1.25-1.28,1.72s-.71.71-1.01.71c-.23,0-.34-.39-.34-1.18v-.84c0-1.35-.2-2.36-.59-3.05s-1.1-1.03-2.12-1.03h-12.07c1.15,1.15,1.72,3.09,1.72,5.81v22.85c0,2.72-.58,4.66-1.72,5.81h16.5c-1.15-1.15-1.72-3.09-1.72-5.81v-13.39c0-4.3,1.58-6.45,4.73-6.45,1.08,0,1.99.22,2.71.66s1.21.94,1.48,1.5c.26.56.58,1.06.94,1.5.36.44.77.67,1.23.67.13,0,.26-.05.39-.15s.28-.25.44-.44c.16-.2.31-.4.44-.62.13-.21.3-.51.49-.89.2-.38.36-.7.49-.96s.32-.63.57-1.11.44-.86.57-1.16c1.77-3.55,2.66-5.42,2.66-5.62,0-.89-.66-1.6-1.97-2.14v.02h-.01Z"/>
        <path class="st0" d="M274.89,60.38c.8-.57,1.71-.86,2.73-.86,1.38,0,2.85.51,4.41,1.53s2.95,2.13,4.16,3.32c1.21,1.2,2.63,2.31,4.26,3.32,1.63,1.02,3.16,1.53,4.6,1.53.95,0,1.95-.72,3-2.17,1.05-1.44,1.58-2.95,1.58-4.53,0-1.48-1.58-2.83-4.73-4.06-3.15-1.23-6.85-1.85-11.08-1.85-2,0-3.88.17-5.64.52-1.76.34-3.43.9-5.02,1.67-1.59.77-2.86,1.87-3.79,3.3-.94,1.43-1.4,3.13-1.4,5.1,0,1.84.39,3.51,1.16,5.02.77,1.51,1.77,2.73,3,3.67,1.23.94,2.67,1.72,4.31,2.36,1.64.64,3.28,1.09,4.93,1.35,1.64.26,3.3.39,4.97.39,1.41,0,3.06-.11,4.95-.32s3.06-.32,3.52-.32c1.38,0,2.07.51,2.07,1.53,0,1.25-.72,2.31-2.14,3.2-1.43.89-3.03,1.33-4.8,1.33-2.04,0-4.04-.34-6.01-1.01-1.97-.67-3.56-1.42-4.78-2.24-1.21-.82-2.4-1.57-3.55-2.24s-2.03-1.01-2.66-1.01c-.92,0-1.94,1.22-3.05,3.67-1.12,2.45-1.67,4.29-1.67,5.54,0,1.18,1.84,2.22,5.52,3.1,3.68.89,7.35,1.33,11.03,1.33,1.54,0,3.11-.21,4.7-.62,1.59-.41,3.17-1.04,4.73-1.9,1.56-.85,2.84-2.09,3.84-3.72,1-1.63,1.5-3.52,1.5-5.69,0-1.84-.38-3.48-1.13-4.92-.76-1.45-1.68-2.62-2.78-3.52-1.1-.9-2.54-1.72-4.31-2.44s-3.41-1.26-4.9-1.63c-1.49-.36-3.26-.72-5.29-1.08-2.4-.43-4.24-.94-5.52-1.55s-1.92-1.47-1.92-2.59.4-1.96,1.21-2.54v.03h-.01Z"/>
        <path class="st0" d="M307.82,79.71c-1.81,0-3.33.62-4.58,1.87s-1.87,2.76-1.87,4.53.62,3.33,1.87,4.58,2.77,1.87,4.58,1.87,3.28-.62,4.53-1.87,1.87-2.77,1.87-4.58-.62-3.28-1.87-4.53-2.76-1.87-4.53-1.87Z"/>
      </g>
    </g>
    <path class="st1" d="M84.23,27.41c-.85.23-.69.68-.45,1.18.2.43.37.88.55,1.32.16.39.42.78-.15,1.09-.07.04-.07.31-.03.44.1.32.23.63.38.93.24.51.48,1.01-.32,1.23.05.27.09.48.14.71-.41.17-.8.33-1.19.49l.03-.17c-.33-.1-.68-.18-.99-.32-.17-.08-.32-.26-.41-.43-.2-.38-.33-.8-.52-1.18-.08-.15-.3-.37-.38-.34-.64.21-.71-.27-.88-.66-.19-.44-.38-.88-.55-1.32-.19-.51-.38-.97-1.13-.53-.26-.62-.47-1.19-.74-1.74-.09-.18-.36-.44-.46-.41-.59.2-.69-.21-.85-.59-.14-.33-.2-.8-.77-.56-.07.03-.23-.01-.25-.06-.33-.71-.83-.4-1.25-.17-.5.27-.74.01-.94-.44-1.47.61-2.89,1.2-4.41,1.83-.27-1.01-.85-.57-1.39-.35-.86.35-1.72.71-2.62,1.09-.31-.73-.8-.61-1.34-.34-.45.22-.93.38-1.39.58-.43.18-.85.37-.97-.38-.65.34-.92.08-1.15-.49-.22-.54.03-.74.46-.92-.05-.25-.1-.48-.16-.81.77-.32,1.55-.65,2.34-.97.32-.13.62-.23.47-.71-.03-.11.22-.39.39-.47.78-.36,1.58-.67,2.37-1,.24-.1.47-.23.73-.36-.3-.62,0-.86.53-1.05.83-.3,1.64-.66,2.45-1.01.18-.08.46-.31.44-.38-.29-.84.41-.85.86-1.08.11-.05.21-.11.17-.26.17-.3.35-.6.5-.91.06-.14.07-.3.09-.46.01-.11-.04-.31,0-.33.75-.37.28-.85.15-1.31-.05-.17-.03-.51.06-.55.54-.28.35-.63.19-1.02-.3-.7-.59-1.41-.9-2.18.92-.31.56-.88.32-1.43-.26-.61-.51-1.23-.78-1.88.2-.16.37-.3.55-.45-.09-.48-.41-1.1-.22-1.4.24-.37.88-.51,1.37-.68,1.05-.35.57.9,1.25,1.09.55-.28.8.11.98.68.14.43.34.84.53,1.3.72-.31.93.14,1.11.68.14.43.36.83.51,1.26.19.54.41,1,1.17.62.17.42.31.79.48,1.15.21.45.22,1.18,1.06.83.28.51.86.46,1.3.68.21.11.5.22.7.15.81-.28,1.59-.64,2.4-.98.16.24.29.43.48.7,1.43-.59,2.87-1.19,4.37-1.81.27.72.7.65,1.21.41.69-.32,1.41-.59,2.11-.88.49-.21.92-.11,1.27.3l1.26-.52c.17.24.32.44.48.67.16-.04.32-.12.48-.12.12,0,.29.07.33.16s0,.33-.07.36c-.52.2-.52.55-.23,1.02-.1-.03-.19-.06-.29-.09-.1.32-.17.66-.32.96-.08.17-.26.33-.43.4-.79.35-1.58.69-2.38.99-.51.19-.86.42-.5,1.11-1.03.43-2.01.84-3,1.24-.39.16-.77.29-.59.86.03.1-.23.37-.41.45-1.02.45-2.06.87-2.88,1.21-.5,1.28-.92,2.36-1.45,3.69.27.65.66,1.59,1.09,2.63h.03,0ZM87.71,14.75c-.02-.08-.04-.16-.06-.24l-2.78,1.15c-.24-.67-.61-.68-1.14-.43-.91.42-1.84.78-2.77,1.16-.43.18-.9.57-1.26-.13-.03-.06-.23-.09-.32-.06-.47.17-.6-.15-.7-.48-.17-.56-.42-.98-1.17-.58l-.9-2.17c-.52.22-.79.13-1-.37-.7-1.64-.72-1.61-2.37-.94-.54.22-.7.44-.43,1,.36.74.64,1.52.96,2.27-.28.19-.47.32-.73.5.3.72.58,1.41.73,1.77-.39.99-.67,1.69-1.03,2.59-.43.18-1.07.48-1.74.71-.59.21-1.07.43-.68,1.24-1.24.51-2.42,1-3.63,1.5.32.59.04.85-.44,1-.18.06-.4.12-.5.25-.11.14-.18.39-.13.54.05.16.26.3.43.37.29.11.61.16.92.23,0,.06-.01.13-.02.19.44-.16.88-.32,1.35-.49.24.75.67.63,1.19.4.95-.43,1.92-.81,2.94-1.23.21.79.65.69,1.16.44.45-.22.94-.36,1.38-.59.47-.24.85-.27,1.1.27.26-.04.48-.07.75-.11.24.58.44,1.14.71,1.67.09.18.4.41.55.38.47-.11.58.16.71.49.31.77.63,1.53.87,2.1.45.11.8.09.92.25.57.76,1.03.05,1.49-.1.53-.17.15-.58.11-.9-.04-.27-.12-.7.01-.81.37-.29.27-.54.13-.87-.32-.76-.64-1.53-.96-2.31,1.3-.57.08-1.28.25-1.95.14-.09.32-.2.52-.33-.17-.5-.01-.83.51-.95.59-.14.86-.47.53-1.14,1.23-.51,2.41-1,3.64-1.51-.43-.76.01-.96.56-1.16.71-.26,1.4-.57,2.18-.89-.2-.48-.34-.88-.53-1.25-.06-.12-.24-.2-.38-.25-.31-.1-.62-.18-.93-.26v.03h0Z"/>
    <path class="st0" d="M38.38,12.39c7,0,14.79,3.18,19.06,6.64l-8.83,6.74c-.62.47-1.37.71-2.12.71-.46,0-.92-.09-1.35-.26-2.02-.78-4.07-1.17-6.07-1.17-4.04,0-7.91,1.57-10.99,4.65-.72.72-1.39,1.55-1.98,2.45-.37.57.08,1.25.66,1.25.12,0,.24-.03.37-.09,2.56-1.35,5.65-2.21,9.27-2.21,5.77,0,10.95,3.02,12.99,8.36l4.62-4.09h16.6c1.29,0,2.23,1.22,1.9,2.47l-7.59,28.4h2.89c1.66,0,2.87,1.58,2.43,3.19l-2.45,8.97h-6.11l-2.43,8.91h-14.43c-1.16,0-2.01-1.1-1.71-2.22l1.77-6.69h-19.14c-2.42,0-4.49-1.76-4.87-4.16l-1.33-8.37.83-.73c-3.42-.92-6.31-2.54-8.49-4.72-3.46-3.46-5.38-8.25-5.38-13.85,0-8.84,3.39-18.71,10.17-25.49,5.16-5.16,12.3-8.69,21.73-8.69M32.79,69.41h16.9l5.22-19.56-22.12,19.56M38.38,8.71c-9.53,0-17.94,3.38-24.33,9.77-7.04,7.04-11.24,17.54-11.24,28.09,0,6.54,2.23,12.23,6.46,16.45,1.87,1.87,4.19,3.41,6.81,4.52l1.16,7.27c.67,4.2,4.24,7.26,8.5,7.26h14.37l-.55,2.08c-.44,1.65-.09,3.36.95,4.71s2.61,2.12,4.31,2.12h17.24l.74-2.71,1.69-6.2h6.11l.74-2.71,2.45-8.97c.51-1.88.13-3.85-1.05-5.39-.8-1.05-1.88-1.79-3.1-2.16l6.43-24.04c.46-1.71.1-3.49-.97-4.89-1.08-1.4-2.71-2.2-4.47-2.2h-17.99l-1.04.92-1.28,1.14c-1.15-1.42-2.54-2.63-4.11-3.61h.31c1.59,0,3.1-.51,4.35-1.46l8.83-6.74,3.72-2.84-3.63-2.94c-4.44-3.6-13.02-7.46-21.38-7.46h-.03,0ZM39.52,48.82c0,4.36-3.54,7.9-7.9,7.9s-7.9-3.54-7.9-7.9,3.54-7.9,7.9-7.9,7.9,3.54,7.9,7.9Z"/>
  </g>
  <g>
    <path class="st0" d="M89.35,99.48l-7.03,9.39h-3.68c.49-1.15,1.17-2.66,2.04-4.54-.59.83-1.22,1.66-1.89,2.5l-1.6,2.04h-3.69l4.24-9.39h2.92c-.13.25-.96,2.04-2.51,5.38.24-.34,1.58-2.14,4.01-5.38h2.81l-2.56,5.38c1.06-1.57,2.4-3.36,4.03-5.38h2.92,0Z"/>
    <path class="st0" d="M100.85,99.48l-7.03,9.39h-3.68c.49-1.15,1.17-2.66,2.04-4.54-.59.83-1.22,1.66-1.89,2.5l-1.6,2.04h-3.69l4.24-9.39h2.92c-.13.25-.96,2.04-2.51,5.38.24-.34,1.58-2.14,4.01-5.38h2.81l-2.56,5.38c1.06-1.57,2.4-3.36,4.03-5.38h2.92,0Z"/>
    <path class="st0" d="M112.36,99.48l-7.03,9.39h-3.68c.49-1.15,1.17-2.66,2.04-4.54-.59.83-1.22,1.66-1.89,2.5l-1.6,2.04h-3.69l4.24-9.39h2.92c-.13.25-.96,2.04-2.51,5.38.24-.34,1.58-2.14,4.01-5.38h2.81l-2.56,5.38c1.06-1.57,2.4-3.36,4.03-5.38h2.92,0Z"/>
    <path class="st0" d="M110.9,106.54l-1.41,2.33h-2.56l1.41-2.33h2.56Z"/>
    <path class="st0" d="M116.91,103.12h-3.18l.38-.63c.44-.73.88-1.29,1.31-1.68.44-.39,1.04-.74,1.83-1.04.78-.3,1.65-.45,2.61-.45,1.15,0,1.91.17,2.28.51.37.34.47.76.29,1.26s-.74,1.52-1.68,3.07l-2.85,4.71h-3.3l.51-.84c-.41.33-.83.59-1.26.75-.43.17-.87.25-1.32.25-.59,0-1.05-.14-1.38-.42-.33-.28-.2-.9.37-1.84l.47-.77c.42-.7.84-1.18,1.26-1.44.42-.25,1.25-.55,2.49-.89,1.33-.37,2.08-.62,2.24-.74.16-.13.35-.39.59-.78.3-.49.45-.81.45-.96s-.1-.22-.3-.22c-.23,0-.41.06-.54.19-.13.12-.35.45-.67.97l-.59.98h0ZM117.21,104.41c-.75.33-1.23.61-1.46.84-.22.23-.46.55-.72.98-.29.49-.45.8-.46.94s.1.21.32.21.38-.06.51-.17c.13-.11.34-.4.63-.88l1.17-1.93h.01Z"/>
    <path class="st0" d="M132.5,99.48l-5.68,9.39h-3.45l.53-.78c-.42.32-.86.55-1.3.71-.44.16-.88.24-1.33.24-.51,0-.89-.08-1.13-.23-.25-.15-.37-.35-.38-.6,0-.25.05-.51.18-.78.12-.27.43-.81.92-1.62l3.83-6.33h3.39l-3.86,6.39c-.44.73-.68,1.17-.71,1.3-.03.14.07.21.31.21s.44-.07.58-.21c.13-.14.43-.6.9-1.37l3.82-6.32h3.39-.01Z"/>
    <path class="st0" d="M138.05,98.23l-.89,1.48h.91l-.9,1.49h-.91l-3.04,5.02c-.37.62-.54.96-.51,1.03s.33.11.88.11l-.92,1.51h-1.37c-.77,0-1.31-.03-1.6-.08-.3-.05-.51-.18-.65-.38s-.16-.42-.06-.67c.09-.25.42-.85.98-1.78l2.88-4.77h-.73l.9-1.49h.73l.89-1.48h3.41,0Z"/>
    <path class="st0" d="M144.64,102.78l-1.39,2.3c-.51.84-.94,1.46-1.27,1.86-.34.39-.78.76-1.31,1.1s-1.11.59-1.73.76c-.62.16-1.26.24-1.93.24-.75,0-1.34-.07-1.78-.21s-.71-.35-.83-.63-.12-.62,0-1.02c.12-.4.42-1,.9-1.79l1.45-2.41c.53-.87,1.05-1.55,1.57-2.04s1.16-.89,1.92-1.18,1.6-.45,2.5-.45c.76,0,1.36.1,1.79.29s.7.44.81.75.12.62.03.95c-.09.33-.33.82-.73,1.49h0ZM141.67,102.07c.29-.48.44-.78.46-.91,0-.12-.08-.19-.28-.19s-.37.06-.52.19c-.14.12-.36.43-.65.91l-2.56,4.24c-.27.44-.41.73-.42.87,0,.13.08.2.27.2s.37-.06.51-.18.33-.39.57-.79l2.62-4.33h0Z"/>
    <path class="st0" d="M152.39,97.41l-1.64,2.71c.45-.27.88-.48,1.31-.61.42-.13.84-.2,1.24-.2.46,0,.83.06,1.1.19.27.12.42.29.47.52s.02.44-.07.65c-.09.21-.35.67-.77,1.36l-2.56,4.23c-.42.69-.78,1.2-1.09,1.54-.31.34-.74.63-1.3.88-.55.25-1.1.37-1.66.37-.4,0-.72-.07-.98-.22s-.44-.37-.54-.66l-.65.71h-3.17l6.92-11.46h3.39,0ZM150.56,102.15c.29-.49.45-.8.47-.95s-.08-.22-.29-.22-.38.06-.52.19c-.14.13-.37.46-.68.98l-2.45,4.05c-.31.5-.47.83-.48.97-.02.14.08.21.29.21s.4-.07.55-.22.4-.5.73-1.05l2.39-3.96h-.01Z"/>
    <path class="st0" d="M157.51,103.12h-3.18l.38-.63c.44-.73.88-1.29,1.31-1.68.44-.39,1.04-.74,1.83-1.04.78-.3,1.65-.45,2.61-.45,1.15,0,1.91.17,2.28.51.37.34.47.76.29,1.26s-.74,1.52-1.68,3.07l-2.85,4.71h-3.3l.51-.84c-.41.33-.83.59-1.26.75-.43.17-.87.25-1.32.25-.59,0-1.05-.14-1.38-.42s-.2-.9.37-1.84l.47-.77c.42-.7.84-1.18,1.26-1.44.42-.25,1.25-.55,2.49-.89,1.33-.37,2.08-.62,2.24-.74.16-.13.35-.39.59-.78.3-.49.45-.81.45-.96s-.1-.22-.3-.22c-.23,0-.41.06-.54.19-.13.12-.35.45-.67.97l-.59.98h0ZM157.81,104.41c-.75.33-1.23.61-1.46.84-.22.23-.46.55-.72.98-.29.49-.45.8-.46.94,0,.14.1.21.32.21s.38-.06.51-.17c.13-.11.34-.4.63-.88l1.17-1.93h.01Z"/>
    <path class="st0" d="M169.98,97.41l-1.56,2.58c.43-.23.84-.4,1.25-.51s.8-.17,1.19-.17c.59,0,1.02.13,1.28.38s.34.55.23.88c-.11.33-.43.94-.96,1.82l-3.91,6.47h-3.39l3.99-6.61c.33-.55.51-.9.54-1.05.03-.16-.07-.23-.29-.23s-.39.08-.57.24c-.17.16-.4.48-.68.96l-4.05,6.7h-3.39l6.92-11.46h3.4Z"/>
    <path class="st0" d="M177.8,99.48l-.58.87c.46-.35.91-.6,1.37-.78.46-.17.92-.26,1.39-.26.58,0,.99.12,1.22.35s.29.52.18.87c-.11.35-.41.94-.9,1.76l-3.98,6.58h-3.39l3.93-6.5c.39-.65.61-1.04.64-1.18.04-.14-.06-.21-.29-.21s-.44.08-.6.24c-.16.16-.45.6-.88,1.31l-3.84,6.35h-3.39l5.68-9.39h3.45,0Z"/>
    <path class="st0" d="M194.3,99.48l-7.03,9.39h-3.68c.49-1.15,1.17-2.66,2.04-4.54-.59.83-1.22,1.66-1.89,2.5l-1.6,2.04h-3.69l4.24-9.39h2.92c-.13.25-.96,2.04-2.51,5.38.24-.34,1.58-2.14,4.01-5.38h2.81l-2.56,5.38c1.06-1.57,2.4-3.36,4.03-5.38h2.92,0Z"/>
    <path class="st0" d="M199.48,97.41l-1.56,2.58c.43-.23.84-.4,1.25-.51s.8-.17,1.19-.17c.59,0,1.02.13,1.28.38s.34.55.23.88c-.11.33-.43.94-.96,1.82l-3.91,6.47h-3.39l3.99-6.61c.33-.55.51-.9.54-1.05.03-.16-.07-.23-.29-.23s-.39.08-.57.24c-.17.16-.4.48-.68.96l-4.05,6.7h-3.39l6.92-11.46h3.4Z"/>
    <path class="st0" d="M208.59,104.34h-4.39l-1.23,2.03c-.26.42-.38.7-.39.82,0,.12.1.18.31.18.26,0,.48-.08.66-.25.18-.16.42-.48.7-.94l.75-1.24h3.21l-.42.69c-.35.58-.66,1.03-.94,1.34s-.68.64-1.21,1c-.53.35-1.1.62-1.69.8s-1.26.26-2,.26-1.3-.09-1.74-.26c-.44-.17-.72-.41-.84-.72-.12-.3-.13-.64-.03-1,.1-.37.37-.9.79-1.6l1.66-2.74c.5-.82,1.02-1.47,1.57-1.94s1.2-.84,1.95-1.09,1.52-.38,2.29-.38c.95,0,1.64.15,2.08.46.44.3.62.71.57,1.21-.05.5-.36,1.21-.91,2.12,0,0-.75,1.25-.75,1.25ZM206.11,102.81l.42-.69c.29-.49.45-.8.48-.94.02-.14-.06-.21-.25-.21-.23,0-.42.06-.54.18-.13.12-.35.45-.67.97l-.42.69h.99-.01Z"/>
    <path class="st0" d="M217.38,104.34h-4.39l-1.23,2.03c-.26.42-.38.7-.39.82,0,.12.1.18.31.18.26,0,.48-.08.66-.25.18-.16.42-.48.7-.94l.75-1.24h3.21l-.42.69c-.35.58-.66,1.03-.94,1.34s-.68.64-1.21,1c-.53.35-1.1.62-1.69.8s-1.26.26-2,.26-1.3-.09-1.74-.26c-.44-.17-.72-.41-.84-.72-.12-.3-.13-.64-.03-1,.1-.37.37-.9.79-1.6l1.66-2.74c.5-.82,1.02-1.47,1.57-1.94s1.2-.84,1.95-1.09,1.52-.38,2.29-.38c.95,0,1.64.15,2.08.46.44.3.62.71.57,1.21-.05.5-.36,1.21-.91,2.12,0,0-.75,1.25-.75,1.25ZM214.9,102.81l.42-.69c.29-.49.45-.8.48-.94.02-.14-.06-.21-.25-.21-.23,0-.42.06-.54.18-.13.12-.35.45-.67.97l-.42.69h.99-.01Z"/>
    <path class="st0" d="M226.16,97.41l-6.92,11.46h-3.49l6.92-11.46h3.49Z"/>
    <path class="st0" d="M231.24,102.48h-3.01l.31-.51c.26-.43.4-.71.41-.82,0-.12-.1-.17-.33-.17-.19,0-.37.05-.53.16s-.3.26-.43.48c-.17.29-.28.5-.31.63-.04.13.02.28.16.44s.49.39,1.04.7c.74.41,1.15.79,1.25,1.15.09.36-.07.88-.48,1.56-.46.76-.93,1.34-1.4,1.73-.47.39-1.04.69-1.72.9-.68.21-1.41.31-2.18.31-.86,0-1.53-.11-2.01-.34-.48-.23-.71-.53-.71-.92s.24-.97.72-1.75l.27-.45h3l-.36.59c-.31.5-.46.83-.48.98,0,.15.09.23.31.23.24,0,.44-.05.6-.15s.33-.31.53-.64c.27-.45.38-.73.32-.84-.06-.11-.51-.45-1.36-1.01-.71-.47-1.06-.9-1.05-1.28s.18-.84.5-1.37c.45-.75.91-1.3,1.36-1.66s1.01-.63,1.69-.82c.68-.19,1.39-.29,2.14-.29s1.32.08,1.74.24c.42.16.69.37.81.63.12.26.14.5.07.72-.08.22-.26.57-.54,1.04l-.33.55v-.02h0Z"/>
    <path class="st0" d="M232.22,106.54l-1.41,2.33h-2.56l1.41-2.33h2.56Z"/>
    <path class="st0" d="M242.75,103.03h-3.2l.65-1.08c.23-.38.35-.63.35-.77,0-.13-.08-.2-.28-.2s-.36.06-.5.18-.33.38-.58.79l-2.68,4.43c-.2.34-.3.59-.3.75,0,.17.1.25.29.25.23,0,.44-.09.62-.26.19-.17.43-.5.72-.99l.68-1.12h3.02c-.46.75-.83,1.31-1.12,1.69-.29.38-.71.76-1.26,1.15-.55.39-1.15.69-1.78.89s-1.32.3-2.07.3c-.96,0-1.63-.14-2.03-.41-.39-.28-.55-.66-.49-1.16.07-.5.38-1.2.93-2.12l1.61-2.67c.48-.8.94-1.4,1.38-1.8.44-.41,1.06-.77,1.87-1.09s1.67-.48,2.55-.48,1.54.16,1.98.48c.43.32.61.71.53,1.2-.08.48-.39,1.16-.92,2.05h.03Z"/>
    <path class="st0" d="M251.58,102.78l-1.39,2.3c-.51.84-.94,1.46-1.27,1.86-.34.39-.78.76-1.31,1.1s-1.11.59-1.73.76c-.62.16-1.26.24-1.93.24-.75,0-1.34-.07-1.78-.21s-.71-.35-.83-.63-.12-.62,0-1.02c.12-.4.42-1,.9-1.79l1.45-2.41c.53-.87,1.05-1.55,1.57-2.04s1.16-.89,1.92-1.18,1.6-.45,2.5-.45c.76,0,1.36.1,1.79.29s.7.44.81.75.12.62.03.95c-.09.33-.33.82-.73,1.49h0ZM248.61,102.07c.29-.48.44-.78.46-.91,0-.12-.08-.19-.28-.19s-.37.06-.52.19c-.14.12-.36.43-.65.91l-2.56,4.24c-.27.44-.41.73-.42.87,0,.13.08.2.27.2s.37-.06.51-.18.33-.39.57-.79l2.62-4.33h0Z"/>
    <path class="st0" d="M258.03,99.48l-.6.89c.48-.35.95-.62,1.42-.8s.94-.27,1.4-.27c.91,0,1.41.36,1.5,1.06.5-.35.98-.62,1.45-.8s.92-.27,1.35-.27c.58,0,.98.12,1.22.35.24.24.3.53.2.87s-.38.9-.85,1.67l-4.03,6.67h-3.29l3.7-6.12c.48-.8.75-1.3.8-1.49s-.04-.29-.28-.29-.45.09-.64.28c-.18.19-.52.69-1.01,1.49l-3.7,6.12h-3.29l3.61-5.96c.56-.92.86-1.47.92-1.66.06-.18-.03-.28-.27-.28-.15,0-.31.05-.47.14-.17.1-.3.21-.39.35-.1.14-.28.44-.55.89l-3.93,6.51h-3.29l5.68-9.39h3.35v.04h-.01Z"/>
  </g>
  <g>
    <ellipse class="st1" cx="49.8" cy="104.75" rx="20.4" ry="1.1"/>
    <ellipse class="st1" cx="288.49" cy="104.75" rx="20.4" ry="1.1"/>
  </g>
</svg>