<?xml version="1.0" encoding="UTF-8"?>
<svg id="Layer_1" xmlns="http://www.w3.org/2000/svg" version="1.1" viewBox="0 0 493.66 309.46">
  <!-- Generator: Adobe Illustrator 30.2.1, SVG Export Plug-In . SVG Version: 2.1.1 Build 1)  -->
  <defs>
    <style>
      .st0 {
        fill: #fff;
      }

      .st1 {
        fill: #f17c97;
      }
    </style>
  </defs>
  <g>
    <g>
      <path class="st0" d="M142.9,240.56s-.02.04-.03.06c0-.02.02-.04.03-.06Z"/>
      <path class="st0" d="M141.95,242.51s0,.01,0,.02c0,0,0-.01,0-.02Z"/>
      <path class="st0" d="M141.72,242.98s-.02.04-.03.06c.01-.02.02-.04.03-.06Z"/>
      <path class="st0" d="M141.63,243.15s0,.02-.01.02c0,0,0-.02.01-.02Z"/>
      <path class="st0" d="M141.82,242.78s-.02.03-.02.05c0-.02.02-.03.02-.05Z"/>
      <path class="st0" d="M143.73,238.82c-.05.1-.1.21-.14.3.05-.1.1-.2.14-.3Z"/>
      <path class="st0" d="M142.62,241.15s-.04.08-.05.11c.02-.04.04-.07.05-.11Z"/>
      <path class="st0" d="M144.63,236.95c-.05.1-.09.19-.14.29.05-.09.09-.19.14-.29Z"/>
      <path class="st0" d="M144.18,237.89c-.06.12-.11.23-.16.34.05-.11.11-.23.16-.34Z"/>
      <path class="st0" d="M142.39,241.62s-.05.1-.07.15c.02-.05.05-.1.07-.15Z"/>
      <path class="st0" d="M142.15,242.11s-.02.04-.03.05c0-.02.02-.04.03-.05Z"/>
      <g>
        <g>
          <path class="st0" d="M249.43,126.85c-.48-.81-.81-1.65-1.03-2.49-.5-.3-1.04-.58-1.64-.85-.21-.1-.44-.17-.67-.25-.32.15-.65.26-.99.28-.01,0-.03,0-.04,0-1.03.57-1.93,1.05-2.7,1.42-1.27.62-2.67.99-4.17,1.11-.25.02-.5.03-.75.03-.29,0-.57-.01-.86-.04-.46-.04-.93-.13-1.39-.24-2.5,3.13-5.14,5.59-7.86,7.33-.73.47-1.52.89-2.35,1.27-.28.5-.51.91-.67,1.21-.34.64-.93,1.81-1.78,3.51-.85,1.7-1.37,2.77-1.55,3.19-.79,1.64-2.36,4.67-4.7,9.08-2.34,4.41-4.09,7.86-5.25,10.36-3.47,7.3-5.38,11.28-5.75,11.95-.19.35-.36.7-.52,1.06-.21.45-.4.9-.57,1.36-.3.82-.61,1.7-.91,2.65-.3.94-.52,1.63-.64,2.05-.24.61-.56,1.36-.96,2.24-.4.88-.71,1.63-.96,2.24-.24.61-.36,1.16-.36,1.64,0,.78.23,1.66.68,2.64.42.92,1.05,1.93,1.86,3.03,2.63-2.23,5.84-4,9.56-5.24,3.72-1.24,7.35-1.87,10.77-1.87,1.94,0,3.82.08,5.66.2.6-1.32,1.19-2.73,1.75-4.24l1.82.27c1.13,2.17,2.7,3.81,4.68,4.94,2.67.48,5.21,1.1,7.61,1.88.16,0,.32.02.48.02,3.95,0,7.1-.88,9.44-2.65.65-.49,1.2-1.03,1.66-1.61-.31-.38-.58-.74-.78-1.06-.2-.31-.35-.56-.47-.81-.34-.72-.72-1.67-1.16-2.9-.49-1.4-.74-2.87-.74-4.38,0-1.62.1-3.24.29-4.8.19-1.56.54-3.31,1.02-5.2l.11-.42c.4-1.58.72-2.83.94-3.69.26-1,.75-2.61,1.49-4.9-.01-.71-.03-1.37-.04-1.97-.06-2.25-.21-4.9-.46-7.94-.24-3.04-.61-5.53-1.09-7.48-.55-2.31-.97-4.03-1.28-5.16-.22-.81-.56-1.78-1.02-2.89-.34-.22-.66-.44-.96-.69-1.14-.91-2.07-1.99-2.78-3.2ZM238.05,170.21l-8.98-1.6,8.98-20.76v22.35Z"/>
          <path class="st0" d="M382.42,129.53c-4.23-1.92-9.53-2.87-15.92-2.87-7.24,0-13.53-.17-18.89-.5-5.35-.33-8.12-.5-8.3-.5-3.59,0-6.77.7-9.53,2.1-2.77,1.4-4.15,3.5-4.15,6.3,0,1.09.3,2.16.91,3.19.61,1.04,1.26,1.87,1.96,2.51.7.64,1.75,1.48,3.15,2.51-1.82,2.55-2.98,4.29-3.47,5.2-3.59,0-6.22.73-7.89,2.19-1.67,1.46-2.51,3.92-2.51,7.39,0,1.52.91,3.38,2.74,5.57-.36.79-.65,1.96-.87,3.51-.21,1.55-.38,2.51-.5,2.87-.12.43-.46,1.43-1,3.01-.14.4-.26.78-.36,1.13-.3,1.03-.46,1.84-.46,2.43,0,2.01.12,3.62.36,4.83.24,1.22.88,2.5,1.92,3.83,1.04,1.34,2.11,2.48,3.24,3.42.61.51,1.47,1.21,2.57,2.08.91.72,1.98,1.56,3.23,2.53,1.68,1.31,3.67,2.29,5.93,2.98,7.06-3.82,14.87-5.78,23.24-5.78,3.09,0,6.39.37,9.88,1.1,1.52-.6,3.08-1.24,4.69-1.94,3.8-1.64,7.03-3.51,9.67-5.61,2.65-2.1,3.97-4.09,3.97-5.98s-1.14-3.75-3.42-5.43c-2.28-1.67-5.46-2.51-9.53-2.51-4.56,0-9.88,1.13-15.97,3.38-6.08,2.25-10.49,3.5-13.23,3.74,0-.42.14-1.06.41-1.92.27-.85.56-1.58.87-2.19.3-.61.49-.91.55-.91l3.19-.46c6.08-.85,10.54-1.84,13.37-2.97,2.83-1.12,6.67-3.45,11.54-6.98,1.58-1.15,2.74-2.16,3.47-3.01.73-.85,1.1-1.82,1.1-2.92,0-3.71-4.01-5.56-12.04-5.56-2.92,0-6.9.52-11.95,1.55l1.92-3.38c1.09,0,2.69-.05,4.79-.14,2.1-.09,3.66-.14,4.7-.14,1.7,0,3.77-.21,6.2-.64,2.43-.42,4.94-1.03,7.53-1.82,2.58-.79,4.77-1.92,6.57-3.38,1.79-1.46,2.69-3.04,2.69-4.74,0-2.8-2.11-5.16-6.34-7.07Z"/>
          <path class="st0" d="M199.3,129.07c-.12-.06-.23-.13-.35-.19-.15.12-.3.23-.45.35-.8.66-1.96,1.55-3.44,2.62-1.51,1.09-3.2,2.21-5.04,3.33-1.87,1.14-3.79,2.16-5.7,3.03-2.09.96-4.02,1.51-5.74,1.66-.37.03-.75.05-1.12.05-.44,0-.89-.02-1.33-.06-.94-.09-1.9-.28-2.85-.56-1.41-.42-3.82-1.68-4.13-5.49-.01-.16-.02-.33-.02-.51-.59.52-1.2,1.07-1.86,1.67-2.37,2.19-4.38,4.32-6.02,6.39-1.64,2.07-2.98,4.24-4.01,6.52-1.03,2.28-1.76,4.06-2.19,5.34-.42,1.28-.97,3.16-1.64,5.66-.97,3.65-1.46,6.91-1.46,9.76,0,.24.02.45.02.68.02.94.08,1.84.21,2.65.14.91.38,2.01.72,3.27.03.13.06.25.1.38.4,1.43.65,2.33.78,2.69.85,3.83,3.07,7.7,6.66,11.59,2.27,2.38,4.8,4.13,7.57,5.3,1.13-1.03,2.28-1.83,3.41-2.35,1.11-.5,2.4-.98,3.85-1.4,1.57-.47,3.27-.7,5.03-.7,2.31,0,4.37.4,6.13,1.19,1.68.75,3.07,1.63,4.14,2.62.04.04.08.09.12.13.24-.1.49-.21.71-.31,1.43-.67,3.27-1.61,5.52-2.83.32-.18.93-.47,1.75-.85-.61-1.34-.91-2.56-.91-3.71,0-.83.18-1.68.55-2.62.26-.65.6-1.43,1-2.33.36-.79.65-1.47.87-2.02.13-.44.34-1.11.63-2,.32-.99.64-1.91.95-2.75.15-.41.34-.84.54-1.28-1.99-.56-4.02-.86-6.11-.86-2.37,0-5.2.61-8.48,1.82-3.28,1.22-5.78,1.83-7.48,1.83-1.16,0-1.73-2.25-1.73-6.75,0-6.93.39-10.8,1.19-11.59,1.34-1.34,3.31-4.1,5.93-8.3.37,1.82,1.55,3.34,3.56,4.56,2.01,1.22,3.95,1.82,5.84,1.82.67,0,1.29-.01,1.87-.05.58-.03,1.09-.06,1.55-.09.46-.03.88-.11,1.28-.23.39-.12.71-.21.96-.27.24-.06.52-.2.82-.41.3-.21.53-.35.68-.41.15-.06.35-.23.59-.5.24-.27.41-.46.5-.55.09-.09.27-.3.55-.64.27-.33.44-.56.5-.68.12-.12.49-.55,1.09-1.28.61-.73,1.03-1.25,1.28-1.55.24-.3.61-.84,1.09-1.6.49-.76.84-1.4,1.05-1.92.21-.51.42-1.15.64-1.92.21-.76.32-1.51.32-2.24,0-2.14-.66-4.17-1.97-6.1-1.93-.63-3.68-1.61-5.21-2.93-1.31-1.13-2.4-2.49-3.28-4.07Z"/>
          <path class="st0" d="M145.28,142.62c-.39.03-.78.05-1.16.05-.42,0-.84-.02-1.25-.06-1.09-.1-2.16-.35-3.18-.73-1.31-.49-3.57-1.88-3.88-5.69-.09-1.04.03-2.29.35-3.72.21-.95.46-1.93.76-2.93-2.37,2.22-4.92,4.43-7.57,6.58-2.82,2.28-5.66,4.32-8.46,6.06-3.07,1.91-5.7,2.94-8.04,3.13-.35.03-.69.04-1.03.04-.36,0-.71-.02-1.06-.05-.49-.05-.97-.13-1.44-.25-.31.65-.55,1.26-.7,1.81-.33,1.19-.5,2.39-.5,3.6,0,3.95,1.95,8.11,5.84,12.45,3.89,4.35,8.12,7.74,12.68,10.17-3.1,2.55-6.17,3.98-9.21,4.29-.55-.55-1.45-1.09-2.69-1.64-1.25-.55-2.39-.82-3.42-.82-3.28,0-5.53.63-6.75,1.87-1.22,1.25-1.82,3.15-1.82,5.7,0,3.06.62,5.64,1.85,7.72,2.86-.5,5.79-.77,8.8-.77,4.67,0,9.84.83,15.39,2.49,1.62.51,3.36,1.22,5.18,2.1.27-.17.55-.33.81-.51,1.09-.79,2.84-1.7,5.25-2.74,2.4-1.04,4.15-2.01,5.25-2.92,2.88-2.51,4.94-5.15,6.22-7.92-.09-.32-.19-.64-.26-.97-.1-.33-.3-.98-.77-2.69l-.07-.27-.04-.14c-.37-1.37-.63-2.56-.78-3.56-.13-.85-.2-1.82-.23-2.97v-.21c-.02-.17-.02-.35-.02-.54,0-.95.07-1.95.17-2.98-1.78-2.24-3.71-4.27-5.8-6.1-2.34-2.04-4.49-3.92-6.43-5.66-1.95-1.73-2.92-2.78-2.92-3.15,0-2.31.73-4.1,2.19-5.38.55,1.58,1.76,2.9,3.65,3.97,1.88,1.07,3.95,1.6,6.2,1.6,3.52,0,6.09-.81,7.7-2.42.23-.54.49-1.11.77-1.73.35-.77.74-1.53,1.16-2.28.09-.56.14-1.16.14-1.79,0-.55-.03-1.12-.09-1.73-.06-.61-.09-.97-.09-1.09,0-.52.16-1.22.46-2.1-1.83,1.17-3.71,2.22-5.58,3.12-2.12,1.02-3.93,1.58-5.53,1.71Z"/>
          <path class="st0" d="M273.6,129.13c-1.61,1.05-3.41,1.87-5.37,2.44-.06.13-.12.24-.17.37-.18.43-.81,1.69-1.87,3.79-1.06,2.1-1.75,3.64-2.05,4.61-.49,1.46-1.03,3.57-1.64,6.34-.61,2.77-1.13,4.79-1.55,6.07-.18.55-.64,1.95-1.37,4.2-.73,2.25-1.22,3.85-1.46,4.79-.22.86-.54,2.11-.94,3.69-.04.14-.07.27-.11.42-.46,1.79-.78,3.42-.96,4.88-.18,1.46-.27,2.95-.27,4.47,0,1.22.2,2.39.59,3.51.4,1.13.75,2.01,1.05,2.65.07.15.17.32.29.5.41.62,1.09,1.45,2.08,2.51,1.28,1.37,2.16,2.28,2.65,2.74.49.46,1.76,1.63,3.83,3.51,3.95,3.59,6.99,5.78,9.12,6.57,1.64.61,3.89,1.15,6.76,1.61.14-.18.27-.35.4-.5.64-.73,1.49-1.62,2.62-2.72,1.28-1.24,2.57-2.16,3.84-2.74,1.11-.5,2.4-.98,3.85-1.4,1.57-.47,3.27-.7,5.03-.7,2.31,0,4.37.4,6.13,1.19,1.68.75,3.07,1.63,4.14,2.62.39.37.76.81,1.13,1.29,3.44-1.17,7.31-2.57,11.61-4.21.61-.23,1.17-.46,1.74-.69-.62-.5-1.14-.92-1.55-1.27-1.26-1.06-2.48-2.35-3.63-3.83-1.28-1.65-2.09-3.31-2.41-4.92-.28-1.4-.42-3.15-.42-5.35,0-.59.09-1.27.27-2.05-2.54.51-5.5,1.52-8.92,3.06-5.14,2.31-8.8,3.47-10.99,3.47-2.74,0-5.44-.26-8.12-.77-2.68-.52-4.01-1.51-4.01-2.96,0-6.45,1.22-13.23,3.65-20.34.18-.55.5-1.88.96-4.01.46-2.13.93-3.56,1.41-4.29.43-.61,1.12-1.22,2.1-1.82.97-.61,1.55-1,1.73-1.19,1.46-1.46,2.49-2.74,3.1-3.83.61-1.1.91-2.55.91-4.38,0-2.68-1.54-5.52-4.61-8.53-3.07-3.01-6.61-4.52-10.63-4.52-.59,0-1.15.01-1.69.03-.6.69-1.18,1.33-1.74,1.92-1.44,1.5-2.96,2.78-4.53,3.81Z"/>
        </g>
        <g>
          <path class="st0" d="M199.9,126.97c.12.06.23.13.35.19-.06-.11-.13-.21-.19-.32-.05.04-.11.08-.16.13Z"/>
          <path class="st0" d="M472.81,94.41c-.24-2.89-.77-5.87-2.92-6.07-.07,0-.13,0-.2,0-.06,0-.12,0-.18,0-.52.04-.63.1-2.79,2.11-1.22,1.14-2.67,2.43-4.3,3.82-1.62,1.38-3.24,2.68-4.82,3.85-1.06.78-1.78,1.19-2.25,1.41.04-.3.17-.91.54-2.03.45-1.35,1.04-2.94,1.78-4.73.75-1.82,1.55-3.74,2.4-5.77.82-1.96,1.63-3.96,2.41-5.94.75-1.93,1.36-3.69,1.82-5.22.51-1.71.71-2.89.64-3.72-.15-1.78-.92-3.17-2.29-4.14-.81-.57-1.9-.92-3.22-1.05-.38-.04-.79-.05-1.23-.05-.48,0-.98.02-1.51.07-1.29.11-2.82.75-4.69,1.96-1.69,1.09-3.56,2.47-5.55,4.09-1.96,1.6-4,3.35-6.07,5.2-2.07,1.86-3.95,3.59-5.61,5.15-1.52,1.43-2.77,2.6-3.83,3.55.45-1.24.99-2.68,1.6-4.29.74-1.95,1.5-3.95,2.27-6.03.79-2.14,1.43-3.91,1.96-5.4l.66-1.91-2.01.17-10.36.86c-1.95.16-2.48,2.67-2.68,3.62-.26,1.36-.98,2.99-2.15,4.86-1.23,1.97-2.59,3.91-4.03,5.75-1.44,1.84-2.85,3.47-4.17,4.86-1.78,1.86-2.28,2.34-2.41,2.46-.95.86-1.7,1.62-2.3,2.31-.35.29-.78.67-1.35,1.19-1.29,1.17-2.74,2.48-4.34,3.92-1.57,1.42-3.13,2.73-4.63,3.89-1.01.78-1.67,1.18-2.1,1.39.15-.57.49-1.58,1.24-3.34,1.04-2.44,2.17-5.18,3.38-8.16,1.23-3.01,2.35-6.02,3.34-8.94,1.06-3.1,1.49-5.5,1.34-7.33-.12-1.41-.78-2.64-1.98-3.65-.83-.7-1.92-1.12-3.25-1.25-.29-.03-.59-.04-.91-.04s-.65.01-.99.04c-2.15.18-4.5,1.29-7.19,3.39-2.47,1.93-5.13,4.27-7.89,6.93-2.75,2.66-5.54,5.41-8.3,8.19-1.67,1.68-3.3,3.2-4.88,4.57l5.17-16.95c1.29-2.83,2.8-6.21,4.63-10.32,1.79-4.03,3.48-8.18,5.03-12.34,1.55-4.17,2.84-8.22,3.84-12.04,1.03-3.94,1.43-7.28,1.22-9.93-.11-1.4-.61-2.64-1.45-3.69-.69-.85-1.79-1.35-3.25-1.49-.29-.03-.61-.04-.94-.04-.36,0-.74.02-1.13.05-1.59.13-3.12,1.42-4.66,3.93-1.33,2.16-2.71,4.96-4.09,8.31-1.36,3.31-2.72,7.07-4.03,11.17-1.3,4.07-2.57,8.14-3.79,12.11-1.22,3.98-2.34,7.78-3.31,11.3-.98,3.5-1.79,6.33-2.42,8.39-.15.47-.58,1.38-1.83,3.01-1.08,1.4-2.35,2.91-3.78,4.47-1.53,1.67-2.96,3.18-4.37,4.63-1.48,1.52-2.68,2.78-3.58,3.75-.07.08-.12.17-.19.26-.08.08-.16.15-.24.25-.39.46-.8.9-1.21,1.31-.68.71-1.59,1.57-2.74,2.57-1.14,1.01-2.33,2.03-3.53,3.04-1.15.97-2.21,1.8-3.15,2.48-.45.32-.76.52-.98.65.07-.25.18-.6.33-1.05.4-1.23.91-2.71,1.52-4.37.64-1.75,1.35-3.62,2.11-5.55.78-1.99,1.5-3.88,2.18-5.66l.74-1.94-2.07.17-6.71.56c-.09,0-.22.01-.38.01-.23,0-.55-.01-.96-.05-.12-.01-.24-.02-.37-.04-.93-.11-1.4-.21-1.63-.29l-1.16-.36-.45,1.12c-.78,1.96-1.87,4.17-3.23,6.56-1.36,2.39-2.83,4.66-4.38,6.74-1.52,2.06-3.13,3.84-4.76,5.31-1.49,1.33-2.87,2.06-4.12,2.16-.05,0-.1,0-.15,0s-.1,0-.15,0c-.26-.02-.6-.11-.98-.6-.48-.61-.75-1.33-.82-2.21l-.29-3.54c-.19-2.24.36-4.46,1.61-6.63,1.31-2.26,3.07-4.29,5.24-6.05,2.2-1.79,4.64-3.28,7.24-4.43,2.57-1.14,5.04-1.82,7.32-2.01.69-.06,1.36-.09,1.99-.09.59,0,1.15.03,1.68.08.87.08,1.67.24,2.38.46,2.38.74,2.85.83,3.22.87h.16c.67-.06,1.25-.43,1.56-1,.24-.43.33-.95.27-1.58-.11-1.32-.32-2.87-.63-4.61-.32-1.76-.59-3.03-.83-3.87l-.19-.65-.63-.23c-.62-.22-1.36-.37-2.25-.46-.57-.05-1.2-.08-1.9-.08-.13,0-.26,0-.4,0-1.82.03-3.49.1-4.98.23-3.59.3-7.56,1.24-11.78,2.81-4.22,1.56-8.17,3.7-11.72,6.34-3.59,2.66-6.54,5.87-8.78,9.54-1.57,2.57-2.51,5.38-2.83,8.39-.45.45-.98.93-1.59,1.45-.66.57-1.33,1.1-1.99,1.58-.65.47-1.05.57-1.23.59-.12.01-.24.02-.36.02s-.23,0-.33-.01c-.16-.02-.31-.04-.46-.18,0-.03,0-.42.48-1.78.41-1.17.82-2.63,1.22-4.34.4-1.72.77-3.69,1.08-5.85.32-2.24.38-4.66.18-7.18-.18-2.19-.77-3.97-1.74-5.28-.87-1.17-2.1-1.87-3.57-2.01-.19-.02-.38-.03-.58-.03-.19,0-.38,0-.57.02-1.71.14-3.33,1.01-4.83,2.57-1.38,1.43-2.6,3.33-3.62,5.62-1,2.25-1.78,4.87-2.3,7.79-.52,2.92-.65,6.02-.39,9.21.07.88.27,1.68.58,2.36.18.41.31,1.01.37,1.73.01.14-.02.69-.87,1.84-.76,1.02-1.69,2.03-2.76,3-1.08.99-2.23,1.87-3.4,2.62-1.38.89-2.07,1.06-2.36,1.09-.09,0-.17.01-.25.01-.07,0-.14,0-.21,0-.35-.03-.94-.09-1.06-1.63-.19-2.33.54-6,2.18-10.89,1.71-5.09,3.71-11.4,5.95-18.76.31-1.05.92-2.66,1.82-4.82.92-2.2,1.95-4.66,3.07-7.38,1.11-2.68,2.3-5.59,3.53-8.65,1.22-3.05,2.34-6.08,3.33-8.99,1-2.93,1.79-5.73,2.37-8.31.6-2.7.82-4.92.66-6.77-.12-1.5-.55-2.84-1.28-4-.48-.76-1.43-1.69-3.26-1.87-.2-.02-.42-.03-.64-.03s-.44,0-.68.03c-1.91.16-3.33.63-4.32,1.46-.92.76-1.71,1.84-2.43,3.3-.87,1.76-1.88,4.28-3.01,7.51-1.12,3.19-2.3,6.75-3.5,10.58-1.2,3.83-2.42,7.79-3.63,11.79-1.22,4.03-2.35,7.74-3.37,11.14-1.03,3.4-1.9,6.3-2.6,8.7-.93,3.15-1.21,3.86-1.29,4.01-.37.75-1.11,1.78-2.19,3.06-1.13,1.34-2.38,2.73-3.71,4.12-1.33,1.39-2.59,2.66-3.75,3.77-.3.28-.55.52-.78.73-.39.11-.72.37-1.23.85-.36.34-.81.73-1.32,1.17-.47.4-1.02.77-1.64,1.11-.55.3-1.08.47-1.63.51-.09,0-.17.01-.25.02.08-.25.17-.51.27-.78.4-1.07.57-2.08.49-3-.07-.86-.31-1.79-.73-2.75-.22-.51-.41-.96-.57-1.36.29-.38.65-.82,1.07-1.32.91-1.08,1.25-2.86,1.04-5.44-.18-2.21-.78-4.21-1.79-5.94-.99-1.7-2.22-3.14-3.65-4.27-1.45-1.14-3.09-1.97-4.89-2.45-.88-.23-1.77-.4-2.64-.48-.48-.05-.97-.07-1.45-.07-.42,0-.84.02-1.25.05-3.55.29-7.08,1.28-10.48,2.92-3.42,1.65-6.45,4.03-9.02,7.06-2.56,3.02-4.57,6.74-5.99,11.04-.84,2.55-1.35,5.36-1.53,8.38-.24.23-.49.48-.79.78-1.26,1.27-2.72,2.68-4.34,4.19-1.63,1.52-3.24,2.94-4.8,4.21-2.04,1.67-2.72,1.77-3.04,1.78-.01-.04-.03-.12-.04-.25,0-.11.02-.85.98-4.15.72-2.48,1.65-5.54,2.84-9.36,1.16-3.72,2.48-7.9,3.94-12.4,1.38-4.27,2.77-8.57,4.18-12.92l5.71-.47c1.81-.15,3.1-1.09,3.72-2.71.51-1.33.68-2.96.53-4.85-.11-1.37-.37-2.24-.82-2.81-.43-.54-1.05-.87-1.78-.94-.1,0-.21-.01-.31-.01-.1,0-.2,0-.3.01l-3.72.31c.32-1.1.69-2.31,1.1-3.62.68-2.17,1.28-4.14,1.84-6,.58-1.94,1.06-3.76,1.42-5.43.39-1.77.54-3.05.47-3.92-.14-1.66-.55-3.07-1.22-4.17-.67-1.1-1.7-1.75-2.99-1.87-.15-.01-.31-.02-.46-.02-.15,0-.3,0-.46.02-2.19.18-4.08,1.41-5.63,3.65-1.37,1.99-2.56,4.29-3.53,6.82-.96,2.5-1.74,5.06-2.32,7.61-.57,2.51-.98,4.42-1.2,5.68l-.41,2.37-6.79.56c-1.07.09-2.55.63-3.55,2.73-.69,1.44-.95,3.27-.77,5.45.21,2.57,1.61,3.08,2.43,3.16.08,0,.17.01.26.01.08,0,.16,0,.24-.01l4.7-.39-2.71,9.62c-.15.55-.6,1.6-1.95,3.61-1.14,1.7-2.49,3.54-4.02,5.47-1.55,1.97-3.12,3.86-4.65,5.62-1.52,1.75-2.84,3.12-3.94,4.07-.11.1-.2.2-.3.3-.32.25-.65.57-1,1.02-.48.6-1.08,1.25-1.79,1.92-.74.7-1.65,1.53-2.71,2.47-1.04.92-2.11,1.79-3.19,2.59-1.08.8-2.08,1.48-2.98,2.03-.05.03-.09.05-.14.08-.26.15-.48.28-.65.36.09-.22.18-.48.28-.77.02-.05.04-.1.05-.16l8.32-22.25c.73-1.82,1.29-3.19,1.66-4.08.48-1.15.67-1.88.62-2.44-.04-.46-.2-.92-.5-1.41-.26-.41-.76-.92-1.76-1.01-.11-.01-.23-.02-.35-.02s-.25,0-.38.02l-7.31.61c-.72.06-1.35.35-1.83.84-.24.24-.44.43-.81.75l-1.29,1.53-1.84,2.17-1.62,1.91-2.74,3.24c-1.56,1.84-3.16,3.71-4.8,5.61-1.64,1.89-3.14,3.55-4.51,4.98-.29.35-.99,1.1-2.63,2.72-1.34,1.32-2.77,2.67-4.23,4-1.3,1.18-2.51,2.24-3.6,3.16l8.78-23.22c.25-.64.49-1.19.69-1.65.29-.67.42-1.32.37-1.95-.1-1.24-.91-2.08-2.12-2.2-.1,0-.2-.01-.3-.01s-.2,0-.3.01l-9.02.75c-.43.04-1.21.26-1.71,1.38-.19.42-.37.88-.54,1.48-.07.35-.29,1.13-.92,2.83-.49,1.31-1,2.32-1.51,3-1.67,2.42-3.64,4.94-5.88,7.55-2.08,2.41-4.4,4.83-6.85,7.21.27-1.24.52-2.39.8-3.68l7.52-36.56c.19-.68.45-1.73.78-3.22.33-1.49.66-3.06.97-4.66.32-1.62.59-3.17.8-4.6.23-1.52.31-2.63.25-3.39-.27-3.27-1.58-5.65-3.89-7.06-1.44-.89-3.14-1.43-5.03-1.61-.48-.05-.99-.07-1.51-.07s-1.02.02-1.55.07c-4.05.34-8.03,1.51-11.82,3.48-3.71,1.93-7.32,4.41-10.71,7.36-3.36,2.93-6.61,6.26-9.65,9.9-3.04,3.63-5.86,7.42-8.37,11.24-2.52,3.83-4.85,7.64-6.91,11.33-2.07,3.69-3.83,7.09-5.26,10.15-.01.03-.08.08-.16.12-.24.12-.48.19-.72.21-.41.03-.99.1-1.83.21-.65.09-1.33.18-2.03.27l-.39.05c-.91.12-1.82.28-2.72.48-.87.19-1.66.36-2.38.5-1.32.3-2.17.58-2.72.89-.76.43-1.3,1.26-1.65,2.54l-1.59,6.03c-.24.84-.33,1.39-.29,1.82.04.45.26.9.77,1.56.62.82,1.34,1.05,1.83,1.1.07,0,.15.01.22.01.06,0,.13,0,.2,0,.26-.02.67-.09,2.3-.66.55-.19,1.69-.5,4.09-.98-.06.14-.12.29-.18.45-.54,1.35-1.19,2.93-1.93,4.75-.75,1.83-1.52,3.8-2.29,5.88-.77,2.07-1.49,4.02-2.16,5.83-.68,1.84-1.23,3.43-1.65,4.72-.66,2.04-.69,2.49-.67,2.83.08.98.74,1.67,1.67,1.76.07,0,.14,0,.21,0,.06,0,.13,0,.2,0l10.24-.85c.37-.03.75-.17,1.23-.46.65-.33,1.03-1.09,1.61-3.15.4-1.43,1.01-3.38,1.83-5.8.81-2.41,1.88-5.28,3.19-8.54,1.22-3.05,2.78-6.34,4.65-9.8.32,0,.63,0,.94,0,1.89,0,3.73.08,5.49.25,1.57.15,3.1.37,4.57.65,3.58.69,6.72,1.65,9.34,2.85,2.57,1.18,4.6,2.5,6.05,3.93,1.33,1.32,2.05,2.6,2.15,3.81.01.18.02.68-.12,2.04-.16,1.59-.14,2.2-.12,2.52.21,2.58.97,4.55,2.26,5.87.97,1,2.33,1.58,4.03,1.75.33.03.67.05,1.03.05s.74-.02,1.13-.05c4.8-.4,9.11-5.55,11.32-9.59-1.8,3.28-2.07,7.98,2.23,8.92.35.08.7.14,1.07.18.31.03.63.04.96.04.31,0,.63-.01.95-.04,2.18-.18,4.66-1.16,7.6-2.99,2.76-1.72,5.57-3.73,8.36-5.99,2.76-2.23,5.41-4.54,7.86-6.85.88-.83,1.69-1.6,2.44-2.32-.28.81-.55,1.67-.83,2.57-.42,1.36-.78,2.68-1.06,3.94-.3,1.33-.41,2.48-.33,3.42.26,3.11,1.91,4.35,3.24,4.85.93.35,1.92.57,2.93.67.38.04.77.05,1.16.05.36,0,.72-.02,1.08-.04,1.47-.12,3.17-.65,5.19-1.62,1.9-.91,3.8-1.98,5.65-3.18.27-.17.53-.35.79-.53,1.55-1.02,3.07-2.07,4.51-3.15,1.72-1.29,3.04-2.31,4.03-3.13.56-.47,1.04-.92,1.47-1.36.63-.36,1.45-1.1,2.73-2.57.69-.79,1.52-1.67,2.48-2.63-.38,1.45-.74,2.86-1.07,4.22-.49,1.96-.77,3.51-.85,4.71-.03.49-.04.93,0,1.31.25,3.06,2.01,4.2,3.43,4.63.89.26,1.79.44,2.67.52.41.04.82.06,1.23.06.35,0,.7-.01,1.04-.04,1.6-.13,3.42-.66,5.41-1.57,1.88-.86,3.77-1.86,5.6-2.98,1.82-1.1,3.49-2.21,4.98-3.29,1.47-1.06,2.61-1.93,3.48-2.65.56-.42,1.05-.82,1.5-1.2.47,1.07,1.03,2.05,1.68,2.94.61.83,1.3,1.59,2.08,2.26,1.02.88,2.15,1.59,3.37,2.14,1.51.69,3.17,1.13,4.96,1.3.59.06,1.2.08,1.82.08s1.2-.03,1.82-.08c4.22-.35,7.81-1.36,10.71-2.98.31-.17.61-.34.9-.53,2.78-1.77,5.48-4.34,8.03-7.63.61.2,1.23.34,1.85.39.25.02.51.04.76.04.22,0,.45,0,.67-.03,1.38-.11,2.66-.46,3.83-1.02.71-.34,1.54-.78,2.46-1.29.13-.07.27-.15.62-.22.82-.07,1.67-.71,3.06-2.28.33-.38.68-.74,1.04-1.1,0,.06,0,.12-.01.18-.08,1.11-.07,2.29.03,3.51.07.81.28,1.63.63,2.43.15.35.32.7.52,1.05.54.92,1.23,1.76,2.05,2.5.16.15.32.3.5.44,1.04.84,2.3,1.5,3.75,1.97.77.25,1.58.42,2.42.5.39.04.79.06,1.2.06.38,0,.77-.02,1.16-.05,2.51-.21,4.72-.59,6.55-1.12.31-.09.6-.2.9-.3,1.53-.52,2.95-1.2,4.24-2.04,1.51-.98,2.97-2.22,4.36-3.66.35-.37.71-.76,1.07-1.17.86-.96,1.75-2.02,2.68-3.19.86.37,1.69.62,2.48.76.27.05.55.08.84.11.41.04.85.06,1.31.06.5,0,1.02-.02,1.56-.07,2.05-.17,3.74-.62,5.03-1.33.69-.38,1.33-.75,1.93-1.12.75,2.39,1.84,4.37,3.28,5.89,2.02,2.15,4.45,3.37,7.21,3.63.38.04.77.05,1.16.05.37,0,.74-.02,1.12-.05l2.32-.19c3.09-.25,5.61-1.14,7.5-2.62,1.1-.86,2.21-1.87,3.32-3.01.23.92.57,1.7,1.03,2.35.75,1.06,1.98,1.68,3.64,1.84.29.03.59.04.9.04.33,0,.68-.01,1.04-.04,1.37-.11,2.83-.53,4.34-1.24,1.42-.66,2.88-1.47,4.36-2.39,1.47-.92,2.91-1.9,4.28-2.93,1.35-1.01,2.6-1.94,3.74-2.75,1.79-1.38,3.15-2.6,4.11-3.7.42-.31.88-.73,1.43-1.32-.11.4-.23.81-.34,1.23-.29,1.08-.54,2.14-.75,3.15-.23,1.12-.31,2.06-.25,2.84.24,2.88,1.84,4.61,4.52,4.87.23.02.47.03.73.03s.51-.01.77-.03c1.02-.09,2.17-.66,3.6-1.81,1.22-.98,2.62-2.29,4.16-3.88,1.52-1.57,3.18-3.35,4.93-5.29,1.76-1.95,3.67-4,5.67-6.09,4.84-5.01,8.6-8.69,11.15-10.91.63-.55,1.16-1,1.61-1.37-.3.78-.62,1.65-.96,2.59-.56,1.54-1.2,3.23-1.9,5.04-.72,1.86-1.37,3.65-1.92,5.32-.56,1.69-1.04,3.24-1.42,4.59-.43,1.53-.61,2.59-.55,3.33.19,2.34,1.15,3.97,2.86,4.86.99.52,2.07.83,3.22.94.31.03.62.04.95.04.3,0,.6-.01.91-.04,1.66-.14,3.45-.59,5.32-1.36,1.79-.74,3.58-1.66,5.31-2.73,1.68-1.05,3.33-2.15,4.9-3.27,1.58-1.13,2.96-2.21,4.1-3.21,1.15-.89,2.07-1.76,2.84-2.61.13-.1.25-.2.4-.33.14-.12.28-.25.42-.38-.1.33-.2.66-.3.99-.33,1.11-.6,2.23-.81,3.31-.23,1.17-.3,2.15-.23,3.01.09,1.12.59,2.15,1.48,3.05.73.74,1.64,1.16,2.72,1.26.17.02.35.02.53.02.17,0,.34,0,.51-.02,1.19-.1,2.38-.54,3.54-1.32,1.04-.7,2.19-1.66,3.51-2.94,1.25-1.21,2.69-2.68,4.29-4.39,1.58-1.69,3.46-3.6,5.59-5.67.56-.47,1.34-1.22,2.38-2.26,1.02-1.02,2.13-2.14,3.34-3.34,1.18-1.17,2.45-2.41,3.78-3.67,1.33-1.26,2.57-2.41,3.68-3.42.59-.54,1.14-1.03,1.64-1.47-.03.09-.07.18-.11.28-.77,2.02-1.65,4.28-2.62,6.77-.99,2.53-1.87,5-2.62,7.36-.81,2.54-1.15,4.38-1.05,5.62.24,2.83,1.76,4.15,3,4.75.94.46,2.03.75,3.24.86.41.04.84.06,1.28.06s.91-.02,1.38-.06c1.64-.14,3.59-.77,5.97-1.93,2.24-1.1,4.49-2.38,6.7-3.81,2.21-1.43,4.28-2.93,6.14-4.45,1.92-1.57,3.28-2.83,4.16-3.87.32-.38.64-.99,1.01-1.9.39-.97.5-2.37.33-4.3ZM100.79,69.59c-.28,1.3-.44,1.88-.52,2.15l-.02.06v.06s-8.98,42.73-8.98,42.73c-2.74-2.14-5.52-3.73-8.29-4.74-3.26-1.19-6.26-2-8.91-2.41-1.43-.22-2.74-.39-3.88-.5-.96-.09-1.84-.15-2.61-.16-.31,0-.58-.02-.82-.04-.01,0-.02,0-.03,0,.24-.45.63-1.12,1.25-2.14,1.23-2.03,2.84-4.54,4.8-7.47,1.98-2.96,4.26-6.17,6.78-9.53,2.5-3.35,5.12-6.51,7.78-9.38,2.63-2.85,5.26-5.29,7.81-7.26,2.25-1.73,4.24-2.73,5.94-2.97-.01.18-.07.63-.29,1.62ZM227.59,100.48c-.62.65-1.33,1.43-2.08,2.32-.83.97-1.55,2.17-2.15,3.56-.63,1.46-.86,3.3-.68,5.46.07.8.32,1.73.79,2.85.33.81.7,1.59,1.08,2.32-.15.25-.36.52-.62.78-.51.53-1.1,1.03-1.73,1.49-.6.44-1.24.8-1.89,1.07-.63.26-1.16.4-1.59.44-.26.02-.52.03-.77.03s-.49-.01-.73-.03c-1.02-.1-1.85-.4-2.54-.92-.94-.71-1.54-2.36-1.74-4.77-.21-2.59,0-5.03.66-7.25.66-2.24,1.58-4.22,2.74-5.87,1.15-1.65,2.42-2.98,3.76-3.95,1.26-.92,2.48-1.43,3.61-1.52.26-.02.51-.03.74-.03.22,0,.43,0,.62.03.87.08,1.49.34,1.88.79.68.79,1.04,1.55,1.1,2.32.02.25-.13.55-.46.89Z"/>
        </g>
      </g>
      <path class="st1" d="M101.46,183.82c-.27-2.13-.22-4.26.02-6.37-1.36-.14-2.29-.61-2.01-2.51-4.31-.47-8.47-.93-12.6-1.39-.09-.87-.15-1.48-.23-2.25-2.35-.26-4.64-.44-6.9-.81-.54-.09-1.09-.74-1.44-1.26-.73-1.08-2.17-1.7-2.16-3.27-2.44-.26-1.5-2-1.42-3.33.06-1.07.22-2.13.35-3.33-2.29-.09-2.21-1.44-1.95-2.96.2-1.2.21-2.43.43-3.62.27-1.49.36-2.81-1.73-3.02.15-1.34.2-2.56.43-3.75.31-1.57.22-2.82-1.43-2.86-1.32-1.33,1.41-3.65-1.51-4.18-1.37-.25-3.06-.73-4.09-.17-.83.45-.89,2.32-1.29,3.57-.59.11-1.19.22-1.86.35-.21,1.88-.42,3.66-.59,5.43-.16,1.6-.04,3.4-2.6,2.95-.24,2.21-.48,4.24-.68,6.27-.11,1.12-.13,2.19-1.75,2.14-.28,0-.75.75-.86,1.22-.29,1.27.17,2.98-2.05,2.89-.13,0-.26.52-.44.77-.24.34-.47.72-.79.96-.75.54-1.56,1-2.34,1.49-.11.41-.43.4-.75.39-1.34-.06-3-.93-3.4,1.42-.03.19-1,.36-1.51.32-2.36-.21-4.72-.41-7.05-.78-1.49-.24-2.49-.05-2.59,1.78-.8-.03-1.49-.03-2.18-.1-2.29-.23-4.57-.54-6.87-.71-.52-.04-1.47.29-1.53.59-.27,1.32-1.1,1.17-2.03,1.06-2.26-.26-4.53-.5-6.75-.75-.28.88-.46,1.47-.67,2.12-1.25-.13-2.1-.01-2.27,1.56-.18,1.63.1,2.6,2.08,2.63-.68,1.93.54,2.03,1.78,2.15,1.34.13,2.67.35,4.01.42,1.61.08,2.91.42,2.71,2.54,2.61.29,5.08.55,7.55.83,1.54.18,3.48-.11,2.81,2.61,4.35.48,8.47.93,12.7,1.4-.12,1.32.11,2.22,1.64,2.25,1.29.02,2.85-.06,2.72,2.03,0,.15.31.45.51.47,1.64.19,1.18,1.35,1.08,2.32-.11,1.1-.4,2.19,1.24,2.49.28.05.58,1.02.55,1.55-.09,1.64-.32,3.26-.52,5.04,2.33-.07,2.21,1.25,1.99,2.7-.2,1.26-.3,2.54-.43,3.81-.11,1.11-.56,2.34,1.21,2.68.23.04.46.85.45,1.3-.03,1.15-.26,2.29-.29,3.44-.01.52.12,1.14.41,1.55.55.75,1.26,1.37,1.91,2.04-.1.12-.2.24-.31.36,1.12.12,2.24.25,3.42.38.2-.62.36-1.15.59-1.86,2.17.52,2.24-.97,2.34-2.48.06-.89.14-1.79.32-2.66.08-.38.41-1,.63-1,1.73,0,1.63-1.25,1.75-2.38.14-1.27.33-2.54.41-3.82.09-1.48.31-2.75,2.58-2.19.33-3.01.63-5.72.83-7.59,2.95-2.46,5.33-4.44,8.16-6.8,2.37.26,5.34.62,8.32.88.52.05,1.48-.25,1.54-.53.33-1.58,1.37-1.39,2.5-1.26,2.84.33,5.68.63,8.65.96.04-1.9.99-2.13,2.26-1.99,0-.09,0-.18,0-.27-.45-1.23-.81-2.49-.98-3.85ZM96.76,185.55c-2.24-.25-4.27-.4-6.26-.71-1.55-.24-2.85-.34-2.81,1.99-3.53-.39-6.94-.76-10.49-1.15-.08,2.01-1.15,2.43-2.7,2-1.4-.39-2.18.18-2.44,1.57-.63.04-1.19.08-1.64.11-1.26,1.35.69,4.59-3.09,4.26-.25,2.25-.51,4.45-.72,6.66-.09.94-.19,1.66-1.43,1.87-.46.08-.81,1.19-1.08,1.88-.32.81.04,2.27-1.42,1.98-1.27-.25-3.27.82-3.63-1.69-.08-.53-.94-.94-1.84-1.78.18-1.66.41-3.86.67-6.06.11-.94.22-1.71-1.04-2.06-.4-.11-.81-1.04-.79-1.59.04-1.59.3-3.17.49-4.84-.68-.25-1.25-.46-1.91-.71.11-1.59-.82-2.01-2.24-2.05-1.34-.04-2.67-.33-4.01-.4-1.52-.08-2.68-.4-2.17-2.54-2.93-.32-5.7-.68-8.49-.91-1.52-.12-2.7-.4-2.28-2.47-1.33-.21-2.57-.4-3.81-.6.1-.14.2-.29.29-.43-.63-.57-1.32-1.09-1.87-1.74-.32-.38-.62-.99-.54-1.43.07-.43.57-.92,1-1.1.43-.17,1.01-.04,1.51.05,1.34.26,2.31.02,2.33-1.78,3.5.38,6.91.76,10.47,1.15.12-2.4,1.54-2.3,3.2-2.02,1.88.32,3.79.44,5.01.58,2-1.65,3.55-2.94,5.76-4.76.11-1.05.33-3.04.56-5.11.84-.08,1.46-.14,2.36-.22.24-2.17.58-4.36.69-6.57.08-1.64.75-1.97,2.29-1.79,4.76.56,4.83.51,4.37,5.27-.14,1.44.4,2,1.89,2.15-.23,2.09-.45,4.09-.69,6.24,2.28.03,2.32,1.32,2,2.87-.19.91-.29,1.81,1.02,2.03.26.04.68.37.68.56-.05,2.1,1.54,1.78,2.79,1.93,2.67.31,5.33.68,8.01.85,1.57.1,2.44.59,2.13,2.47,2.72.3,5.37.59,8.01.88-.06.22-.12.43-.17.65.62.6,1.27,1.18,1.86,1.82.27.29.58.71.56,1.06-.04,1.13-.22,2.25-.37,3.62Z"/>
      <path class="st1" d="M481.75,142.15c-.08-.3-.56-.61-.9-.67-.47-.09-.98.05-1.49.09-.37-.78-.69-1.47-1.07-2.27-1.44.31-2.77.6-4.05.87q-1.25-2.09-3.63-1.58c-2.27.48-4.56.91-6.8,1.49-1.68.44-3,.41-3.4-1.9-4.81,1.04-9.45,2.04-14.05,3.03-.41-.9-.69-1.54-1.05-2.34-2.63.57-5.15,1.19-7.71,1.6-.61.1-1.44-.41-2-.84-1.17-.9-2.94-1.05-3.5-2.74-2.72.59-2.33-1.62-2.73-3.07-.32-1.17-.52-2.37-.81-3.71-2.49.73-2.89-.76-3.16-2.49-.21-1.36-.64-2.69-.84-4.05-.25-1.7-.63-3.15-2.95-2.63-.32-1.5-.7-2.83-.88-4.18-.02-.16-.05-.31-.07-.46-2.72,3.17-6.69,5.3-10.83,5.3-.08,0-.15,0-.23-.01.1.45.19.9.29,1.34.4,1.78,1.18,3.67-1.74,4.11.53,2.47,1,4.74,1.52,6.99.28,1.24.65,2.41-1.12,2.94-.31.09-.54,1.08-.48,1.62.14,1.47,1.26,3.15-1.17,3.84-.15.04-.09.66-.19.99-.13.45-.24.95-.51,1.31-.61.85-1.32,1.63-1.98,2.45.02.48-.32.59-.66.69-1.46.42-3.56.08-3.14,2.75.03.22-.95.75-1.51.88-2.61.62-5.22,1.26-7.87,1.69-1.69.28-2.7.84-2.15,2.85-.87.25-1.62.51-2.38.68-2.55.57-5.11,1.06-7.64,1.7-.57.14-1.47.84-1.43,1.18.18,1.51-.77,1.65-1.8,1.87-.12.03-.24.05-.36.08-1.67,1.56-3.45,3-5.43,4.24-.44.28-.9.53-1.36.78,2.37.36,4.7.92,6.92,1.73,3.73-.04,7.4.96,10.43,3.16,1.01-.22,2.01-.43,3.01-.64,1.72-.36,3.71-1.37,3.96,1.8,4.86-1.05,9.45-2.04,14.16-3.05.35,1.46.91,2.35,2.57,1.83,1.39-.43,3.04-1.09,3.65,1.2.04.17.5.37.71.32,1.84-.38,1.76,1.03,2,2.1.27,1.22.36,2.5,2.23,2.23.32-.05.99.89,1.15,1.47.5,1.79.82,3.63,1.25,5.6,2.48-.91,2.83.55,3.1,2.19.24,1.43.59,2.84.91,4.25.28,1.23.24,2.72,2.26,2.44.27-.04.8.75.95,1.23.38,1.25.54,2.56.92,3.8.17.56.53,1.19,1,1.52.86.61,1.85,1.02,2.79,1.51l-.2.5c1.25-.27,2.49-.54,3.81-.82-.01-.73-.02-1.37-.04-2.21,2.52-.22,2.06-1.85,1.63-3.51-.26-.98-.49-1.98-.61-2.98-.05-.43.09-1.23.32-1.31,1.86-.62,1.3-1.94,1.03-3.19-.31-1.42-.56-2.85-.93-4.25-.43-1.62-.66-3.07,1.99-3.28-.72-3.36-1.38-6.38-1.83-8.47,2.29-3.7,4.14-6.69,6.33-10.24,2.64-.57,5.97-1.25,9.27-2.04.57-.14,1.5-.8,1.46-1.12-.21-1.82.98-1.99,2.23-2.25,3.17-.66,6.34-1.36,9.64-2.07-.7-2.24.47-2.74,2.09-3.04,2.57-.47,5.12-1.05,7.65-1.66.56-.14,1.19-.51,1.52-.97.6-.82,1-1.79,1.48-2.7.27.14.54.27.81.41-.6-1.54-.42-2.6,1.25-2.91.21-.04.48-.74.4-1.04ZM454.29,152.04c-1.75.29-3.19.66-2.31,3.15-3.94.85-7.74,1.67-11.7,2.52.64,2.19-.37,3.02-2.19,3.12-1.65.09-2.28.98-2.06,2.56-.66.27-1.25.51-1.72.7-.87,1.9,2.39,4.69-1.8,5.69.54,2.51,1.05,4.97,1.61,7.42.24,1.04.39,1.85-.87,2.52-.46.25-.44,1.57-.48,2.41-.05.99.86,2.43-.82,2.64-1.46.18-3.22,2.05-4.51-.52-.27-.54-1.34-.67-2.62-1.26-.4-1.85-.95-4.3-1.45-6.76-.21-1.05-.38-1.92-1.86-1.84-.46.03-1.25-.83-1.43-1.43-.52-1.72-.81-3.52-1.21-5.38-.82-.03-1.51-.05-2.3-.07-.45-1.75-1.6-1.87-3.14-1.4-1.45.44-2.99.6-4.45,1.01-1.66.46-3.03.53-3.24-1.95-3.27.7-6.38,1.31-9.46,2.06-1.68.41-3.05.54-3.34-1.84-1.51.25-2.91.49-4.31.72.05-.19.11-.38.16-.57-.88-.39-1.81-.7-2.63-1.2-.48-.29-1.02-.84-1.1-1.34-.07-.48.28-1.2.68-1.55.4-.34,1.07-.41,1.64-.48,1.54-.2,2.49-.8,1.86-2.75,3.9-.84,7.7-1.66,11.67-2.52-.73-2.62.83-3.03,2.72-3.33,2.13-.34,4.23-.88,5.6-1.18,1.56-2.5,2.77-4.43,4.49-7.19-.25-1.17-.73-3.39-1.23-5.69.88-.39,1.52-.67,2.46-1.08-.52-2.42-.94-4.9-1.61-7.31-.5-1.8.1-2.39,1.82-2.74,5.32-1.1,5.38-1.18,6.59,4.1.36,1.6,1.14,2,2.8,1.64.5,2.33.98,4.56,1.5,6.96,2.47-.79,2.97.59,3.18,2.37.12,1.05.34,2.06,1.83,1.82.3-.05.87.16.93.36.7,2.28,2.3,1.36,3.69,1.07,2.98-.62,5.98-1.18,8.92-1.96,1.73-.45,2.84-.24,3.17,1.89,3.04-.65,5.98-1.29,8.93-1.93.02.25.03.51.05.76.89.42,1.79.81,2.65,1.29.39.22.87.56.99.94.36,1.23.58,2.5.91,4.03-2.5.54-4.73,1.1-6.99,1.48Z"/>
      <path class="st0" d="M142.04,229.98c-2.31-2.34-5.06-4-8.26-4.97-3.19-.97-6.58-1.46-10.17-1.46-7.97,0-13.88.7-17.74,2.1-3.86,1.4-5.79,3.25-5.79,5.57,0,2.92,1.17,5.58,3.51,7.98,2.34,2.4,5.31,3.73,8.9,3.97l3.92.27c-2.31,1.64-4.23,2.46-5.75,2.46-1.7,0-3.41-.11-5.11-.32-1.7-.21-3.48-.59-5.34-1.14-1.86-.55-3.38-1.43-4.56-2.65-1.19-1.22-1.78-2.65-1.78-4.29,0-.3-.05-1.02-.14-2.14-.09-1.12-.14-2.05-.14-2.78,0-2.13.4-4.14,1.19-6.02,1.52-3.47,4.04-6.67,7.57-9.62,3.53-2.95,6.75-4.42,9.67-4.42,1.7,0,3.48.5,5.34,1.51,1.85,1,3,2.08,3.42,3.24.49,1.16,1.56,1.87,3.24,2.14,1.67.27,4.55.41,8.62.41,1.58,0,4.29-1.25,8.12-3.74,1.64-1.15,2.84-2.17,3.6-3.06.76-.88,1.14-1.99,1.14-3.33,0-2.19-1.13-4.42-3.38-6.71-2.25-2.28-4.64-4.11-7.16-5.47-2.52-1.37-4.85-2.39-6.98-3.06-5.29-1.58-10.16-2.37-14.6-2.37-8.21,0-15.75,1.93-22.63,5.79-6.87,3.86-12.26,8.97-16.15,15.33-3.89,6.36-5.84,13.15-5.84,20.39,0,6.69,1.75,12.53,5.25,17.52,3.5,4.99,8.03,8.68,13.59,11.09,5.57,2.4,11.69,3.6,18.38,3.6,2.25,0,6.87-.94,13.87-2.83.67-.18,1.72-.41,3.15-.68,1.43-.27,2.75-.59,3.97-.96,1.22-.37,2.4-.82,3.56-1.37,2.27-1.09,4.37-2.68,6.31-4.75,0-.02,0-.04.02-.06.26-.65.6-1.43,1-2.33.18-.4.34-.76.48-1.1.14-.34.27-.64.38-.92.03-.11.07-.24.11-.37.13-.42.3-.96.51-1.63.32-.99.64-1.91.95-2.75.35-.93.77-1.86,1.25-2.76.01-.03.03-.06.05-.1,0,0,0-.02.01-.02.02-.03.04-.07.06-.11,0-.02.02-.04.03-.06.02-.05.05-.1.08-.15,0-.02.02-.03.02-.05.04-.07.08-.16.12-.25,0,0,0-.01,0-.02.05-.1.11-.22.17-.35,0-.02.02-.04.03-.05.05-.1.11-.22.16-.34.02-.05.05-.1.07-.15.06-.12.11-.24.18-.37.02-.04.04-.07.05-.11.08-.16.16-.34.25-.53,0-.02.02-.04.03-.06.2-.42.43-.9.69-1.44.05-.1.1-.2.14-.3.09-.19.18-.38.28-.59.05-.11.11-.23.16-.34.1-.21.21-.43.31-.66.05-.09.09-.19.14-.29.11-.23.23-.48.34-.72.08-.17.16-.33.24-.51-.47-2.15-1.52-4.07-3.17-5.74Z"/>
      <path class="st0" d="M432.34,263.55c3.28-1.13,6.83-2.51,10.63-4.15,3.8-1.64,7.03-3.51,9.67-5.61,2.65-2.1,3.97-4.09,3.97-5.98s-1.14-3.75-3.42-5.43c-2.28-1.67-5.46-2.51-9.53-2.51-4.56,0-9.88,1.13-15.97,3.38-6.08,2.25-10.49,3.5-13.23,3.74,0-.42.14-1.06.41-1.92.27-.85.56-1.58.87-2.19.3-.61.49-.91.55-.91l3.19-.46c6.08-.85,10.54-1.84,13.37-2.97,2.83-1.12,6.67-3.45,11.54-6.98,1.58-1.15,2.74-2.16,3.47-3.01.73-.85,1.1-1.82,1.1-2.92,0-3.71-4.01-5.57-12.04-5.57-2.92,0-6.9.52-11.95,1.55l1.92-3.38c1.09,0,2.69-.05,4.79-.14,2.1-.09,3.66-.14,4.7-.14,1.7,0,3.77-.21,6.2-.64,2.43-.42,4.94-1.03,7.53-1.82,2.58-.79,4.77-1.92,6.57-3.38,1.79-1.46,2.69-3.04,2.69-4.74,0-2.8-2.11-5.16-6.34-7.07-4.23-1.92-9.53-2.87-15.92-2.87-7.24,0-13.53-.17-18.89-.5-5.35-.33-8.12-.5-8.3-.5-3.59,0-6.77.7-9.53,2.1-2.77,1.4-4.15,3.5-4.15,6.3,0,1.09.3,2.16.91,3.19.61,1.04,1.26,1.87,1.96,2.51.7.64,1.75,1.48,3.15,2.51-1.82,2.55-2.98,4.29-3.47,5.2-3.59,0-6.22.73-7.89,2.19-1.67,1.46-2.51,3.92-2.51,7.39,0,1.52.91,3.38,2.74,5.57-.36.79-.65,1.96-.87,3.51-.15,1.1-.28,1.88-.38,2.38.04-.31.06-.61.06-.88,0-3.28-1.16-6.1-3.47-8.44-2.31-2.34-5.06-4-8.26-4.97-3.19-.97-6.58-1.46-10.17-1.46-7.97,0-13.88.7-17.74,2.1-3.86,1.4-5.79,3.25-5.79,5.57,0,2.92,1.17,5.58,3.51,7.98,2.34,2.4,5.31,3.73,8.9,3.97l3.92.27c-2.31,1.64-4.23,2.46-5.75,2.46-1.7,0-3.41-.11-5.11-.32-1.7-.21-3.48-.59-5.34-1.14-1.86-.55-3.38-1.43-4.56-2.65-1.19-1.22-1.78-2.65-1.78-4.29,0-.3-.05-1.02-.14-2.14-.09-1.12-.14-2.05-.14-2.78,0-2.13.4-4.14,1.19-6.02,1.52-3.47,4.04-6.67,7.57-9.62,3.53-2.95,6.75-4.42,9.67-4.42,1.7,0,3.48.5,5.34,1.51,1.85,1,3,2.08,3.42,3.24.49,1.16,1.56,1.87,3.24,2.14,1.67.27,4.55.41,8.62.41,1.58,0,4.29-1.25,8.12-3.74,1.64-1.15,2.84-2.17,3.6-3.06.76-.88,1.14-1.99,1.14-3.33,0-2.19-1.13-4.42-3.38-6.71-2.25-2.28-4.64-4.11-7.16-5.47-2.52-1.37-4.85-2.39-6.98-3.06-5.29-1.58-10.16-2.37-14.6-2.37-8.21,0-15.75,1.93-22.63,5.79-6.87,3.86-12.26,8.97-16.15,15.33-3.24,5.29-5.11,10.89-5.65,16.79-.03-1.96-.06-3.62-.09-4.98-.06-2.25-.21-4.9-.46-7.94-.24-3.04-.61-5.53-1.09-7.48-.55-2.31-.97-4.03-1.28-5.16-.31-1.12-.84-2.54-1.6-4.24-.76-1.7-1.57-2.95-2.42-3.74-.85-.79-1.99-1.51-3.42-2.14-1.43-.64-3.12-.96-5.06-.96-1.52,0-2.95.2-4.29.59-1.34.4-2.51.82-3.51,1.28-1,.46-2.04,1.2-3.1,2.23-1.06,1.04-1.89,1.89-2.46,2.55-.58.67-1.31,1.75-2.19,3.24-.88,1.49-1.49,2.55-1.82,3.19-.34.64-.93,1.81-1.78,3.51-.85,1.7-1.37,2.77-1.55,3.19-.79,1.64-2.36,4.67-4.7,9.08-2.34,4.41-4.09,7.86-5.25,10.36-3.47,7.3-5.38,11.28-5.75,11.95-.43.79-.79,1.6-1.1,2.42-.3.82-.61,1.7-.91,2.65-.3.94-.52,1.63-.64,2.05-.24.61-.56,1.36-.96,2.24-.4.88-.71,1.63-.96,2.24-.24.61-.37,1.16-.37,1.64,0,.81.26,1.74.75,2.77-1.75-.95-3.64-2.24-5.72-3.91-4.78-3.86-8.87-7.83-12.27-11.91.79-.55,3.01-2.04,6.66-4.47,3.65-2.43,6.42-4.55,8.3-6.34,1.88-1.79,3.34-3.82,4.38-6.07.37-.79.96-1.99,1.78-3.6.82-1.61,1.46-2.9,1.92-3.88.46-.97.88-2.2,1.28-3.7.4-1.49.59-2.96.59-4.42,0-7.05-3.86-12.83-11.59-17.33-7.72-4.5-17.55-6.75-29.47-6.75-3.16,0-6.48.58-9.94,1.73-3.47,1.16-6.4,2.77-8.8,4.83-2.4,2.07-3.6,4.2-3.6,6.39,0,.91-.37,2.19-1.1,3.83-.73,1.64-1.09,2.95-1.09,3.92,0,8.09,3.74,12.23,11.22,12.41-.61,1.46-2.02,4.21-4.24,8.26-2.22,4.05-3.54,7.16-3.97,9.35-.31,1.64-1.05,3.38-2.24,5.2-1.19,1.82-1.81,2.83-1.87,3.01-.05.16-.36.78-.88,1.82-.07-.73-.2-1.64-.39-2.78-.3-1.73-.49-3.09-.55-4.06,0-1.28-.02-3.88-.05-7.8-.03-3.92-.08-7.01-.14-9.26-.06-2.25-.21-4.9-.46-7.94-.24-3.04-.61-5.53-1.09-7.48-.55-2.31-.97-4.03-1.28-5.16-.31-1.12-.84-2.54-1.6-4.24-.76-1.7-1.57-2.95-2.42-3.74-.85-.79-1.99-1.51-3.42-2.14-1.43-.64-3.12-.96-5.06-.96-1.52,0-2.95.2-4.29.59-1.34.4-2.51.82-3.51,1.28-1,.46-2.04,1.2-3.1,2.23-1.06,1.04-1.89,1.89-2.46,2.55-.58.67-1.31,1.75-2.19,3.24-.88,1.49-1.49,2.55-1.82,3.19-.33.64-.93,1.81-1.78,3.51-.85,1.7-1.37,2.77-1.55,3.19-.79,1.64-2.36,4.67-4.7,9.08-2.34,4.41-4.09,7.86-5.25,10.36-3.47,7.3-5.38,11.28-5.75,11.95-.43.79-.79,1.6-1.1,2.42-.3.82-.61,1.7-.91,2.65-.3.94-.52,1.63-.64,2.05-.24.61-.56,1.36-.96,2.24-.4.88-.71,1.63-.96,2.24-.24.61-.37,1.16-.37,1.64,0,2.01,1.51,4.71,4.52,8.12,3.01,3.41,5.58,5.11,7.71,5.11,7.36,0,13.38-6.24,18.06-18.7l1.82.27c2.37,4.56,6.63,6.84,12.77,6.84,3.95,0,7.1-.88,9.44-2.65.33-.25.64-.52.92-.79-.09.65-.15,1.31-.15,1.97,0,2.43,1.32,4.73,3.97,6.89,2.65,2.16,5.64,3.24,8.99,3.24,5.41,0,9.76-3.32,13.05-9.94,6.81,8.21,12.73,13.81,17.74,16.79,5.02,2.98,11.81,4.96,20.39,5.93.18,0,.97.17,2.37.5,1.4.33,2.25.5,2.56.5,3.95,0,7.69-1.04,11.22-3.1,3.53-2.07,5.29-4.56,5.29-7.48,0-1.53-.56-2.89-1.64-4.08,3.38-3.09,6.36-8.04,8.94-14.9l1.82.27c2.37,4.56,6.63,6.84,12.77,6.84,3.95,0,7.1-.88,9.44-2.65,2.34-1.76,3.51-4.04,3.51-6.84,0-.79-.15-2.05-.46-3.79-.3-1.73-.49-3.09-.55-4.06,0-.85,0-2.31-.02-4.35.59,4.99,2.24,9.45,4.99,13.38,3.5,4.99,8.03,8.68,13.59,11.09,5.57,2.4,11.69,3.6,18.38,3.6,2.25,0,6.87-.94,13.87-2.83.67-.18,1.72-.41,3.15-.68,1.43-.27,2.75-.59,3.97-.96,1.22-.37,2.4-.82,3.56-1.37,4.2-2.01,7.81-5.69,10.86-11.04,1.05-1.85,1.9-3.5,2.55-4.97-.3,1.02-.45,1.83-.45,2.41,0,2.01.12,3.62.37,4.83.24,1.22.88,2.5,1.92,3.83,1.04,1.34,2.11,2.48,3.24,3.42,1.12.94,3.06,2.48,5.79,4.61,3.53,2.74,8.33,4.11,14.41,4.11.67,0,1.69-.2,3.06-.59,1.37-.4,2.42-.59,3.15-.59.24,0,.7.03,1.37.09.67.06,1.12.09,1.37.09.37,0,.91-.06,1.64-.18,2.13-.49,4.84-1.29,8.12-2.42ZM175.87,239.13l-8.44-1.5,8.44-19.51v21.01ZM232.27,225.56c.06-.18.49-1.26,1.28-3.24.79-1.98,1.19-3.33,1.19-4.06,0-1.7-.91-3.59-2.74-5.66-1.82-2.07-4.53-3.1-8.12-3.1-1.16,0-2.19.15-3.1.46.79-2.07,2.46-3.1,5.02-3.1,2.92,0,6.25.62,9.99,1.87,3.74,1.25,5.61,2.78,5.61,4.61,0,1.52-1,3.71-3.01,6.57-2.01,2.86-4.05,4.75-6.11,5.66ZM294.62,237.84l-8.61-1.53,8.61-19.89v21.42Z"/>
    </g>
    <path class="st0" d="M478.14,64.22c0,3.18-2.24,5.5-5.23,5.5s-5.28-2.21-5.28-5.5,2.27-5.46,5.28-5.46,5.23,2.29,5.23,5.46ZM468.53,64.27c0,2.66,1.87,4.6,4.36,4.6s4.34-1.76,4.34-4.65c0-2.7-1.83-4.64-4.34-4.64s-4.36,1.73-4.36,4.68ZM475.5,65.26c-.29,1.2-1.12,2.03-2.53,2.03-1.64,0-2.78-1.26-2.78-3.07s1.07-3.12,2.79-3.12,2.41,1.07,2.53,2.04h-1.06c-.15-.58-.55-1.12-1.47-1.12-.98,0-1.69.75-1.69,2.15s.71,2.16,1.69,2.16c.75,0,1.23-.37,1.47-1.06l1.04-.02Z"/>
  </g>
  <g>
    <path class="st0" d="M151.36,250.37c-.2,0-.4-.03-.6-.11-.93-.34-1.43-1.34-1.09-2.28l.02-.05c.27-.72.96-1.17,1.69-1.17.21,0,.41.04.62.11.93.35,1.41,1.36,1.07,2.29-.27.74-.97,1.21-1.72,1.21h0Z"/>
    <path d="M151.39,248.55s-.02.04-.02.06c0-.02.02-.04.02-.06"/>
  </g>
</svg>