<?xml version="1.0" encoding="UTF-8"?>
<svg id="Layer_1" xmlns="http://www.w3.org/2000/svg" version="1.1" viewBox="0 0 493.66 309.46">
  <!-- Generator: Adobe Illustrator 30.2.1, SVG Export Plug-In . SVG Version: 2.1.1 Build 1)  -->
  <defs>
    <style>
      .st0 {
        fill: #fff;
      }
    </style>
  </defs>
  <g>
    <path class="st0" d="M143.45,242.64s-.02.04-.03.06c0-.02.02-.04.03-.06Z"/>
    <path class="st0" d="M142.52,244.6s0,.01,0,.02c0,0,0-.01,0-.02Z"/>
    <path class="st0" d="M142.29,245.08s-.02.04-.03.06c0-.02.02-.04.03-.06Z"/>
    <path class="st0" d="M142.21,245.25s0,.02-.01.02c0,0,0-.02.01-.02Z"/>
    <path class="st0" d="M142.39,244.87s-.02.03-.02.05c0-.02.02-.03.02-.05Z"/>
    <path class="st0" d="M144.26,240.89c-.05.1-.1.21-.14.3.05-.1.09-.2.14-.3Z"/>
    <path class="st0" d="M143.17,243.23s-.04.08-.05.11c.02-.04.03-.07.05-.11Z"/>
    <path class="st0" d="M145.14,239c-.05.1-.09.19-.13.29.04-.1.09-.19.13-.29Z"/>
    <path class="st0" d="M144.7,239.95c-.05.12-.11.23-.16.35.05-.11.11-.23.16-.35Z"/>
    <path class="st0" d="M142.95,243.71c-.02.05-.05.1-.07.15.02-.05.05-.1.07-.15Z"/>
    <path class="st0" d="M142.71,244.2s-.02.04-.03.05c0-.02.02-.04.03-.05Z"/>
    <g>
      <g>
        <path class="st0" d="M248.86,127.4c-.49-.81-.83-1.64-1.06-2.48-.51-.29-1.05-.57-1.66-.84-.21-.09-.45-.16-.67-.24-.32.15-.65.27-.99.3-.01,0-.03,0-.04,0-1.02.59-1.93,1.08-2.69,1.46-1.27.63-2.67,1.02-4.17,1.17-.25.02-.5.04-.75.04-.29,0-.57,0-.86-.03-.47-.04-.93-.11-1.4-.23-2.47,3.17-5.08,5.67-7.79,7.44-.73.48-1.51.91-2.34,1.3-.28.5-.5.91-.66,1.22-.33.64-.91,1.83-1.74,3.54-.83,1.72-1.34,2.79-1.52,3.22-.77,1.66-2.31,4.71-4.6,9.15-2.3,4.45-4.01,7.93-5.13,10.44-3.39,7.36-5.26,11.37-5.62,12.05-.18.35-.35.71-.51,1.07-.2.45-.39.91-.56,1.37-.29.83-.59,1.71-.88,2.66-.29.95-.5,1.64-.62,2.06-.24.61-.55,1.37-.93,2.25-.39.89-.7,1.64-.93,2.25-.24.61-.35,1.16-.35,1.65,0,.78.25,1.66.71,2.64.43.91,1.08,1.93,1.9,3.02,2.61-2.27,5.81-4.08,9.52-5.37,3.71-1.29,7.34-1.96,10.78-2,1.95-.02,3.82.04,5.67.13.59-1.33,1.16-2.75,1.71-4.27l1.83.25c1.16,2.16,2.75,3.78,4.75,4.9,2.68.45,5.23,1.04,7.65,1.79.17,0,.32.02.48.02,3.96-.05,7.11-.97,9.43-2.77.65-.5,1.19-1.05,1.65-1.63-.31-.38-.59-.74-.8-1.05-.2-.3-.36-.56-.48-.81-.35-.72-.74-1.67-1.19-2.9-.51-1.4-.78-2.87-.8-4.38-.02-1.63.06-3.25.24-4.81.18-1.56.5-3.32.96-5.23l.1-.42c.39-1.59.69-2.84.9-3.71.25-1.01.72-2.62,1.44-4.93-.02-.72-.05-1.38-.07-1.97-.09-2.25-.27-4.9-.55-7.95-.28-3.05-.68-5.54-1.19-7.49-.58-2.31-1.02-4.03-1.34-5.15-.23-.81-.59-1.78-1.06-2.89-.34-.21-.66-.44-.97-.68-1.15-.9-2.1-1.97-2.83-3.18ZM237.97,170.99l-9.02-1.49,8.75-20.91.27,22.4Z"/>
        <path class="st0" d="M382.17,128.49c-4.26-1.87-9.59-2.77-15.99-2.69-7.25.09-13.57,0-18.93-.28-5.37-.27-8.14-.41-8.33-.4-3.6.04-6.77.78-9.53,2.22-2.76,1.44-4.12,3.56-4.08,6.36.01,1.1.33,2.16.95,3.19.62,1.03,1.29,1.86,2,2.49.71.63,1.77,1.46,3.18,2.48-1.8,2.58-2.94,4.33-3.41,5.25-3.6.04-6.23.81-7.88,2.29-1.66,1.48-2.47,3.96-2.43,7.44.02,1.52.96,3.37,2.81,5.54-.36.8-.63,1.97-.83,3.53-.19,1.56-.35,2.52-.47,2.89-.12.43-.44,1.44-.97,3.03-.13.4-.25.78-.35,1.13-.29,1.04-.44,1.85-.43,2.44.02,2.01.17,3.63.42,4.84.26,1.22.91,2.49,1.97,3.82,1.05,1.33,2.15,2.46,3.29,3.39.62.51,1.49,1.2,2.6,2.05.92.71,2,1.54,3.26,2.5,1.7,1.29,3.7,2.25,5.98,2.91,7.03-3.92,14.84-5.97,23.22-6.07,3.1-.04,6.41.3,9.91.98,1.52-.62,3.07-1.28,4.68-2,3.79-1.69,7-3.6,9.63-5.74,2.63-2.13,3.93-4.15,3.91-6.04s-1.19-3.75-3.49-5.4c-2.31-1.65-5.5-2.45-9.59-2.4-4.57.05-9.89,1.25-15.96,3.57-6.07,2.33-10.47,3.63-13.21,3.91,0-.42.12-1.07.39-1.92.26-.86.54-1.59.84-2.2.3-.61.48-.92.54-.92l3.19-.5c6.08-.93,10.54-1.97,13.36-3.13,2.82-1.16,6.65-3.54,11.48-7.13,1.57-1.18,2.72-2.2,3.44-3.06.72-.86,1.08-1.84,1.06-2.94-.04-3.72-4.09-5.53-12.14-5.43-2.93.03-6.91.6-11.96,1.7l1.88-3.41c1.1-.01,2.7-.08,4.8-.19,2.1-.12,3.67-.18,4.71-.19,1.71-.02,3.78-.26,6.21-.72,2.43-.45,4.94-1.09,7.52-1.92,2.58-.82,4.76-1.98,6.54-3.46,1.78-1.48,2.66-3.08,2.64-4.79-.03-2.8-2.18-5.14-6.44-7.01Z"/>
        <path class="st0" d="M198.64,130.22c-.12-.06-.24-.13-.35-.19-.15.12-.3.24-.45.35-.79.68-1.94,1.57-3.42,2.67-1.5,1.11-3.19,2.26-5.02,3.4-1.86,1.16-3.77,2.21-5.68,3.11-2.08.98-4.01,1.57-5.73,1.73-.37.03-.75.05-1.12.06-.44,0-.89-.01-1.33-.05-.95-.08-1.91-.26-2.86-.53-1.42-.4-3.85-1.64-4.21-5.45-.02-.16-.02-.33-.03-.51-.59.53-1.19,1.08-1.85,1.7-2.35,2.22-4.34,4.38-5.96,6.47-1.62,2.09-2.94,4.29-3.95,6.59-1.01,2.3-1.72,4.09-2.13,5.38-.41,1.29-.94,3.18-1.58,5.69-.93,3.67-1.38,6.94-1.35,9.8,0,.24.02.45.03.68.04.95.11,1.84.24,2.65.15.91.41,2.01.76,3.27.04.13.07.25.11.38.41,1.43.68,2.32.81,2.69.9,3.83,3.17,7.68,6.81,11.53,2.3,2.36,4.86,4.08,7.65,5.22,1.12-1.05,2.26-1.86,3.39-2.39,1.1-.52,2.4-1.01,3.84-1.45,1.57-.49,3.26-.74,5.04-.76,2.31-.03,4.39.35,6.16,1.12,1.69.73,3.1,1.6,4.18,2.57.04.04.08.09.12.13.24-.11.49-.21.71-.32,1.42-.69,3.26-1.65,5.5-2.9.32-.18.92-.48,1.75-.87-.63-1.34-.94-2.55-.96-3.71,0-.83.16-1.69.52-2.63.25-.65.58-1.44.97-2.35.35-.8.63-1.48.85-2.03.13-.45.33-1.12.6-2.02.31-.99.62-1.92.92-2.77.15-.41.33-.84.52-1.29-2-.54-4.04-.81-6.13-.79-2.38.03-5.2.67-8.48,1.93-3.28,1.26-5.77,1.9-7.48,1.92-1.16.01-1.76-2.23-1.82-6.75-.08-6.95.27-10.82,1.05-11.63,1.32-1.36,3.27-4.15,5.84-8.39.39,1.82,1.59,3.33,3.62,4.53,2.03,1.2,3.98,1.78,5.87,1.76.67,0,1.29-.03,1.87-.07.58-.04,1.1-.07,1.55-.11.46-.04.88-.12,1.28-.24.39-.13.71-.22.96-.29.24-.06.51-.2.82-.42.3-.22.53-.36.68-.42.15-.06.35-.23.59-.51.24-.28.41-.46.5-.56.09-.09.27-.31.54-.65.27-.34.43-.57.5-.69.12-.12.48-.55,1.08-1.29.6-.74,1.02-1.26,1.26-1.57.24-.31.6-.84,1.08-1.61.48-.77.82-1.41,1.03-1.93.21-.52.41-1.16.62-1.93.2-.76.3-1.51.29-2.24-.03-2.14-.71-4.18-2.05-6.09-1.94-.61-3.7-1.57-5.26-2.87-1.32-1.11-2.43-2.47-3.33-4.04Z"/>
        <path class="st0" d="M144.66,144.45c-.39.04-.78.06-1.16.06-.42,0-.84,0-1.25-.04-1.1-.09-2.17-.32-3.19-.69-1.32-.47-3.6-1.84-3.96-5.66-.1-1.04,0-2.3.3-3.73.2-.95.44-1.94.72-2.95-2.35,2.25-4.88,4.5-7.51,6.68-2.8,2.32-5.63,4.4-8.4,6.18-3.05,1.95-5.67,3.01-8.02,3.23-.35.03-.69.05-1.03.06-.36,0-.72,0-1.06-.04-.49-.04-.98-.12-1.45-.23-.3.66-.53,1.27-.68,1.82-.32,1.19-.47,2.4-.46,3.62.05,3.96,2.05,8.1,6,12.41,3.95,4.31,8.23,7.66,12.83,10.04-3.08,2.6-6.14,4.07-9.18,4.41-.56-.54-1.46-1.08-2.72-1.61-1.26-.53-2.4-.79-3.44-.78-3.29.04-5.54.69-6.74,1.96-1.2,1.27-1.79,3.18-1.76,5.74.04,3.07.69,5.64,1.95,7.72,2.86-.53,5.8-.84,8.81-.87,4.68-.06,9.87.72,15.45,2.31,1.63.49,3.38,1.18,5.21,2.04.27-.17.55-.34.8-.52,1.09-.81,2.83-1.74,5.22-2.81,2.4-1.07,4.14-2.06,5.22-2.99,2.86-2.55,4.89-5.22,6.13-8.01-.09-.32-.2-.64-.28-.96-.11-.33-.31-.98-.81-2.68l-.07-.27-.04-.14c-.38-1.37-.66-2.56-.82-3.56-.14-.85-.23-1.83-.27-2.97v-.22c-.02-.18-.03-.35-.03-.54-.01-.95.04-1.96.13-2.99-1.81-2.22-3.76-4.24-5.88-6.04-2.37-2.01-4.54-3.88-6.51-5.59-1.97-1.71-2.96-2.75-2.96-3.12-.03-2.32.68-4.12,2.13-5.42.57,1.58,1.8,2.89,3.7,3.93,1.9,1.05,3.98,1.55,6.24,1.53,3.53-.04,6.09-.88,7.69-2.51.23-.54.48-1.12.75-1.74.34-.78.73-1.54,1.13-2.3.08-.56.12-1.16.12-1.8,0-.55-.04-1.13-.11-1.74-.07-.61-.1-.97-.1-1.1,0-.52.14-1.23.43-2.11-1.82,1.19-3.69,2.27-5.55,3.2-2.12,1.05-3.92,1.63-5.52,1.78Z"/>
        <path class="st0" d="M273.1,129.4c-1.6,1.07-3.4,1.92-5.35,2.51-.06.13-.11.24-.17.37-.18.43-.79,1.7-1.83,3.82-1.04,2.12-1.71,3.66-2,4.64-.47,1.47-.99,3.59-1.57,6.37-.58,2.78-1.07,4.81-1.48,6.1-.18.55-.62,1.96-1.32,4.22-.7,2.26-1.17,3.87-1.41,4.82-.21.87-.52,2.12-.9,3.71-.03.14-.07.27-.1.42-.44,1.8-.74,3.44-.9,4.9-.17,1.46-.24,2.96-.22,4.48.01,1.22.23,2.39.64,3.51.41,1.12.77,2,1.08,2.64.07.15.18.32.3.5.41.62,1.11,1.44,2.11,2.49,1.3,1.36,2.19,2.26,2.68,2.71.49.45,1.79,1.61,3.88,3.47,4,3.55,7.08,5.71,9.22,6.47,1.65.6,3.92,1.11,6.79,1.54.14-.18.27-.36.4-.51.63-.74,1.48-1.64,2.59-2.76,1.26-1.26,2.55-2.2,3.82-2.79,1.1-.52,2.4-1.01,3.84-1.45,1.57-.49,3.26-.74,5.04-.76,2.31-.03,4.39.35,6.16,1.12,1.69.73,3.1,1.6,4.18,2.57.4.36.78.8,1.14,1.28,3.44-1.21,7.29-2.66,11.59-4.36.61-.23,1.17-.47,1.73-.71-.63-.49-1.16-.91-1.57-1.25-1.28-1.05-2.52-2.32-3.68-3.79-1.3-1.64-2.13-3.29-2.48-4.91-.3-1.4-.45-3.16-.48-5.35,0-.59.08-1.27.25-2.06-2.54.54-5.5,1.59-8.9,3.17-5.12,2.38-8.78,3.58-10.98,3.61-2.74.03-5.46-.19-8.15-.68-2.69-.49-4.04-1.46-4.06-2.92-.08-6.46,1.06-13.27,3.41-20.43.18-.55.48-1.89.91-4.04.43-2.14.89-3.58,1.37-4.31.42-.61,1.11-1.23,2.08-1.85.97-.62,1.54-1.03,1.72-1.21,1.44-1.48,2.47-2.77,3.06-3.88.6-1.1.88-2.57.86-4.4-.03-2.68-1.61-5.51-4.72-8.49-3.11-2.98-6.68-4.45-10.71-4.4-.59,0-1.15.03-1.69.05-.59.7-1.16,1.35-1.72,1.95-1.42,1.52-2.94,2.83-4.5,3.87Z"/>
      </g>
      <g>
        <path class="st0" d="M199.21,128.11c.12.06.24.13.35.19-.06-.11-.13-.21-.19-.32-.05.04-.11.09-.16.13Z"/>
        <path class="st0" d="M472.35,92.21c-.27-2.89-.85-5.87-3-6.05-.07,0-.13,0-.2,0-.06,0-.12,0-.18,0-.52.05-.63.11-2.77,2.15-1.21,1.16-2.65,2.46-4.27,3.88-1.6,1.4-3.21,2.72-4.79,3.91-1.05.8-1.77,1.22-2.24,1.44.04-.3.16-.91.52-2.04.43-1.36,1.01-2.96,1.73-4.76.73-1.83,1.51-3.77,2.34-5.82.8-1.98,1.59-3.99,2.34-5.98.73-1.94,1.32-3.71,1.76-5.26.49-1.72.68-2.91.6-3.74-.17-1.78-.96-3.17-2.34-4.12-.82-.56-1.91-.9-3.24-1.01-.38-.03-.8-.05-1.23-.04-.48,0-.98.03-1.52.08-1.29.12-2.82.78-4.68,2.02-1.68,1.12-3.54,2.52-5.52,4.17-1.94,1.63-3.97,3.4-6.02,5.29-2.05,1.89-3.92,3.65-5.56,5.23-1.5,1.45-2.75,2.63-3.79,3.61.44-1.25.96-2.69,1.55-4.31.72-1.96,1.45-3.98,2.2-6.07.77-2.15,1.39-3.93,1.9-5.44l.64-1.92-2.01.19-10.38.99c-1.95.18-2.45,2.71-2.64,3.66-.25,1.36-.95,3-2.1,4.9-1.21,1.99-2.55,3.95-3.98,5.81-1.43,1.86-2.81,3.51-4.12,4.92-1.76,1.89-2.26,2.38-2.39,2.5-.94.87-1.68,1.64-2.27,2.34-.35.3-.78.68-1.34,1.21-1.28,1.19-2.71,2.52-4.3,3.98-1.56,1.44-3.11,2.77-4.59,3.95-1,.79-1.66,1.2-2.08,1.42.14-.57.47-1.59,1.2-3.37,1.01-2.46,2.12-5.22,3.29-8.21,1.19-3.03,2.28-6.06,3.24-9,1.02-3.12,1.43-5.53,1.26-7.36-.13-1.41-.82-2.64-2.02-3.64-.84-.69-1.94-1.1-3.27-1.21-.29-.02-.59-.03-.91-.03s-.65.02-1,.05c-2.15.2-4.5,1.34-7.17,3.48-2.46,1.97-5.09,4.34-7.82,7.04-2.72,2.7-5.49,5.49-8.22,8.31-1.65,1.7-3.27,3.25-4.84,4.64l4.97-17.05c1.26-2.85,2.73-6.25,4.52-10.4,1.75-4.07,3.39-8.24,4.89-12.42,1.5-4.2,2.75-8.27,3.7-12.11.98-3.96,1.35-7.31,1.1-9.96-.13-1.4-.64-2.64-1.5-3.68-.7-.84-1.81-1.33-3.28-1.46-.29-.02-.61-.03-.94-.03-.36,0-.74.03-1.14.06-1.59.15-3.11,1.46-4.63,4-1.31,2.19-2.65,5-4,8.38-1.33,3.33-2.64,7.12-3.91,11.25-1.25,4.09-2.48,8.19-3.65,12.18-1.18,4.01-2.25,7.83-3.18,11.36-.94,3.52-1.72,6.36-2.33,8.44-.14.47-.57,1.39-1.8,3.04-1.06,1.42-2.32,2.94-3.74,4.52-1.52,1.69-2.93,3.22-4.33,4.7-1.46,1.54-2.65,2.82-3.54,3.81-.07.08-.12.17-.18.26-.08.08-.16.16-.24.25-.39.47-.79.91-1.2,1.33-.67.72-1.57,1.59-2.71,2.61-1.13,1.02-2.31,2.06-3.5,3.09-1.14.99-2.2,1.83-3.13,2.52-.45.33-.76.53-.97.66.07-.26.17-.6.31-1.06.38-1.24.88-2.72,1.47-4.4.62-1.77,1.31-3.65,2.04-5.59.75-2.01,1.46-3.9,2.11-5.69l.72-1.96-2.07.2-6.71.64c-.09,0-.22.02-.38.02-.24,0-.55,0-.96-.04-.12-.01-.24-.02-.37-.04-.93-.09-1.41-.2-1.64-.27l-1.16-.35-.44,1.13c-.76,1.98-1.83,4.2-3.16,6.61-1.34,2.41-2.78,4.71-4.31,6.81-1.5,2.08-3.09,3.89-4.71,5.38-1.47,1.35-2.85,2.1-4.11,2.22-.05,0-.1,0-.15,0s-.1,0-.15,0c-.26-.02-.61-.11-.99-.59-.49-.6-.77-1.32-.85-2.2l-.34-3.54c-.21-2.24.3-4.48,1.53-6.66,1.29-2.28,3.03-4.34,5.18-6.13,2.19-1.82,4.61-3.34,7.2-4.53,2.56-1.18,5.02-1.88,7.31-2.1.69-.07,1.36-.1,1.99-.11.59,0,1.16.01,1.69.06.88.07,1.68.22,2.39.43,2.39.72,2.87.8,3.24.83h.16c.68-.07,1.24-.44,1.56-1.02.23-.43.32-.95.26-1.59-.13-1.32-.36-2.88-.69-4.62-.34-1.76-.63-3.03-.88-3.87l-.19-.65-.64-.22c-.63-.22-1.37-.36-2.26-.43-.57-.05-1.21-.07-1.9-.06-.13,0-.26,0-.4,0-1.82.05-3.5.14-4.99.29-3.6.34-7.56,1.34-11.78,2.95-4.21,1.62-8.14,3.8-11.67,6.49-3.56,2.71-6.49,5.97-8.69,9.66-1.55,2.6-2.45,5.42-2.74,8.44-.45.45-.97.94-1.57,1.47-.66.58-1.32,1.12-1.98,1.61-.64.48-1.05.58-1.23.6-.12.01-.24.02-.36.02s-.23,0-.33-.01c-.16-.01-.31-.04-.47-.18,0-.03,0-.42.46-1.79.4-1.18.79-2.65,1.17-4.36.38-1.73.72-3.7,1.01-5.87.3-2.25.33-4.67.09-7.2-.21-2.19-.82-3.97-1.81-5.27-.89-1.17-2.13-1.85-3.6-1.97-.19-.02-.39-.02-.58-.02-.19,0-.38.01-.57.03-1.71.16-3.33,1.05-4.81,2.63-1.36,1.45-2.56,3.36-3.56,5.68-.98,2.26-1.72,4.9-2.21,7.84-.49,2.93-.58,6.04-.28,9.23.08.88.29,1.68.61,2.36.19.4.33,1.01.39,1.73.01.14,0,.69-.85,1.85-.75,1.04-1.67,2.06-2.73,3.04-1.07,1-2.21,1.9-3.38,2.67-1.38.91-2.07,1.09-2.35,1.12-.09,0-.17.01-.25.01-.07,0-.14,0-.21,0-.35-.03-.94-.08-1.09-1.62-.22-2.34.47-6.02,2.06-10.94,1.65-5.12,3.58-11.47,5.74-18.87.29-1.05.89-2.68,1.76-4.85.9-2.22,1.89-4.7,2.99-7.43,1.08-2.7,2.24-5.63,3.43-8.71,1.19-3.07,2.28-6.12,3.23-9.05.96-2.95,1.73-5.77,2.28-8.36.57-2.72.76-4.94.58-6.79-.14-1.5-.59-2.84-1.33-3.99-.49-.75-1.45-1.68-3.29-1.83-.21-.02-.42-.02-.64-.02s-.45.02-.68.04c-1.92.18-3.33.68-4.31,1.51-.91.78-1.69,1.87-2.4,3.34-.85,1.77-1.83,4.32-2.93,7.56-1.09,3.21-2.23,6.8-3.38,10.65-1.16,3.85-2.33,7.84-3.5,11.86-1.18,4.05-2.26,7.79-3.25,11.21-.99,3.42-1.82,6.34-2.5,8.75-.89,3.17-1.17,3.88-1.24,4.04-.36.76-1.09,1.8-2.16,3.09-1.12,1.36-2.36,2.76-3.67,4.18-1.31,1.41-2.56,2.69-3.72,3.82-.29.29-.55.53-.77.74-.39.11-.72.37-1.23.87-.36.35-.8.75-1.31,1.19-.46.4-1.01.78-1.63,1.13-.55.31-1.08.48-1.63.54-.09,0-.17.02-.25.02.07-.25.16-.51.26-.78.39-1.08.55-2.09.46-3.01-.08-.87-.34-1.79-.76-2.75-.22-.5-.42-.96-.59-1.36.29-.38.64-.83,1.06-1.34.9-1.09,1.22-2.88.98-5.46-.21-2.22-.84-4.21-1.86-5.93-1.01-1.69-2.26-3.12-3.71-4.24-1.47-1.13-3.12-1.93-4.93-2.4-.88-.22-1.77-.37-2.65-.45-.48-.04-.97-.06-1.45-.05-.42,0-.84.03-1.25.07-3.56.34-7.08,1.36-10.47,3.05-3.4,1.7-6.42,4.11-8.95,7.18-2.53,3.06-4.5,6.81-5.87,11.14-.81,2.57-1.29,5.39-1.43,8.41-.23.23-.49.49-.78.79-1.25,1.29-2.7,2.72-4.3,4.26-1.61,1.55-3.22,2.99-4.76,4.28-2.02,1.7-2.7,1.81-3.03,1.82-.02-.04-.04-.12-.05-.25,0-.11,0-.86.93-4.17.69-2.49,1.59-5.57,2.73-9.41,1.12-3.75,2.4-7.94,3.8-12.48,1.33-4.29,2.67-8.62,4.03-12.99l5.72-.54c1.81-.17,3.09-1.13,3.7-2.76.49-1.33.65-2.97.47-4.87-.13-1.37-.39-2.24-.86-2.81-.44-.54-1.06-.86-1.8-.92-.1,0-.21-.01-.32-.01-.1,0-.2,0-.3.02l-3.72.35c.31-1.11.67-2.33,1.06-3.64.66-2.19,1.24-4.16,1.77-6.04.56-1.95,1.02-3.78,1.36-5.46.37-1.77.51-3.06.42-3.94-.16-1.66-.59-3.07-1.27-4.17-.69-1.1-1.73-1.74-3.02-1.84-.15-.01-.31-.02-.46-.02-.15,0-.3,0-.46.02-2.19.21-4.08,1.46-5.59,3.73-1.35,2.01-2.51,4.33-3.46,6.87-.93,2.51-1.69,5.09-2.24,7.65-.54,2.52-.93,4.44-1.14,5.71l-.38,2.38-6.8.65c-1.07.1-2.55.66-3.52,2.77-.68,1.45-.92,3.29-.71,5.47.25,2.57,1.65,3.07,2.47,3.14.08,0,.17.01.26,0,.08,0,.16,0,.24-.01l4.71-.45-2.6,9.67c-.14.55-.59,1.61-1.91,3.64-1.12,1.71-2.46,3.58-3.97,5.53-1.53,1.99-3.08,3.9-4.59,5.69-1.5,1.77-2.81,3.16-3.9,4.13-.11.1-.2.2-.3.3-.32.25-.65.58-.99,1.03-.47.61-1.07,1.27-1.77,1.95-.73.71-1.64,1.55-2.68,2.51-1.03.93-2.09,1.82-3.17,2.64-1.07.82-2.07,1.51-2.96,2.07-.05.03-.09.05-.14.08-.26.16-.48.28-.65.37.09-.22.18-.48.27-.77.02-.05.04-.1.05-.16l8.08-22.4c.71-1.83,1.25-3.22,1.62-4.11.47-1.16.65-1.89.6-2.46-.04-.46-.21-.91-.52-1.4-.26-.41-.78-.91-1.78-.99-.11,0-.23-.01-.35-.01s-.25,0-.38.02l-7.32.69c-.72.07-1.35.37-1.83.86-.24.24-.44.43-.8.76l-1.28,1.55-1.82,2.2-1.6,1.93-2.71,3.28c-1.54,1.87-3.13,3.76-4.75,5.68-1.62,1.91-3.1,3.59-4.46,5.05-.29.35-.98,1.11-2.61,2.75-1.33,1.34-2.74,2.71-4.19,4.06-1.29,1.2-2.49,2.28-3.57,3.21l8.52-23.37c.25-.64.48-1.2.67-1.66.29-.67.4-1.33.34-1.96-.12-1.24-.94-2.08-2.15-2.18-.1,0-.2-.01-.3-.01s-.2,0-.3.02l-9.03.86c-.43.04-1.21.28-1.7,1.4-.19.43-.36.89-.52,1.49-.07.36-.28,1.14-.89,2.84-.48,1.32-.97,2.34-1.48,3.02-1.65,2.45-3.59,5-5.8,7.63-2.06,2.44-4.35,4.9-6.78,7.3.26-1.24.5-2.4.76-3.7l7.1-36.73c.18-.68.43-1.74.75-3.23.32-1.5.63-3.07.92-4.68.3-1.63.55-3.18.75-4.62.21-1.53.28-2.64.21-3.4-.31-3.28-1.65-5.64-3.98-7.03-1.46-.87-3.16-1.39-5.07-1.55-.49-.04-.99-.06-1.51-.05s-1.02.03-1.55.08c-4.06.39-8.03,1.6-11.81,3.63-3.7,1.98-7.28,4.51-10.64,7.51-3.34,2.98-6.55,6.36-9.55,10.03-3,3.68-5.78,7.5-8.26,11.37-2.48,3.87-4.77,7.72-6.79,11.43-2.03,3.73-3.75,7.15-5.15,10.24-.01.03-.08.08-.16.12-.24.13-.48.2-.72.22-.41.04-1,.11-1.83.24-.65.1-1.33.2-2.03.3l-.39.06c-.91.13-1.82.3-2.72.52-.87.2-1.66.38-2.38.53-1.32.32-2.17.61-2.71.92-.76.44-1.29,1.28-1.62,2.57l-1.52,6.07c-.23.85-.31,1.4-.27,1.82.04.45.27.9.79,1.56.63.81,1.35,1.03,1.84,1.08.07,0,.15,0,.22,0,.07,0,.13,0,.2-.01.26-.02.67-.1,2.3-.69.55-.2,1.69-.53,4.09-1.03-.05.14-.11.29-.18.46-.53,1.36-1.15,2.95-1.88,4.78-.73,1.84-1.48,3.83-2.23,5.92-.75,2.09-1.45,4.04-2.09,5.87-.66,1.85-1.2,3.45-1.6,4.75-.64,2.05-.67,2.5-.63,2.85.09.99.76,1.67,1.7,1.75.07,0,.14,0,.21,0,.06,0,.13,0,.2-.01l10.25-.97c.37-.03.75-.18,1.22-.47.65-.34,1.02-1.1,1.58-3.18.38-1.44.97-3.4,1.76-5.83.78-2.42,1.82-5.31,3.09-8.6,1.19-3.07,2.71-6.39,4.54-9.88.32,0,.63-.01.95-.02,1.9-.02,3.74.04,5.5.19,1.57.13,3.12.33,4.59.6,3.6.65,6.76,1.58,9.39,2.75,2.59,1.15,4.64,2.45,6.11,3.87,1.34,1.3,2.08,2.58,2.2,3.8.02.18.03.68-.09,2.05-.14,1.6-.12,2.21-.09,2.53.24,2.58,1.03,4.55,2.34,5.86.99.99,2.36,1.56,4.06,1.7.33.03.67.04,1.03.03s.74-.02,1.13-.06c4.81-.46,9.06-5.67,11.23-9.74-1.76,3.31-1.98,8.03,2.34,8.91.35.07.71.13,1.07.16.31.03.64.04.96.03.31,0,.63-.02.95-.05,2.18-.21,4.66-1.22,7.58-3.08,2.74-1.76,5.54-3.81,8.3-6.1,2.74-2.27,5.37-4.61,7.79-6.96.87-.84,1.67-1.63,2.41-2.36-.27.82-.54,1.68-.81,2.58-.41,1.36-.75,2.7-1.02,3.96-.28,1.34-.38,2.49-.29,3.44.3,3.11,1.96,4.34,3.31,4.82.94.34,1.93.55,2.94.64.38.03.77.05,1.16.04.36,0,.72-.02,1.08-.06,1.48-.14,3.17-.69,5.18-1.69,1.89-.94,3.79-2.03,5.63-3.25.27-.18.52-.36.79-.54,1.54-1.04,3.05-2.11,4.48-3.21,1.71-1.31,3.02-2.36,4-3.19.56-.47,1.03-.93,1.46-1.38.63-.37,1.44-1.12,2.7-2.6.68-.8,1.5-1.69,2.45-2.67-.36,1.46-.7,2.88-1.03,4.24-.46,1.97-.73,3.52-.8,4.73-.03.49-.03.93,0,1.31.29,3.06,2.06,4.19,3.5,4.6.89.25,1.8.42,2.68.49.41.03.82.05,1.24.04.35,0,.7-.02,1.04-.05,1.61-.15,3.42-.7,5.4-1.64,1.88-.89,3.75-1.91,5.58-3.05,1.81-1.13,3.47-2.26,4.95-3.35,1.46-1.08,2.59-1.96,3.46-2.7.55-.43,1.05-.83,1.49-1.23.48,1.07,1.05,2.04,1.72,2.92.62.83,1.32,1.58,2.11,2.24,1.04.87,2.18,1.57,3.4,2.11,1.53.67,3.19,1.1,4.98,1.24.59.05,1.2.07,1.82.06s1.21-.04,1.83-.1c4.23-.4,7.82-1.45,10.7-3.12.31-.18.61-.35.9-.54,2.76-1.81,5.44-4.41,7.95-7.74.62.2,1.24.32,1.86.37.25.02.51.03.77.03.22,0,.45-.01.67-.04,1.38-.13,2.67-.49,3.82-1.07.7-.35,1.53-.8,2.45-1.33.13-.08.26-.15.62-.23.82-.08,1.67-.73,3.04-2.32.33-.38.67-.75,1.03-1.12,0,.06,0,.12-.01.18-.07,1.11-.04,2.3.07,3.52.08.81.3,1.63.66,2.43.16.35.33.7.54,1.05.55.92,1.26,1.75,2.09,2.48.17.15.33.29.5.43,1.05.83,2.33,1.48,3.79,1.93.77.24,1.59.4,2.43.47.39.03.8.05,1.21.04.38,0,.77-.03,1.17-.06,2.52-.24,4.72-.64,6.55-1.2.31-.09.6-.2.9-.31,1.53-.54,2.95-1.24,4.22-2.09,1.5-1,2.95-2.26,4.33-3.72.35-.37.7-.77,1.06-1.18.85-.97,1.73-2.05,2.64-3.23.87.36,1.7.6,2.49.73.27.04.55.08.84.1.41.03.85.05,1.32.04.5,0,1.02-.04,1.57-.09,2.05-.19,3.74-.66,5.03-1.39.69-.39,1.32-.77,1.92-1.15.78,2.38,1.9,4.35,3.36,5.87,2.05,2.13,4.5,3.32,7.27,3.55.38.03.77.05,1.17.04.37,0,.74-.02,1.12-.06l2.32-.22c3.09-.29,5.61-1.21,7.49-2.71,1.09-.88,2.19-1.9,3.29-3.06.24.92.59,1.69,1.07,2.34.77,1.06,2,1.66,3.67,1.8.29.02.59.03.91.03.33,0,.68-.02,1.04-.06,1.37-.13,2.83-.57,4.34-1.29,1.41-.68,2.87-1.51,4.35-2.45,1.47-.94,2.9-1.94,4.25-2.98,1.34-1.03,2.59-1.97,3.71-2.8,1.78-1.41,3.13-2.65,4.07-3.75.42-.31.88-.74,1.42-1.34-.11.4-.22.81-.33,1.23-.28,1.08-.52,2.15-.71,3.16-.22,1.13-.29,2.06-.21,2.85.27,2.89,1.9,4.6,4.59,4.82.23.02.48.03.73.02s.51-.02.77-.04c1.03-.1,2.16-.69,3.58-1.86,1.21-1,2.6-2.32,4.13-3.94,1.51-1.6,3.15-3.4,4.88-5.36,1.74-1.97,3.63-4.05,5.61-6.18,4.79-5.08,8.51-8.81,11.05-11.07.62-.55,1.15-1.01,1.59-1.4-.29.78-.6,1.66-.93,2.61-.54,1.55-1.16,3.25-1.84,5.07-.7,1.87-1.33,3.67-1.86,5.35-.54,1.71-1,3.26-1.37,4.62-.42,1.54-.58,2.6-.51,3.34.22,2.34,1.2,3.97,2.92,4.84,1,.51,2.09.81,3.24.91.31.03.63.04.95.03.3,0,.6-.02.91-.05,1.67-.16,3.45-.64,5.31-1.43,1.79-.76,3.57-1.7,5.29-2.8,1.68-1.07,3.31-2.19,4.87-3.34,1.57-1.15,2.94-2.25,4.07-3.27,1.14-.91,2.06-1.79,2.81-2.65.12-.1.25-.2.39-.33.14-.12.27-.25.41-.38-.1.33-.19.67-.29,1-.31,1.12-.57,2.24-.77,3.33-.21,1.17-.28,2.16-.19,3.02.11,1.13.62,2.15,1.52,3.04.74.73,1.66,1.14,2.75,1.23.17.01.35.02.53.02.17,0,.34-.01.51-.03,1.19-.11,2.38-.57,3.53-1.36,1.03-.71,2.17-1.69,3.48-2.99,1.24-1.22,2.67-2.72,4.25-4.45,1.57-1.71,3.43-3.65,5.53-5.75.55-.48,1.33-1.23,2.36-2.3,1.01-1.04,2.11-2.17,3.31-3.39,1.17-1.19,2.43-2.44,3.75-3.72,1.32-1.28,2.55-2.45,3.65-3.47.59-.55,1.13-1.04,1.63-1.49-.03.09-.07.19-.1.28-.75,2.04-1.6,4.31-2.55,6.82-.96,2.54-1.82,5.04-2.54,7.4-.78,2.56-1.1,4.4-.98,5.64.27,2.84,1.82,4.13,3.07,4.72.94.45,2.04.72,3.25.83.41.03.84.05,1.28.04s.91-.03,1.39-.08c1.64-.15,3.59-.81,5.96-2.01,2.23-1.13,4.47-2.44,6.67-3.9,2.2-1.46,4.25-2.99,6.1-4.54,1.9-1.59,3.25-2.88,4.12-3.93.32-.39.63-1,.99-1.92.37-.97.47-2.38.28-4.31ZM99.2,71.8c-.27,1.3-.42,1.89-.5,2.16l-.02.06v.06s-8.49,42.93-8.49,42.93c-2.77-2.11-5.57-3.67-8.36-4.65-3.29-1.15-6.3-1.93-8.96-2.31-1.44-.21-2.75-.36-3.9-.45-.97-.08-1.85-.12-2.62-.13-.31,0-.58-.01-.83-.03-.01,0-.02,0-.04,0,.24-.45.62-1.13,1.22-2.16,1.21-2.05,2.8-4.59,4.73-7.54,1.95-2.99,4.2-6.23,6.68-9.64,2.47-3.39,5.05-6.58,7.69-9.5,2.6-2.89,5.21-5.37,7.75-7.37,2.23-1.76,4.22-2.79,5.91-3.05-.01.18-.06.63-.27,1.63ZM226.65,101.24c-.62.65-1.31,1.45-2.06,2.35-.82.99-1.53,2.2-2.11,3.59-.62,1.47-.82,3.32-.62,5.48.08.8.35,1.73.83,2.85.34.81.72,1.59,1.11,2.32-.15.26-.35.52-.61.79-.51.53-1.09,1.04-1.71,1.51-.6.45-1.23.82-1.89,1.09-.62.26-1.16.42-1.59.46-.26.03-.52.04-.77.04s-.5,0-.73-.02c-1.02-.09-1.86-.38-2.56-.9-.95-.7-1.57-2.34-1.8-4.76-.25-2.6-.05-5.04.58-7.28.63-2.25,1.53-4.25,2.67-5.92,1.14-1.67,2.39-3.02,3.72-4.01,1.26-.93,2.47-1.46,3.6-1.57.26-.02.51-.04.74-.04.22,0,.43,0,.62.02.88.07,1.5.33,1.89.77.69.78,1.06,1.54,1.13,2.32.02.25-.13.56-.45.9Z"/>
      </g>
    </g>
    <path class="st0" d="M101.24,186.27c-.3-2.13-.27-4.26-.06-6.39-1.36-.12-2.3-.58-2.04-2.49-4.33-.42-8.5-.83-12.64-1.24-.1-.87-.17-1.49-.25-2.25-2.36-.23-4.66-.38-6.93-.73-.54-.08-1.1-.73-1.46-1.25-.74-1.08-2.19-1.68-2.21-3.25-2.45-.24-1.53-1.99-1.47-3.32.05-1.07.2-2.14.32-3.34-2.29-.06-2.23-1.42-1.99-2.95.19-1.2.19-2.43.39-3.63.25-1.5.32-2.82-1.77-3.01.13-1.35.17-2.57.39-3.76.29-1.58.19-2.83-1.47-2.85-1.34-1.32,1.37-3.68-1.57-4.17-1.38-.23-3.07-.7-4.11-.13-.83.46-.86,2.33-1.25,3.59-.59.12-1.19.24-1.86.37-.18,1.89-.37,3.67-.53,5.45-.14,1.61,0,3.41-2.57,2.99-.22,2.22-.43,4.26-.61,6.3-.1,1.12-.1,2.2-1.73,2.17-.28,0-.74.76-.84,1.23-.28,1.27.21,2.99-2.02,2.92-.13,0-.26.53-.43.78-.23.34-.46.73-.78.97-.75.55-1.55,1.02-2.33,1.52-.11.41-.43.41-.74.4-1.34-.04-3.02-.89-3.39,1.46-.03.19-1,.38-1.51.34-2.36-.18-4.74-.35-7.08-.7-1.5-.23-2.5-.02-2.58,1.82-.8-.02-1.5-.01-2.19-.07-2.3-.21-4.59-.49-6.89-.63-.52-.03-1.47.31-1.53.61-.26,1.32-1.09,1.18-2.02,1.09-2.27-.24-4.54-.45-6.77-.67-.27.88-.45,1.48-.64,2.13-1.25-.11-2.1.01-2.26,1.59-.16,1.64.13,2.6,2.12,2.61-.66,1.95.57,2.03,1.81,2.14,1.34.11,2.68.32,4.02.37,1.62.06,2.93.38,2.74,2.51,2.62.26,5.1.49,7.58.74,1.55.16,3.49-.15,2.85,2.58,4.37.43,8.5.83,12.74,1.25-.1,1.32.14,2.22,1.67,2.23,1.29,0,2.86-.09,2.75,2,0,.15.32.44.51.46,1.65.17,1.2,1.34,1.11,2.31-.1,1.1-.37,2.2,1.28,2.48.28.05.59,1.02.57,1.55-.07,1.64-.29,3.27-.46,5.05,2.34-.1,2.23,1.23,2.02,2.68-.18,1.27-.27,2.55-.38,3.83-.1,1.11-.53,2.35,1.24,2.67.23.04.47.85.46,1.29-.02,1.15-.23,2.3-.25,3.45,0,.52.13,1.14.43,1.55.56.74,1.28,1.36,1.94,2.02-.1.12-.2.24-.3.37,1.12.11,2.24.22,3.43.34.19-.62.35-1.16.57-1.87,2.18.49,2.23-1,2.32-2.51.05-.9.12-1.8.29-2.67.07-.38.4-1.01.62-1.01,1.73-.02,1.62-1.28,1.73-2.41.12-1.28.3-2.55.36-3.83.07-1.48.27-2.76,2.56-2.22.3-3.02.56-5.74.75-7.62,2.92-2.5,5.29-4.52,8.09-6.91,2.37.23,5.36.56,8.35.78.52.04,1.48-.27,1.53-.55.31-1.59,1.36-1.41,2.49-1.29,2.85.3,5.7.56,8.68.86.01-1.91.97-2.15,2.24-2.03,0-.09,0-.18,0-.27-.47-1.22-.84-2.49-1.03-3.85ZM96.55,188.05c-2.25-.22-4.28-.35-6.29-.64-1.55-.22-2.86-.31-2.8,2.03-3.55-.35-6.96-.68-10.53-1.03-.05,2.01-1.12,2.45-2.69,2.04-1.41-.37-2.18.21-2.42,1.6-.63.05-1.19.09-1.64.13-1.25,1.37.75,4.6-3.04,4.3-.22,2.26-.45,4.47-.65,6.68-.08.94-.17,1.67-1.41,1.89-.46.08-.8,1.2-1.06,1.9-.31.82.07,2.27-1.4,2-1.27-.24-3.27.86-3.66-1.65-.08-.53-.95-.93-1.87-1.77.16-1.66.36-3.87.6-6.08.1-.94.2-1.72-1.07-2.05-.4-.1-.82-1.04-.82-1.58.03-1.59.27-3.18.43-4.85-.68-.24-1.26-.45-1.92-.68.09-1.59-.84-2-2.27-2.02-1.34-.02-2.68-.3-4.02-.35-1.53-.06-2.69-.37-2.2-2.52-2.94-.29-5.72-.62-8.52-.81-1.52-.11-2.71-.37-2.31-2.45-1.34-.19-2.58-.37-3.82-.55.1-.14.19-.29.29-.43-.64-.57-1.34-1.08-1.89-1.72-.33-.38-.63-.98-.56-1.43.07-.43.56-.93.99-1.12.43-.18,1.01-.06,1.51.04,1.35.25,2.31,0,2.31-1.81,3.51.34,6.93.68,10.5,1.03.09-2.4,1.51-2.33,3.19-2.07,1.89.29,3.8.4,5.03.52,1.99-1.68,3.52-2.98,5.71-4.84.1-1.05.3-3.05.5-5.13.85-.09,1.46-.15,2.36-.25.21-2.18.53-4.38.61-6.59.07-1.65.73-1.98,2.28-1.82,4.78.51,4.85.46,4.44,5.22-.12,1.44.42,1.99,1.92,2.14-.21,2.1-.4,4.11-.61,6.26,2.29,0,2.34,1.3,2.04,2.85-.18.91-.27,1.82,1.05,2.02.26.04.69.37.69.55-.03,2.11,1.57,1.76,2.82,1.9,2.68.28,5.35.62,8.04.76,1.57.08,2.45.56,2.16,2.45,2.73.27,5.38.53,8.04.79-.06.22-.11.44-.17.66.63.6,1.29,1.17,1.88,1.8.27.29.59.7.58,1.06-.02,1.13-.19,2.26-.32,3.64Z"/>
    <path class="st0" d="M481.87,139.95c-.09-.3-.57-.6-.91-.66-.47-.08-.98.06-1.49.11-.38-.77-.71-1.46-1.1-2.26-1.44.33-2.77.63-4.05.92q-1.28-2.08-3.66-1.54c-2.27.51-4.55.96-6.8,1.57-1.68.46-3,.44-3.43-1.86-4.81,1.1-9.45,2.16-14.04,3.21-.42-.9-.71-1.54-1.08-2.33-2.62.6-5.15,1.26-7.71,1.7-.61.11-1.44-.39-2.02-.82-1.19-.89-2.96-1.02-3.54-2.7-2.72.62-2.36-1.59-2.77-3.04-.33-1.17-.55-2.37-.86-3.71-2.49.76-2.91-.73-3.2-2.46-.23-1.36-.67-2.68-.89-4.04-.27-1.7-.67-3.15-2.98-2.6-.34-1.5-.74-2.83-.93-4.18-.02-.16-.05-.31-.08-.46-2.69,3.21-6.64,5.39-10.79,5.44-.08,0-.15,0-.23,0,.1.45.2.89.31,1.34.43,1.78,1.23,3.66-1.69,4.14.56,2.47,1.06,4.73,1.6,6.99.3,1.24.68,2.4-1.09,2.96-.31.1-.52,1.09-.47,1.63.16,1.47,1.3,3.14-1.13,3.87-.14.04-.09.66-.18.99-.13.45-.23.95-.49,1.32-.61.86-1.3,1.65-1.96,2.48.03.48-.31.59-.66.7-1.46.44-3.56.12-3.12,2.79.04.22-.94.76-1.51.9-2.61.66-5.22,1.32-7.87,1.79-1.69.3-2.7.87-2.12,2.88-.87.26-1.61.53-2.38.71-2.55.6-5.11,1.13-7.64,1.8-.57.15-1.47.86-1.42,1.2.2,1.52-.75,1.66-1.78,1.89-.12.03-.24.05-.36.08-1.65,1.59-3.43,3.05-5.39,4.31-.44.28-.9.54-1.35.8,2.38.34,4.72.87,6.96,1.65,3.74-.08,7.42.87,10.49,3.05,1.01-.23,2.01-.46,3.01-.68,1.72-.39,3.7-1.41,4,1.76,4.85-1.11,9.44-2.16,14.15-3.23.37,1.46.94,2.34,2.59,1.8,1.39-.45,3.04-1.12,3.67,1.16.05.17.5.36.72.31,1.83-.41,1.77,1.01,2.03,2.09.29,1.22.39,2.5,2.26,2.21.32-.05,1,.88,1.17,1.46.52,1.79.87,3.62,1.32,5.6,2.48-.94,2.84.52,3.14,2.16.26,1.43.63,2.84.96,4.25.29,1.23.28,2.72,2.29,2.42.27-.04.81.74.96,1.23.39,1.24.57,2.56.97,3.8.18.56.55,1.18,1.02,1.51.86.6,1.87,1,2.81,1.48l-.19.5c1.25-.28,2.49-.57,3.81-.87-.02-.74-.04-1.37-.06-2.21,2.52-.25,2.04-1.88,1.59-3.53-.27-.98-.51-1.98-.65-2.98-.06-.43.07-1.23.31-1.31,1.86-.65,1.28-1.96,1-3.21-.33-1.42-.59-2.85-.98-4.25-.45-1.62-.7-3.07,1.96-3.31-.77-3.36-1.46-6.38-1.93-8.46,2.25-3.74,4.07-6.76,6.22-10.34,2.64-.6,5.96-1.32,9.26-2.15.57-.14,1.49-.82,1.45-1.14-.23-1.82.95-2.01,2.21-2.28,3.17-.7,6.33-1.44,9.64-2.19-.73-2.24.44-2.75,2.06-3.07,2.57-.5,5.11-1.11,7.65-1.76.56-.14,1.18-.52,1.51-.99.59-.83.98-1.81,1.45-2.72.27.13.55.27.82.4-.62-1.54-.45-2.61,1.22-2.93.21-.04.48-.74.39-1.04ZM454.47,150.19c-1.75.31-3.19.7-2.28,3.18-3.94.9-7.73,1.76-11.69,2.67.66,2.18-.33,3.03-2.16,3.15-1.65.11-2.27,1.01-2.03,2.59-.66.28-1.25.53-1.72.73-.85,1.92,2.45,4.68-1.73,5.72.57,2.51,1.12,4.97,1.7,7.42.25,1.04.42,1.85-.84,2.54-.46.25-.43,1.58-.46,2.42-.04.99.89,2.42-.79,2.65-1.46.2-3.21,2.09-4.53-.47-.28-.54-1.36-.66-2.65-1.23-.42-1.85-1-4.29-1.53-6.75-.23-1.05-.41-1.92-1.88-1.82-.46.03-1.26-.82-1.45-1.41-.54-1.72-.86-3.52-1.28-5.37-.82-.02-1.52-.03-2.31-.05-.47-1.75-1.63-1.85-3.17-1.36-1.45.46-2.99.64-4.45,1.06-1.66.48-3.03.56-3.27-1.91-3.26.75-6.38,1.39-9.45,2.18-1.68.43-3.05.58-3.37-1.81-1.51.27-2.91.52-4.31.78.05-.19.1-.38.16-.57-.89-.38-1.83-.68-2.65-1.17-.49-.29-1.03-.83-1.12-1.33-.08-.48.27-1.21.67-1.56.39-.35,1.07-.42,1.64-.5,1.54-.22,2.48-.84,1.84-2.78,3.9-.89,7.7-1.76,11.67-2.66-.76-2.62.79-3.05,2.68-3.37,2.13-.36,4.23-.94,5.6-1.25,1.53-2.52,2.72-4.48,4.41-7.26-.27-1.16-.77-3.39-1.3-5.69.88-.4,1.51-.69,2.45-1.11-.55-2.42-1.01-4.9-1.71-7.31-.52-1.8.07-2.39,1.8-2.77,5.32-1.17,5.38-1.25,6.65,4.03.38,1.6,1.17,1.99,2.83,1.61.53,2.33,1.04,4.56,1.59,6.96,2.46-.82,2.99.55,3.21,2.33.13,1.05.36,2.06,1.85,1.8.3-.05.87.15.94.35.73,2.28,2.32,1.33,3.71,1.03,2.98-.66,5.98-1.26,8.92-2.07,1.72-.48,2.84-.28,3.2,1.86,3.03-.69,5.98-1.37,8.93-2.04.02.25.04.51.06.76.89.41,1.81.79,2.67,1.26.4.21.88.55,1,.93.38,1.23.61,2.5.96,4.03-2.5.57-4.73,1.16-6.99,1.57Z"/>
    <path class="st0" d="M142.46,232.05c-2.34-2.32-5.12-3.95-8.33-4.88-3.21-.94-6.62-1.38-10.21-1.34-7.99.1-13.91.87-17.76,2.32-3.85,1.45-5.77,3.33-5.74,5.65.03,2.93,1.24,5.58,3.62,7.96,2.37,2.38,5.36,3.67,8.96,3.87l3.93.23c-2.3,1.67-4.21,2.52-5.73,2.54-1.71.02-3.42-.06-5.12-.26-1.71-.19-3.5-.55-5.36-1.08-1.87-.53-3.4-1.39-4.6-2.6-1.2-1.2-1.81-2.63-1.83-4.28,0-.3-.06-1.02-.16-2.15-.1-1.12-.16-2.06-.17-2.79-.03-2.13.35-4.15,1.12-6.05,1.48-3.49,3.97-6.74,7.47-9.74,3.5-3,6.71-4.52,9.64-4.55,1.71-.02,3.49.46,5.37,1.44,1.87.98,3.03,2.05,3.47,3.2.5,1.15,1.59,1.86,3.27,2.11,1.68.25,4.56.36,8.65.31,1.58-.02,4.28-1.3,8.09-3.85,1.63-1.18,2.82-2.21,3.58-3.11.75-.89,1.12-2.01,1.1-3.35-.03-2.19-1.18-4.42-3.46-6.68-2.28-2.26-4.7-4.06-7.24-5.4-2.55-1.34-4.89-2.33-7.03-2.98-5.32-1.52-10.21-2.25-14.66-2.2-8.23.1-15.77,2.12-22.61,6.08-6.84,3.95-12.18,9.14-16,15.55-3.82,6.42-5.69,13.25-5.61,20.51.08,6.71,1.9,12.54,5.47,17.49,3.56,4.96,8.15,8.61,13.76,10.95,5.61,2.34,11.76,3.47,18.47,3.39,2.25-.03,6.88-1.03,13.86-3,.67-.19,1.72-.43,3.15-.72,1.43-.29,2.75-.63,3.97-1.01,1.21-.38,2.4-.85,3.55-1.41,2.27-1.12,4.35-2.74,6.26-4.84,0-.02,0-.04.02-.06.25-.65.58-1.44.97-2.35.17-.4.33-.77.47-1.11.14-.34.27-.65.37-.92.03-.11.07-.24.11-.38.12-.42.29-.96.49-1.64.31-.99.62-1.92.92-2.77.34-.94.75-1.87,1.22-2.78.01-.03.03-.06.05-.1,0,0,0-.02.01-.02.02-.03.04-.07.06-.11,0-.02.02-.04.03-.06.02-.05.05-.1.07-.15,0-.02.02-.03.02-.05.04-.08.08-.16.12-.25,0,0,0-.01,0-.02.05-.1.11-.22.17-.35,0-.02.02-.04.03-.05.05-.1.1-.22.16-.34.02-.05.05-.1.07-.15.05-.12.11-.24.17-.37.02-.04.04-.07.05-.11.08-.17.16-.34.25-.53,0-.02.02-.04.03-.06.2-.42.42-.9.67-1.45.05-.1.09-.2.14-.3.09-.19.18-.39.28-.6.05-.11.11-.23.16-.35.1-.21.2-.43.31-.66.04-.1.09-.19.13-.29.11-.23.22-.48.34-.73.08-.17.15-.33.24-.51-.5-2.15-1.57-4.06-3.25-5.71Z"/>
    <path class="st0" d="M433.81,262.22c3.28-1.17,6.81-2.6,10.6-4.29,3.79-1.69,7-3.6,9.63-5.74,2.63-2.13,3.93-4.15,3.91-6.04s-1.19-3.75-3.49-5.4c-2.31-1.65-5.5-2.45-9.59-2.4-4.57.05-9.89,1.25-15.96,3.57-6.07,2.33-10.47,3.63-13.21,3.91,0-.42.12-1.07.39-1.92.26-.86.54-1.59.84-2.2.3-.61.48-.92.54-.92l3.19-.5c6.08-.93,10.54-1.97,13.36-3.13,2.82-1.16,6.65-3.54,11.48-7.13,1.57-1.18,2.72-2.2,3.44-3.06.72-.86,1.08-1.84,1.06-2.94-.04-3.72-4.09-5.53-12.14-5.43-2.93.03-6.91.6-11.96,1.7l1.88-3.41c1.1-.01,2.7-.08,4.8-.19,2.1-.12,3.67-.18,4.71-.19,1.71-.02,3.78-.26,6.21-.71,2.43-.45,4.94-1.09,7.52-1.92,2.58-.82,4.76-1.98,6.54-3.46,1.78-1.48,2.66-3.08,2.64-4.79-.03-2.8-2.18-5.14-6.44-7.01-4.26-1.87-9.59-2.77-15.99-2.69-7.25.09-13.57,0-18.93-.28-5.37-.27-8.14-.41-8.33-.4-3.6.04-6.77.78-9.53,2.22-2.76,1.44-4.12,3.56-4.08,6.36.01,1.1.33,2.16.95,3.19.62,1.03,1.29,1.86,2,2.49.71.63,1.77,1.46,3.18,2.48-1.8,2.58-2.94,4.33-3.41,5.25-3.6.04-6.22.81-7.88,2.29-1.66,1.48-2.47,3.96-2.43,7.44.02,1.52.96,3.37,2.81,5.54-.36.8-.63,1.97-.83,3.53-.14,1.1-.25,1.89-.35,2.39.04-.31.06-.61.05-.88-.04-3.29-1.23-6.1-3.58-8.42-2.34-2.32-5.12-3.95-8.33-4.88-3.21-.94-6.62-1.38-10.21-1.34-7.99.1-13.91.87-17.76,2.32-3.85,1.45-5.77,3.33-5.74,5.65.03,2.93,1.24,5.58,3.62,7.96,2.37,2.38,5.36,3.67,8.96,3.87l3.93.23c-2.3,1.67-4.21,2.52-5.73,2.54-1.71.02-3.42-.06-5.12-.26-1.71-.19-3.5-.55-5.36-1.08-1.87-.53-3.4-1.39-4.6-2.6-1.2-1.2-1.81-2.63-1.83-4.28,0-.3-.06-1.02-.16-2.15-.1-1.12-.16-2.06-.17-2.79-.03-2.13.35-4.15,1.12-6.05,1.48-3.49,3.97-6.74,7.47-9.74,3.5-3,6.71-4.52,9.64-4.55,1.71-.02,3.49.46,5.37,1.44,1.87.98,3.03,2.05,3.47,3.2.5,1.15,1.59,1.86,3.27,2.11,1.68.25,4.56.36,8.65.31,1.58-.02,4.28-1.3,8.09-3.85,1.63-1.18,2.82-2.21,3.58-3.11.75-.89,1.12-2.01,1.1-3.35-.03-2.19-1.18-4.42-3.46-6.68-2.28-2.26-4.7-4.06-7.24-5.4-2.55-1.34-4.89-2.33-7.03-2.98-5.32-1.52-10.21-2.25-14.66-2.2-8.23.1-15.77,2.12-22.61,6.08-6.84,3.95-12.18,9.14-16,15.55-3.18,5.34-4.99,10.98-5.47,16.9-.05-1.96-.1-3.63-.15-4.99-.09-2.25-.27-4.9-.55-7.95-.28-3.05-.68-5.54-1.19-7.49-.58-2.31-1.02-4.03-1.34-5.15-.32-1.12-.87-2.53-1.65-4.23-.78-1.7-1.61-2.94-2.47-3.72-.86-.78-2.02-1.48-3.45-2.11-1.44-.62-3.14-.92-5.09-.9-1.52.02-2.96.23-4.29.65-1.34.41-2.5.85-3.5,1.32-1,.47-2.03,1.23-3.08,2.28-1.05,1.05-1.87,1.91-2.44,2.59-.57.68-1.29,1.77-2.16,3.27-.87,1.51-1.46,2.58-1.79,3.22-.33.64-.91,1.83-1.74,3.54-.83,1.72-1.34,2.79-1.52,3.22-.77,1.66-2.31,4.71-4.6,9.15-2.29,4.45-4.01,7.93-5.13,10.44-3.39,7.36-5.26,11.37-5.62,12.05-.42.8-.77,1.61-1.07,2.44-.29.83-.59,1.71-.88,2.66-.29.95-.5,1.64-.62,2.06-.24.61-.55,1.37-.93,2.25-.39.89-.7,1.64-.93,2.25-.24.61-.35,1.16-.35,1.65,0,.81.28,1.74.78,2.77-1.76-.93-3.68-2.2-5.78-3.85-4.83-3.81-8.98-7.74-12.44-11.79.79-.56,2.99-2.08,6.62-4.56,3.63-2.48,6.38-4.63,8.24-6.45,1.87-1.82,3.31-3.86,4.32-6.13.36-.8.94-2.01,1.74-3.63.8-1.62,1.43-2.93,1.87-3.91.45-.98.86-2.22,1.24-3.72.38-1.5.56-2.98.54-4.44-.08-7.07-4.03-12.82-11.82-17.23-7.8-4.42-17.67-6.56-29.61-6.41-3.17.04-6.48.66-9.95,1.86-3.46,1.2-6.38,2.85-8.77,4.95-2.38,2.1-3.56,4.25-3.54,6.44.01.91-.34,2.2-1.05,3.85-.71,1.65-1.06,2.97-1.05,3.94.1,8.11,3.9,12.21,11.4,12.3-.59,1.47-1.98,4.25-4.15,8.33-2.18,4.08-3.47,7.22-3.87,9.42-.29,1.65-1.01,3.4-2.18,5.24-1.17,1.84-1.78,2.86-1.84,3.04-.05.16-.35.79-.86,1.83-.08-.73-.22-1.64-.43-2.78-.33-1.73-.53-3.09-.6-4.06-.02-1.28-.06-3.89-.14-7.82-.08-3.93-.16-7.02-.25-9.28-.09-2.25-.27-4.9-.55-7.95-.28-3.05-.68-5.54-1.19-7.49-.58-2.31-1.02-4.03-1.34-5.15-.32-1.12-.87-2.53-1.65-4.23-.78-1.7-1.61-2.94-2.47-3.72-.86-.78-2.02-1.48-3.45-2.11-1.44-.62-3.14-.92-5.09-.9-1.52.02-2.96.23-4.29.65-1.34.41-2.5.85-3.5,1.32-1,.47-2.03,1.23-3.08,2.28-1.05,1.05-1.87,1.91-2.44,2.59-.57.68-1.29,1.77-2.16,3.27-.87,1.51-1.46,2.58-1.79,3.22-.33.64-.91,1.83-1.74,3.54-.83,1.72-1.34,2.79-1.52,3.22-.77,1.66-2.31,4.71-4.6,9.15-2.29,4.45-4.01,7.93-5.13,10.44-3.39,7.36-5.26,11.37-5.62,12.05-.42.8-.77,1.61-1.07,2.44-.29.83-.59,1.71-.88,2.66-.29.95-.5,1.64-.62,2.06-.24.61-.55,1.37-.93,2.25-.39.89-.7,1.64-.93,2.25-.24.61-.35,1.16-.35,1.65.02,2.01,1.57,4.71,4.62,8.08,3.06,3.38,5.65,5.05,7.79,5.03,7.37-.09,13.34-6.41,17.88-18.96l1.83.25c2.43,4.54,6.73,6.78,12.88,6.7,3.96-.05,7.11-.97,9.43-2.77.33-.26.63-.52.92-.8-.08.66-.13,1.32-.13,1.98.03,2.44,1.38,4.72,4.06,6.86,2.68,2.13,5.69,3.18,9.05,3.14,5.42-.06,9.74-3.44,12.96-10.12,6.92,8.15,12.92,13.68,17.99,16.61,5.06,2.93,11.9,4.83,20.51,5.7.18,0,.98.16,2.38.47,1.41.32,2.26.48,2.57.47,3.96-.05,7.7-1.13,11.21-3.24,3.51-2.11,5.25-4.63,5.21-7.56-.02-1.54-.59-2.89-1.69-4.07,3.35-3.13,6.28-8.14,8.78-15.04l1.83.25c2.43,4.54,6.73,6.78,12.88,6.7,3.96-.05,7.11-.97,9.43-2.77,2.32-1.79,3.47-4.09,3.44-6.9,0-.79-.18-2.06-.5-3.79-.33-1.73-.53-3.09-.6-4.06-.01-.86-.03-2.32-.07-4.35.65,4.99,2.36,9.44,5.16,13.35,3.56,4.96,8.15,8.61,13.76,10.95,5.61,2.34,11.76,3.47,18.47,3.39,2.25-.03,6.88-1.03,13.86-3,.67-.19,1.72-.43,3.15-.72,1.43-.29,2.75-.63,3.97-1.01,1.21-.38,2.4-.85,3.55-1.41,4.18-2.06,7.76-5.79,10.75-11.19,1.04-1.87,1.86-3.53,2.5-5.01-.29,1.03-.43,1.84-.43,2.42.02,2.01.17,3.63.42,4.84.26,1.22.91,2.49,1.97,3.82,1.05,1.33,2.15,2.46,3.29,3.39,1.14.93,3.09,2.45,5.86,4.55,3.57,2.7,8.4,4.02,14.5,3.94.67,0,1.69-.22,3.06-.63,1.37-.41,2.42-.62,3.15-.63.24,0,.7.02,1.37.07.67.05,1.13.08,1.37.08.37,0,.91-.07,1.64-.2,2.13-.51,4.83-1.35,8.11-2.52ZM176.48,240.81l-8.48-1.4,8.23-19.65.25,21.06ZM232.84,226.53c.06-.18.47-1.27,1.24-3.26.77-1.99,1.15-3.35,1.14-4.08-.02-1.71-.96-3.59-2.81-5.64-1.85-2.05-4.58-3.05-8.18-3.01-1.16.01-2.19.18-3.1.49.77-2.08,2.43-3.14,4.99-3.17,2.93-.03,6.27.55,10.03,1.75,3.76,1.2,5.66,2.72,5.68,4.55.02,1.52-.96,3.73-2.94,6.62-1.98,2.89-4,4.8-6.06,5.74ZM295.48,238.09l-8.65-1.43,8.39-20.04.26,21.47Z"/>
  </g>
  <g>
    <path class="st0" d="M151.36,250.37c-.2,0-.4-.03-.6-.11-.93-.34-1.43-1.34-1.09-2.28l.02-.05c.27-.72.96-1.17,1.69-1.17.21,0,.41.04.62.11.93.35,1.41,1.36,1.07,2.29-.27.74-.97,1.21-1.72,1.21h0Z"/>
    <path d="M151.39,248.55s-.02.04-.02.06c0-.02.02-.04.02-.06"/>
  </g>
</svg>