<?xml version="1.0" encoding="UTF-8"?>
<svg id="Layer_1" data-name="Layer 1" xmlns="http://www.w3.org/2000/svg" viewBox="0 0 117.68 190.45">
  <defs>
    <style>
      .cls-1 {
        fill: #f3be98;
      }

      .cls-1, .cls-2, .cls-3, .cls-4, .cls-5, .cls-6, .cls-7, .cls-8, .cls-9, .cls-10, .cls-11, .cls-12 {
        fill-rule: evenodd;
      }

      .cls-2 {
        fill: #ccc;
      }

      .cls-3 {
        fill: #f7e2cb;
      }

      .cls-4 {
        fill: #fff;
      }

      .cls-5 {
        fill: #005083;
      }

      .cls-6 {
        fill: #272626;
      }

      .cls-7 {
        fill: #fff6f0;
      }

      .cls-13 {
        fill: #7e7e7e;
      }

      .cls-8 {
        fill: #c7c6c5;
      }

      .cls-9 {
        fill: #29381f;
      }

      .cls-11 {
        fill: #ddd;
      }

      .cls-12 {
        fill: #fffefe;
      }
    </style>
  </defs>
  <path class="cls-3" d="M93.45,86.07c.73-.08,1.33.19,1.95.26.64.08,1.29.14,1.93.1.64-.04,1.29-.11,1.92-.24.63-.12,1.26-.28,1.87-.49.61-.21,1.21-.46,1.78-.76.57-.3,1.13-.64,1.65-1.01.52-.37,1.02-.79,1.5-1.23.47-.43.9-.91,1.37-1.38.47.72.51,1.49.47,2.26-.07,1.15-.55,2.13-1.32,2.98-.89.99-2.03,1.6-3.3,1.92-1.41.35-2.85.42-4.3.18-1.16-.19-2.28-.5-3.36-.97-.68-.3-1.31-.68-1.84-1.2-.1-.1-.18-.24-.32-.43Z"/>
  <path class="cls-3" d="M89.74,84.17c.57.34,1.07.64,1.59.94.04.18.09.36.1.54.06.74.4,1.34.87,1.89.51.59,1.12,1.06,1.81,1.41.63.31,1.29.56,1.94.84.14.06.27.12.38.16.06.21-.08.26-.17.32-1.76,1.26-3.73,2.13-5.76,2.87-2.4.87-4.87,1.32-7.42,1.05-5.19-.55-9.05-3.07-11.3-7.87-.22-.47-.34-.98-.5-1.48-.12-.39-.14-.78-.05-1.22.15-.02.3-.06.44-.05.52.04,1.04.11,1.56.16,1.6.14,3.14.53,4.61,1.21,1,.46,2,.95,3,1.4.92.42,1.87.78,2.88.93,2.27.33,4.11-.36,5.46-2.25.18-.25.33-.51.55-.84Z"/>
  <path class="cls-12" d="M52.1,75.81c-.74.35-1.39.6-2.08.76-2.16.51-4.35.84-6.55,1.05-1.9.18-3.81.19-5.72.08-1.7-.1-3.34-.51-4.96-1.01-2.39-.74-4.65-1.78-6.85-2.96-1.66-.89-2.89-2.18-3.71-3.87-1.04-2.14-1.81-4.38-2.08-6.76-.06-.49-.02-.98,0-1.47,0-.11.08-.21.14-.35.77.21,1.51.4,2.25.61,1.57.47,3.18.71,4.8.87,1.51.14,1.77.23,2.8,1.33.35.38.67.81.93,1.26.37.63.87.99,1.59,1.12,1.1.19,2.21.19,3.31.21.65.01,1.1-.36,1.36-.94.18-.39.31-.8.45-1.21.2-.57.54-1.03.99-1.43.26-.23.54-.38.9-.41.95-.1,1.89-.24,2.83-.36,2.41-.31,4.78-.84,7.13-1.46,2.66-.7,5.22-1.66,7.64-2.96,1.93-1.04,3.75-2.24,5.3-3.82,1.32-1.34,2.28-2.9,2.75-4.73.17-.65.27-1.32.35-1.99.18-1.57.03-3.14-.11-4.7-.11-1.22-.26-2.44-.55-3.64-.22-.93-.47-1.85-.86-2.72-.37-.85-.85-1.64-1.53-2.29-1.31-1.28-2.87-1.85-4.71-1.61-1.17.15-2.29.44-3.4.81-5.82,1.9-11.73,3.46-17.74,4.65-3.23.64-6.46,1.23-9.73,1.65-2.35.3-4.7.59-7.05.89-.67.08-1.34.17-2.02.23-.36.03-.73.09-1.11-.04-.18-.4-.28-.82-.3-1.25-.19-3.77,1.26-7.77,2.62-11.25.87-2.23,2.11-4.24,3.61-6.09,4.28-5.27,9.4-9.46,15.67-12.17,2.81-1.21,5.72-2.08,8.73-2.6,2.59-.44,5.2-.56,7.82-.39,7.55.51,14.23,3.16,19.98,8.12,2.62,2.26,4.94,4.81,6.85,7.7,1.9,2.87,3.29,5.98,4.14,9.32.08.32.14.66.22,1.05-.16,0-.28,0-.39-.01-2.18-.29-4.29-.05-6.34.78-1.96.79-3.56,2.06-4.87,3.7-1.53,1.91-2.5,4.09-3.11,6.43-.31,1.19-.5,2.41-.69,3.62-.27,1.76-.59,3.51-1.07,5.24-.72,2.63-2.2,4.73-4.4,6.31-1.3.93-2.63,1.82-3.97,2.7-1.34.88-2.64,1.81-3.86,2.84-1.77,1.51-3.33,3.19-4.44,5.26-.6,1.13-.97,2.33-1.11,3.59-.05.42,0,.86.01,1.29.02.33.06.67.1,1.05Z"/>
  <path class="cls-11" d="M54.77,77.37c-18.26,3.25-29.79.49-33.93-8.9,13.54,6.65,26.86,6.22,39.97-.95-2.01,3.28-4.03,6.56-6.04,9.85Z"/>
  <path class="cls-3" d="M84.16,59.94c-.2.2-.39.39-.59.58-1.61,1.58-2.79,3.43-3.5,5.57-.34,1.03-.52,2.09-.5,3.17,0,.21-.01.42-.02.68-.16.03-.3.08-.45.07-.86,0-1.72-.02-2.58.11-.21.03-.43.02-.64.03-.29.01-.54-.09-.75-.3-.34-.35-.7-.69-1.05-1.04-.74-.73-1.66-1.16-2.59-1.56-.17-.07-.35-.11-.54-.13-.36-.04-.74.21-.88.55-.12.3-.03.7.24.92.14.12.31.2.47.28.25.12.5.23.75.34.57.26,1.07.61,1.5,1.05.24.24.48.48.71.73.72.81,1.62,1.06,2.67.93.4-.05.79-.08,1.19-.11.43-.03.86-.05,1.29-.07,2.58-.08,4.88.61,6.69,2.52,1.66,1.75,2.61,3.86,2.86,6.26.08.73.01,1.47-.19,2.19-.57,2.09-2.29,3.17-4.54,2.7-.94-.2-1.82-.57-2.68-.98-.83-.4-1.67-.78-2.5-1.17-1.98-.93-4.08-1.36-6.25-1.45-2.15-.1-4.3-.11-6.46-.06-2.58.06-5.08-.42-7.45-1.48-1.1-.49-2.11-1.15-2.93-2.05-1.68-1.85-2.13-3.96-1.33-6.33.34-1,.88-1.9,1.49-2.75,1.05-1.46,2.37-2.67,3.76-3.79,1.23-.98,2.55-1.83,3.85-2.7,1.08-.72,2.14-1.45,3.19-2.2,2.64-1.88,4.31-4.42,5.14-7.54.39-1.49.69-2.99.92-4.51.27-1.73.51-3.47,1.06-5.14.67-2.04,1.64-3.92,3.13-5.48,2-2.08,4.44-3.12,7.34-3.12,1.27,0,2.51.19,3.7.67,1.62.65,2.71,1.77,3.18,3.47.22.8.42,1.6.65,2.4.21.74.42,1.48.66,2.21.58,1.81,1.5,3.43,2.6,4.96.7.97,1.37,1.97,2.02,2.98.42.65.73,1.35.92,2.11.39,1.59.09,3.07-.84,4.39-1.05,1.5-2.5,2.46-4.31,2.78-2.95.53-5.46-.41-7.57-2.47-1.13-1.11-1.99-2.42-2.71-3.83-1.12-2.18-1.85-4.48-2.24-6.9-.05-.3-.08-.61-.15-.91-.11-.49-.47-.75-.93-.72-.43.03-.74.37-.78.88,0,.09,0,.18,0,.28.02.21.02.43.06.64.39,2.09.91,4.14,1.78,6.09.98,2.22,2.21,4.25,3.96,5.96.06.06.09.15.16.26Z"/>
  <path class="cls-3" d="M95.78,46.7c.16-.65.3-1.21.44-1.78.12-.48.37-.91.69-1.29,1.55-1.87,3.46-3.21,5.76-4,.97-.33,1.96-.47,2.99-.43,2,.07,3.46,1.29,3.93,3.28.32,1.36.31,2.74.18,4.13-.18,1.87-.43,3.73-.49,5.6-.06,1.92.12,3.81.51,5.68.1.51.18,1.03.3,1.54.12.52.12,1.04.1,1.56-.03.91-.46,1.57-1.23,2.03-.7.41-1.46.65-2.28.66-2.97.05-5.28-1.16-6.98-3.59-.44-.63-.58-1.34-.7-2.07-.03-.19.09-.41.17-.61.38-.96.54-1.95.5-2.98-.04-1.19-.42-2.29-.96-3.34-.58-1.12-1.3-2.16-2.04-3.18-.29-.4-.58-.79-.89-1.22Z"/>
  <path class="cls-1" d="M90.85,89.74c-5.68.75-9.27-1.54-13.3-4.96-.05-.04-.91-1.43.63-.78,3.59,1.54,9.84-.02,9.84-5.23,0-2.14-1.99-7.38-4.67-7.38-1.81,0-3.94.04-7.17.04-3.01,0-1.33-.8-3.1-2.76-.23-.26,3.72-1.65,5.71-5.36,1.78-3.33,1.6-8.96,1.57-9.89-.02-.64,2.49,3.53,5.07,4.18,4.09,1.04,8.2.37,12.15-.78,1.81-.53.14-.99,2.48,1.54,3.58,3.86,10.41,3.54,10.47,3.63.03.05-.74,10.15-.74,11.99,0,6.85-7.53,12.29-13.88,12.77-1.47.11-.93,2.46-5.05,3Z"/>
  <path class="cls-8" d="M28.32,119.58c0,.55-.01,1.11.01,1.66.02.33.07.68.17.99.14.43.63.64,1.05.49.35-.13.57-.38.58-.76.02-.43.03-.86-.02-1.29-.14-1.15.07-2.27.24-3.39.3-1.95.91-3.82,1.64-5.65.57-1.42,1.14-2.86,2.05-4.11.09-.12.15-.27.2-.41.11-.36-.05-.75-.37-.96-.3-.2-.65-.2-.94.03-.19.15-.35.34-.49.54-.48.64-.84,1.36-1.18,2.08-.7,1.51-1.29,3.05-1.8,4.63-.64,2-1.07,4.03-1.13,6.14h0ZM94.94,93.27c-.13.17-.24.36-.4.5-.77.71-1.55,1.4-2.34,2.09-.28.24-.57.47-.85.71-.51.43-.87.95-1.07,1.59-.41,1.35-1.16,2.51-2.05,3.58-1.19,1.43-2.53,2.69-4.02,3.79-2.25,1.65-4.79,2.61-7.53,3.09-2.39.41-4.79.4-7.18.11-3.52-.43-6.83-1.54-9.79-3.57-1.66-1.14-3.13-2.49-4.32-4.12-1.08-1.48-1.82-3.13-2.27-4.91-.08-.3-.13-.6-.22-.89-.05-.17-.14-.34-.25-.48-.23-.29-.6-.38-.91-.26-.36.14-.61.48-.59.85,0,.12.04.24.06.36.11.45.2.9.33,1.34.19.68.38,1.36.48,2.06.18,1.3.72,2.48,1.34,3.62,1.6,2.94,3.79,5.37,6.52,7.3.86.61,1.79,1.08,2.81,1.37.29.08.59.15.94.24.28.85.42,1.75.55,2.66.02.12,0,.25.03.37.22,1.42-.07,2.74-.65,4.04-.64,1.42-1.55,2.65-2.64,3.76-1.91,1.93-4.11,3.42-6.6,4.48-2.98,1.28-6.09,2.14-9.29,2.64-2.44.38-4.9.46-7.36.18-1.69-.19-3.32-.63-4.85-1.39-1.2-.59-2.24-1.38-3.15-2.39.06-.19.14-.36.16-.53.1-.61-.36-1.1-.97-1.03-.27.03-.54.1-.81.17-1.03.24-2.07.29-3.12.24-.84-.04-1.65-.22-2.42-.53-1.4-.57-2.74-1.27-3.79-2.39-.26-.27-.56-.39-.92-.3-.46.11-.85-.06-1.22-.28-.79-.47-1.35-1.16-1.74-1.98-.42-.87-.65-1.79-.8-2.73-.27-1.66-.14-3.32.19-4.95.55-2.7,1.45-5.27,2.89-7.64,1.27-2.1,2.81-3.97,4.82-5.41,1.64-1.18,3.41-2.08,5.41-2.47.12-.02.24-.05.36-.07.35-.06.66.03.94.27.62.52,1.14,1.12,1.62,1.77.8,1.1,1.42,2.3,1.78,3.62.04.15.08.3.15.43.2.4.59.59.99.5.41-.1.74-.55.64-.99-.12-.57-.27-1.14-.48-1.68-.66-1.65-1.62-3.1-2.85-4.38-.17-.18-.33-.36-.52-.57.35-.58.36-1.23.45-1.87.33-2.41,1.16-4.65,2.32-6.77.53-.97,1.15-1.89,1.73-2.83.09-.15.17-.32.33-.39.18.08.15.21.16.32.05.7.08,1.41.16,2.11.06.49.18.97.3,1.44.18.71.56,1.29,1.1,1.78.18.16.37.32.55.49.39.36.43.8.23,1.27-.1.22-.25.43-.39.63-.12.18-.27.34-.41.5-.51.62-.47,1.3-.18,1.99.12.27.33.45.6.53.99.3,2.01.43,3.01.22.65-.14,1.29-.43,1.85-.8.87-.57,1.24-1.43,1.01-2.48-.08-.36-.19-.71-.29-1.07-.05-.17-.1-.35-.15-.53.12-.16.22-.32.34-.45.95-1.06,1.18-2.31,1.04-3.7-.11-1.08-.4-2.11-.67-3.15-.04-.15-.06-.3-.09-.42.11-.2.27-.18.42-.16.64.07,1.28.17,1.93.21,1.11.07,2.21.1,3.32.15.18,0,.36.01.51.02.14.17.02.26-.03.35-.13.24-.31.47-.4.72-.15.41,0,.85.34,1.06.36.22.89.15,1.15-.24.55-.84,1.33-1.44,2.08-2.08.8-.69,1.68-1.24,2.73-1.47.85.49,1.69,1.01,2.55,1.46.9.47,1.87.78,2.85,1.04.95.26,1.91.48,2.9.54.98.06,1.96.09,2.92.13.06.08.13.12.13.17.16,1.89.71,3.68,1.5,5.39.97,2.08,2.25,3.95,3.9,5.56,2.44,2.37,5.34,3.92,8.64,4.72.74.18,1.52.24,2.28.33.58.07,1.16.13,1.75.14.64.01,1.29-.02,1.94-.06.15,0,.3-.08.43-.15.56-.32.56-1.13,0-1.44-.27-.15-.57-.18-.89-.16-2.01.12-4-.04-5.94-.62-4.19-1.25-7.45-3.72-9.66-7.52-.92-1.58-1.63-3.24-1.96-5.05-.07-.39-.1-.79-.15-1.18.39-.22.74-.14,1.13-.1.03.28.04.52.07.76.13,1.01.41,1.99.85,2.91,1.98,4.12,5.18,6.8,9.55,8.1,1.6.47,3.24.73,4.92.67,2.29-.08,4.52-.48,6.66-1.32.97-.38,1.92-.82,2.89-1.22.22-.09.42-.27.69-.22l-.02-.02Z"/>
  <path class="cls-5" d="M36.82,152.75c-.47.03-1.17.06-1.88.11-.18.01-.37.06-.54.12-.17.06-.34.14-.48.26-.48.4-.39,1.1.17,1.38.19.09.4.15.62.1.3-.06.61-.07.91-.12,1.18-.19,2.34-.04,3.47.29,1.59.46,2.87,1.38,3.88,2.68.21.27.4.55.61.81.11.14.23.3.37.41.29.22.61.29.95.1.34-.19.46-.5.42-.85-.03-.2-.11-.42-.23-.59-.9-1.39-2.04-2.53-3.47-3.39-1.41-.85-2.96-1.18-4.81-1.31h0ZM31.4,163.03c-.59-1.09-1.1-2.11-1.46-3.19-.33-.98-.45-1.98-.19-3,.09-.36.15-.72.22-1.08.18-.96.16-1.9-.25-2.8-.33-.73-.68-1.45-1.06-2.15-1.29-2.38-2.54-4.78-3.59-7.28-1.38-3.3-2.43-6.7-3.37-10.15-.05-.2-.08-.41-.12-.59.15-.16.25-.06.36-.02,2.24.86,4.47,1.74,6.72,2.57,3,1.1,6.04,2.09,9.14,2.87,1.91.48,3.83.91,5.77,1.22,1.27.2,2.55.43,3.83.58,1.44.17,2.88.22,4.33.17.48-.02.96-.13,1.48-.2.05.1.13.19.16.3,1.51,4.68,3.24,9.29,4.9,13.92,1.06,2.95,2.17,5.89,3.23,8.84.94,2.6,1.81,5.23,2.51,7.91.28,1.08.44,2.16.44,3.31-.64.47-1.38.64-2.16.58-1.23-.1-2.34-.53-3.23-1.42-.56-.57-1.11-1.15-1.65-1.74-.91-1.01-1.92-1.91-3.05-2.67-1.42-.96-3-1.56-4.67-1.88-1.12-.21-2.25-.3-3.38-.48-.6-.1-1.21-.23-1.79-.41-.72-.21-1.21-.7-1.46-1.42-.12-.35-.26-.69-.42-1.02-.67-1.41-1.84-2.18-3.32-2.54-1.01-.25-2.02-.16-3.02.03-1.37.27-2.65.77-3.93,1.32-.31.13-.62.27-.99.43Z"/>
  <path class="cls-4" d="M64.5,176.29c.06.14.12.22.12.31.09.98.23,1.95.18,2.94-.05.98-.07,1.97-.1,2.95-.02.52-.04,1.05.08,1.56.02.08-.01.17-.03.31-.22.01-.43.04-.63.04-2.06,0-4.12,0-6.19,0-2.25,0-4.49,0-6.74,0-1.94,0-3.88,0-5.82,0-2.09,0-4.18,0-6.28,0-1.57,0-3.14,0-4.71,0-2.46,0-4.92,0-7.39,0-2,0-4,0-6,0-2.06,0-4.12,0-6.19,0-2,0-4,0-6,0-.52,0-1.04.02-1.58.03-.31-.48-.38-1-.4-1.51-.04-.7.01-1.41.07-2.12.04-.5.26-.95.66-1.28.75-.62,1.12-1.44,1.3-2.38.06-.33.17-.65.27-.98.03-.08.1-.15.14-.23.07-.02.12-.06.18-.06,1.01-.04,2.03-.08,3.04-.11,1.97-.05,3.94-.1,5.9-.14.12,0,.25,0,.37,0,3.05,0,6.09,0,9.14.02,2.65,0,5.29.06,7.94.03,2.86-.04,5.72.07,8.58.17.86.03,1.71.03,2.57.07,2.55.12,5.1.25,7.65.38.98.05,1.97.08,2.95.14.58.03,1.16.1,1.75.14.27.02.58.08.82-.02.43-.18.83-.11,1.25-.04,1.06.17,1.86.1,3.07-.22Z"/>
  <path class="cls-3" d="M51.75,50.03c.01-.13.01-.26.03-.37.03-.15.08-.3.1-.45.1-.93-.5-1.56-1.42-1.48-.33.03-.66.13-.97.26-.42.18-.83.4-1.23.64-2.28,1.35-4.47,2.83-6.54,4.47-.36.29-.71.59-1.04.91-.19.19-.36.42-.48.67-.24.52.13,1.09.7,1.13.32.02.59-.1.86-.27.52-.33,1.04-.66,1.57-.96,1.59-.89,3.33-1.43,5.02-2.07.37-.14.78-.17,1.18-.19.52-.03,1.05.01,1.57,0,.34,0,.68-.03,1-.09.46-.09.81-.47.84-.87.03-.43-.15-.78-.53-1-.21-.12-.43-.21-.67-.33h0ZM21.29,53.42c-.27.04-.43.06-.57.1-.18.05-.36.1-.52.18-.41.19-.64.65-.56,1.07.08.38.41.69.84.74.27.03.56.03.83,0,.33-.04.68-.09,1-.19.57-.19,1.14-.19,1.73-.15,1.78.13,3.54.42,5.29.78.3.06.6.13.91.17.68.1,1.22-.4,1.15-1.09-.03-.35-.16-.66-.47-.86-.46-.31-.91-.63-1.4-.9-1.42-.8-2.91-1.48-4.45-2.02-.87-.3-1.76-.53-2.66-.76-.48-.12-.97-.15-1.46.01-.8.26-1.13,1.02-.76,1.76.11.22.27.41.44.59.16.18.36.33.65.58h0ZM49.12,40.02c.12-.09.2-.19.3-.22,1.09-.32,2.18-.66,3.31-.79,1.4-.17,1.61-.02,2.24,1.11.33.59.58,1.22.8,1.86.61,1.82.98,3.68,1.06,5.6.03.71.04,1.41.05,2.12,0,.18-.02.37-.04.55-.12,1.16-.64,2.1-1.57,2.82-.68.53-1.4,1-2.17,1.4-2.3,1.21-4.74,2.05-7.24,2.73-2.02.55-4.07.95-6.16,1.15-1.32.12-2.63.24-3.95.36-.08,0-.17-.03-.26-.05.28-1.02.56-2.02.82-3.03.08-.33.15-.66.16-1,.02-.46-.27-.8-.67-.87-.42-.08-.8.12-.96.54-.12.31-.2.65-.28.97-.28,1.2-.62,2.37-1.1,3.5-4.06.59-12.34-.53-15.56-2.14-.21-.64-.47-1.34-.67-2.04-.67-2.31-1.06-4.67-1.21-7.08-.02-.26.01-.49.23-.66.02-.02.05-.04.07-.06.74-1.24,1.94-1.61,3.27-1.77.02,0,.04.03.09.06-.23.17-.45.33-.67.49-.54.4-.64.96-.54,1.56.09.53.63.81,1.13.62.11-.04.22-.1.33-.16,1.31-.71,2.72-.95,4.19-.86.75.05,1.44.31,2.1.66.44.23.86.49,1.29.72.68.36,1.41.45,2.15.28.75-.17,1.36-.55,1.69-1.3.15-.35.19-.7.1-1.08-.11-.46-.31-.87-.59-1.24-.16-.22-.33-.44-.53-.7,1.66-.23,3.27-.42,4.86-.67,1.6-.25,3.19-.57,4.84-.87-.13.34-.26.64-.36.95-.25.8-.21,1.59.21,2.32.4.71.99,1.16,1.86,1.15.49,0,.89-.21,1.25-.52.21-.18.39-.39.58-.6,1.08-1.18,2.45-1.73,4.01-1.84.96-.07,1.91.03,2.84.29.32.09.63.24.94.38.17.08.31.2.48.27.47.21.92.06,1.18-.4.43-.74.38-1.35-.18-2.04-.77-.95-1.77-1.61-2.87-2.13-.25-.12-.51-.21-.82-.34Z"/>
  <path class="cls-6" d="M11.32,173.96c.05-.24.06-.46.15-.64.31-.72.82-1.29,1.43-1.78,1.13-.89,2.41-1.47,3.75-1.94,1.4-.49,2.83-.81,4.27-1.15,2.96-.7,5.89-1.52,8.7-2.7.99-.41,1.97-.86,2.96-1.3,1.04-.46,2.09-.91,3.18-1.22.83-.23,1.67-.41,2.54-.36.47.03.91.15,1.33.33.74.32,1.25.88,1.55,1.62.18.43.33.86.5,1.33-.16.24-.33.48-.5.74-.34.53-.54,1.1-.5,1.74.04.65.37,1.11.98,1.32.34.12.72.18,1.08.18.39,0,.63.17.84.47.59.85,1.01,1.76,1.08,2.8.01.15.02.3.04.51-.15.03-.29.07-.43.09-.06.01-.12,0-.18,0-3.2-.05-6.4-.12-9.59-.16-3.11-.03-6.21-.04-9.32-.05-1.35,0-2.71,0-4.06.02-1.78.01-3.57.02-5.35.06-1.35.03-2.7.09-4.05.13-.11,0-.23-.04-.4-.07Z"/>
  <path class="cls-6" d="M16.42,44.14c.03-.71.37-1.13.58-1.64.35-.05.71-.11,1.08-.15,2.14-.24,4.28-.46,6.41-.73,1.95-.24,3.9-.51,5.84-.82,3.43-.55,6.84-1.22,10.23-1.95,4.93-1.07,9.77-2.46,14.58-3.99.85-.27,1.72-.45,2.59-.66.12-.03.24-.05.36-.07,1.58-.17,2.83.4,3.74,1.7.43.61.74,1.28.98,1.98.53,1.55.8,3.16.95,4.78.09,1.04.2,2.09.21,3.13.04,2.55-.6,4.87-2.39,6.78-.91.97-1.94,1.8-3.04,2.53-2.72,1.8-5.68,3.06-8.81,3.94-2.81.8-5.67,1.38-8.58,1.74-1.86.23-3.73.37-5.61.47-2.34.13-4.68.09-7.01-.1-2.14-.17-4.28-.47-6.33-1.16-.28-.09.45-.08.5-.06,2.9.62,5.84.85,8.8.79,1.41-.03,2.83-.13,4.24-.2.71-.04,1.41-.1,2.12-.14,4.45-.28,8.76-1.24,12.92-2.83,1.35-.52,2.67-1.11,3.91-1.86.79-.47,1.54-1.01,2.22-1.65.96-.91,1.5-2.02,1.62-3.33.13-1.38.13-2.76-.01-4.15-.17-1.66-.48-3.29-1-4.87-.21-.64-.45-1.28-.73-1.89-.22-.47-.51-.91-.82-1.34-.71-1-1.72-1.33-2.91-1.23-1.17.1-2.31.35-3.43.69-1.59.48-3.18.96-4.76,1.45-3.3,1.01-6.64,1.81-10.05,2.32-1.79.27-3.6.47-5.4.66-1.41.15-2.82.26-4.23.37-.83.06-1.66.08-2.49.15-1.07.09-2.14.19-3.21.34-1.04.15-2.05.4-3.09.97Z"/>
  <path class="cls-8" d="M18.85,124.44c1.01.53,1.98,1.05,2.98,1.57,0,.16.01.34-.02.51-.09.42-.21.83-.29,1.26-.05.24-.07.49-.04.73.04.36.38.66.75.72.31.05.69-.14.84-.46.1-.22.17-.46.23-.7.1-.39.17-.78.26-1.17.03-.11.09-.22.14-.32.49.01.95.03,1.4.04.43,0,.86.02,1.29,0,.46-.02.91-.09,1.36-.14.37.43.71.82,1.07,1.23-.18.82-.36,1.63-.52,2.44-.05.27-.09.55-.09.82,0,.4.3.7.68.77.39.07.76-.09.92-.45.11-.25.18-.52.25-.79.11-.45.2-.9.3-1.37.1.01.2,0,.26.03,1.33.85,2.77,1.45,4.25,1.87.19.19.12.38.09.55-.06.36-.16.72-.19,1.09-.03.45.25.8.64.89.39.09.81-.12.98-.52.12-.28.19-.59.27-.88.06-.2.09-.41.14-.64.46-.1.87.11,1.29.1.4,0,.8.05,1.2.07.43.02.86.02,1.29.03.39,0,.79-.06,1.2.06.06.34-.01.64-.02.94,0,.31-.03.62-.01.92.03.46.33.77.74.81.41.05.85-.27.94-.72.06-.3.07-.61.1-.92.03-.28.06-.55.09-.83.02-.12.05-.24.09-.39.15-.04.28-.11.43-.13.91-.14,1.82-.28,2.73-.42.15-.02.3-.06.45-.08.54-.06.75.12.75.65,0,.52-.03,1.05-.04,1.57,0,.21,0,.43.04.64.07.39.39.67.76.69.4.02.79-.25.89-.66.05-.21.06-.43.07-.64.02-.49.03-.98.05-1.48,0-.15.04-.29.07-.47.94-.09,1.81.06,2.68.23.23.31.09.66.12.99.03.32.11.6.37.81.42.35,1.11.18,1.29-.34.08-.23.07-.48.1-.72.03-.21.07-.41.1-.65l1.69.05c.32.82.2,1.29-.45,1.76-.12.09-.25.17-.39.24-1.37.7-2.78,1.29-4.33,1.51-.98.13-1.94.31-2.93.35-.61.02-1.23.05-1.84.08-2.16.1-4.31-.05-6.45-.26-5.74-.56-11.26-1.97-16.44-4.56-1.07-.54-2.11-1.14-3.14-1.75-.45-.26-.86-.59-1.25-.94-.52-.45-.77-1.03-.66-1.73.1-.66.15-1.34.47-1.94Z"/>
  <path class="cls-7" d="M99.27,73.24c-.02.09-.02.19-.06.27-.21.36-.16.71.02,1.06.1.19.2.38.31.57.56.97,1.05,1.95,1.08,3.1,0,.21.09.42.17.62.06.15.21.22.37.21.15,0,.3-.14.32-.28,0-.06.03-.12.02-.18-.13-.91-.18-1.84-.63-2.68-.2-.38-.39-.76-.59-1.15-.1-.19-.21-.38-.29-.57-.08-.17,0-.37.16-.49.21-.15.43-.24.69-.23.65.03,1.29.06,1.94.09.06,0,.13.01.17.05.06.06.14.14.15.22,0,.12-.03.24-.06.36-.21.71-.56,1.36-.93,2.01-.11.19-.23.36-.34.55-.12.22-.08.48.06.59.15.11.42.06.57-.13.17-.22.33-.45.46-.69.47-.8.86-1.63,1.07-2.5.07-.04.09-.06.12-.07.23-.08.51-.13.48-.46-.02-.24-.22-.37-.43-.44-.32-.1-.65-.19-.98-.26-.3-.06-.61-.09-.91-.13-1.32-.17-1.9-.06-2.98.58.12-.25.24-.49.35-.75.36-.82.41-1.67.12-2.51-.37-1.06-1.1-1.78-2.22-1.98-1.17-.21-2.11.26-2.8,1.2-.7.95-.85,2.02-.46,3.14.77,2.19,3.3,2.5,4.63,1.19.13-.13.28-.22.42-.33h0ZM89.74,71.29c-.01-.61.06-1.09.25-1.59.17-.01.35-.04.53-.04.62,0,1.23.04,1.85.03.37,0,.74-.06,1.09-.13.45-.09.77-.38.93-.81.1-.26.17-.53.22-.8.14-.89.11-1.78.07-2.67-.03-.57-.23-1.07-.59-1.52.29-.35.7-.41,1.06-.63.62.37.86.97,1.03,1.59.1.38.12.79.18,1.18.05.33.07.67.14,1,.09.43.37.61.81.59.29,0,.55-.11.77-.28,1.1-.89,2.2-1.79,2.76-3.16.02-.05.08-.09.15-.17.49.27.99.55,1.51.85-.38,1.1-.83,2.09-1.65,2.88-.2.19-.38.4-.58.6-.49.51-.47,1.11-.25,1.72.11.31.35.51.67.57.24.05.49.05.73.08.91.11,1.84.13,2.69.56.25.13.48.05.57-.12.12-.21.03-.46-.25-.61-.63-.35-1.32-.5-2.03-.57-.4-.04-.8-.04-1.2-.08-.5-.05-.7-.54-.38-.95.09-.12.22-.22.31-.34.4-.47.79-.94,1.18-1.41.06-.07.13-.11.22-.19.56.7.89,1.48,1.08,2.33.03.15.04.31.09.45.06.16.2.23.37.22.18,0,.3-.12.31-.28,0-.3.04-.63-.05-.91-.2-.58-.44-1.14-.71-1.7-.16-.33-.39-.62-.59-.94-.11-.18-.05-.35.06-.51.19-.03.27.1.36.22.8,1.08,1.34,2.29,1.59,3.6.49,2.57.15,5.02-1.22,7.29-1.09,1.8-2.6,3.09-4.67,3.68-1.64.46-3.22.3-4.76-.41-.11-.05-.19-.14-.32-.23.32-.33.61-.63,1.03-.77,1.04-.35,1.92-.95,2.64-1.78.02-.02.05-.02.08-.03.61.47.71.69.71,1.66-.27.3-.66.4-1.04.52-.29.09-.6.13-.9.2-.34.08-.5.24-.48.46.03.27.29.42.63.36.92-.15,1.78-.45,2.62-.97.22-.72.05-1.43-.3-2.08-.37-.71-.91-1.32-1.54-1.82-.85-.66-1.51-.53-2.04.42-.18.32-.32.67-.43,1.01-.31.98-.85,1.77-1.79,2.33-.35-.13-.61-.4-.87-.76.12-.12.22-.24.33-.33.59-.5.91-1.17,1.05-1.9.14-.69.19-1.4.28-2.1.02-.15.02-.31.01-.46-.02-1.01-.33-1.47-1.29-1.78-.46-.15-.95-.23-1.44-.32-.51-.09-1.02-.16-1.6-.24Z"/>
  <path class="cls-6" d="M81.51,70.14c-.31-1.17-.09-2.2.2-3.2.6-2.09,1.73-3.86,3.32-5.33.09-.08.19-.16.28-.24.26-.23.53-.28.84-.1.21.13.43.23.66.34.9.41,1.82.75,2.8.86.21.02.41.1.59.15.09.2-.05.26-.12.33-1.81,1.94-2.91,4.24-3.41,6.83-.13.66-.13,1.34-.19,2.02-.02.2-.04.41-.07.68-.35-.14-.55-.38-.8-.54-.26-.17-.51-.35-.77-.51-.26-.16-.53-.31-.81-.44-.25-.12-.5-.23-.76-.33-.29-.11-.58-.21-.87-.3-.29-.09-.59-.15-.9-.23Z"/>
  <path class="cls-6" d="M45.32,169.83c.15-.24.42-.23.65-.31q.9-.3,1.55-.94c.99.13,1.99.26,2.97.56,1.43.44,2.72,1.13,3.87,2.08,1.17.96,2.12,2.13,3.14,3.22-.18.27-.41.16-.61.16-1.97-.08-3.94-.17-5.9-.27-1.29-.06-2.58-.13-3.87-.2-.18,0-.35-.05-.52-.07-.42-2.72-.4-2.18-1.28-4.22Z"/>
  <path class="cls-8" d="M38.42,92.26c.16-.29.3-.52.43-.76.65-1.28.47-2.44-.54-3.45-.13-.13-.26-.26-.41-.37-.56-.41-.83-.99-.92-1.65-.12-.82-.21-1.65-.25-2.47-.04-.77,0-1.54,0-2.3,0-.12.03-.24.05-.4.12-.02.24-.06.35-.05,1.18.18,2.37.36,3.55.54.06,0,.11.05.19.08.04.06.11.13.13.21.38,1.2.73,2.41.9,3.66.06.48.03.98.02,1.47-.01.42-.22.76-.47,1.08-.15.19-.33.37-.49.55-.43.51-.54,1.09-.35,1.73.07.24.17.46.24.69.07.2.13.41.17.62.07.49-.1.76-.57.91-.5.16-1.03.21-1.55.15-.16-.02-.31-.15-.49-.24Z"/>
  <path class="cls-7" d="M104.2,65.33c.46-.06.79.12,1.15.17.78,1.32,1.21,2.72,1.39,4.19.2,1.73.05,3.44-.51,5.1-.94,2.83-2.62,5.07-5.3,6.47-1.54.81-3.19,1.14-4.91.91-2.27-.3-4.11-1.39-5.54-3.18-.41-.51-.74-1.05-.95-1.68-.16-.46-.37-.91-.59-1.35-.24-.47-.4-.96-.49-1.48-.69-4.07.37-7.62,3.22-10.61.53-.55,1.15-1.01,1.75-1.5.11-.09.27-.14.42-.18,1.32-.41,2.47-1.09,3.47-2.04.07-.06.15-.11.26-.18.4.62.76,1.25,1.24,1.95-.33,0-.5-.01-.68-.02-2.76-.16-4.98.94-6.73,3-1.9,2.22-2.63,4.84-2.44,7.72.16,2.45,1.04,4.6,2.77,6.38.94.97,2.04,1.7,3.34,2.06,2.7.76,5.19.28,7.37-1.51,2.07-1.7,3.19-3.93,3.56-6.57.23-1.67.09-3.31-.43-4.92-.24-.73-.56-1.43-.96-2.09-.12-.2-.24-.4-.38-.64Z"/>
  <path class="cls-8" d="M63.58,122.17c.43.69.59,1.33.7,2,.09.55.15,1.09,0,1.64-.22.87-.71,1.56-1.39,2.12-.88.71-1.9,1.13-2.98,1.4-1.16.3-2.34.49-3.55.48-1.07,0-2.15-.05-3.22-.08-.2,0-.39-.06-.78-.12,2.29-.82,4.34-1.7,6.22-2.94,1.86-1.23,3.48-2.72,5-4.49Z"/>
  <path class="cls-6" d="M107.38,65.46c.38-.09.64-.16.86-.21.22.08.26.23.31.37.49,1.44.78,2.9.81,4.43.03,2.02-.22,3.99-.94,5.88-1.11,2.94-2.91,5.33-5.6,7-2.13,1.33-4.45,1.91-6.96,1.66-1.9-.2-3.64-.87-5.19-1.99-.45-.33-.45-.33-.29-1.05.23.17.45.31.67.47,1.53,1.17,3.28,1.82,5.18,1.99,1.65.14,3.25-.17,4.77-.82,2.34-1,4.14-2.63,5.49-4.77,1.61-2.55,2.26-5.36,2.07-8.36-.08-1.29-.37-2.55-.86-3.76-.1-.25-.19-.51-.32-.84Z"/>
  <path class="cls-1" d="M91.7,77.74c-1.28-1.64-1.85-3.44-1.98-5.46.18-.02.32-.07.46-.05.67.09,1.33.18,2,.29.18.03.35.11.52.18.31.12.5.34.5.69,0,1.01-.04,2.03-.34,3-.17.56-.47,1.06-1.15,1.34Z"/>
  <path class="cls-1" d="M90.23,68.67c.6-1.92,1.72-3.53,3.07-4.4.29.11.41.37.46.63.22,1.13.23,2.25-.08,3.37-.09.34-.32.52-.66.55-.21.02-.43.04-.64.03-.64-.02-1.29-.04-1.93-.07-.05,0-.11-.05-.22-.1Z"/>
  <path class="cls-3" d="M111.19,69.67c.13.06.22.08.28.14,1.42,1.47,1.66,3.71.46,5.5-.48.72-1.12,1.28-1.86,1.78-.04-.39-.03-.38.08-.7.09-.23.17-.46.24-.69.08-.26.16-.53.23-.79.06-.24.11-.48.16-.72.05-.24.09-.48.13-.72.04-.24.09-.48.12-.72.03-.24.06-.49.07-.73.02-.27.03-.55.04-.83,0-.25.01-.49.02-.74,0-.24.01-.48.02-.77Z"/>
  <path class="cls-12" d="M36.44,63.08c-.2.53-.41,1.06-.62,1.6-.02.05-.08.09-.16.18-.82.01-1.67-.06-2.52-.1-.23-.01-.4-.13-.52-.33-.26-.41-.53-.82-.8-1.21.01-.04,0-.08.03-.09.02-.02.05-.03.08-.04,1.44-.04,2.88-.07,4.32-.1.05,0,.1.05.19.09Z"/>
  <path class="cls-2" d="M98.82,65.45c-.27-.32-.52-.63-.79-.91-.27-.29-.58-.54-.86-.83-.28-.28-.68-.41-.93-.79.67-.31,1.34-.26,1.99-.21.64.05,1.26.16,1.83.48.02,1.02-.63,1.59-1.25,2.25Z"/>
  <path class="cls-1" d="M97.19,76.31c-.32.7-.84,1.08-1.53,1.41.13-.61.32-1.11.61-1.57.17-.28.39-.31.7-.1.07.05.12.14.22.26Z"/>
  <path class="cls-1" d="M98.07,66.16c-.26.18-.48.33-.75.52-.15-.62-.23-1.17-.21-1.85.47.39.81.72.95,1.32Z"/>
  <path class="cls-4" d="M44.24,168.15c-.57.08-1.02.15-1.46.2-.05,0-.11-.05-.18-.08-.03-.31.14-.49.43-.68.37.1.76.24,1.21.56Z"/>
  <path class="cls-4" d="M21.57,59.75s-.07-.04-.1-.06c.03,0,.06-.02.09-.01.06,0,.11.03.17.04l-.15.03Z"/>
  <polygon class="cls-4" points="94.96 93.29 95 93.23 94.94 93.27 94.96 93.29"/>
  <path class="cls-7" d="M98.54,71.61c.06-.06.2-.14.24-.26.08-.21-.11-.45-.32-.44-.17,0-.35.19-.36.36,0,.17.16.33.43.35h0ZM96.01,73.21c.15-.01.27-.02.39-.04.6-.09.99-.45,1.25-.97.45-.91.23-2.6-1.11-2.98-.08-.02-.15-.09-.23-.14.52-.29.69-.32,1.07-.22.97.25,1.56.97,1.69,2.06.13,1.07-.58,2.19-1.59,2.53-.54.18-.89.13-1.47-.23Z"/>
  <path class="cls-7" d="M95.44,71.23c.01-.47.13-.78.38-1.02.27-.26.64-.23.89.04.43.49.44,1.37.02,1.86-.29.34-.73.32-1.01-.06-.2-.27-.29-.59-.28-.82Z"/>
  <polygon class="cls-8" points="7.95 177.57 44.18 177.57 44.18 184.95 42.6 184.95 42.6 179.15 7.95 179.15 7.95 177.57"/>
  <path class="cls-9" d="M44.96,137.56l9.22,23.68.02.05c.15.48.51,1.05.92,1.7,1.2,1.9,2.75,4.34,1.7,8.28l-1.52-.4c.87-3.28-.47-5.39-1.51-7.04-.46-.73-.87-1.37-1.08-2.05l-9.21-23.65,1.47-.57Z"/>
  <rect class="cls-13" x="38.28" y="88.76" width="3" height="1.58"/>
  <path class="cls-1" d="M15.35,48.19c.49-1.63,7.68-1.09,9.1-1.09,5.81,0,9.42.35,15.11-1.41,2.49-.77,7.33-1.95,9.88-1.95,1.77,0,6.99-.09,8.01,1.67.12.2-.74-3.08-1.79-4.84-1.08-1.81-.15-3.18-4.26-1.68-1.73.63-7.58,2.21-9.29,2.3-5.38.3-16.9,1.3-21.18,2.72-1.6.53-4.39.48-5.26,2.91-.18.49.21.77-.29,1.2-.07.06-.02.12-.03.16Z"/>
  <path class="cls-2" d="M100.61,70.05c.24.16,2.36.3,2.64.5,0,0,.63.21.63-.18,0-1.43.23-.82-.32-2.29-.39-1.03-.21-.67-.95-1.22-.28-.21-1.48,1.13-1.57,1.35-.26.61-.86.73-.56,1.54.09.24-.12.08.16.25l-.03.06Z"/>
  <path class="cls-2" d="M101.05,78.12c.43-.14,1.65-2.27,1.95-2.78.26-.45.56-1.19.44-1.73-.06-.26-2.54-.65-3.05-.39-.81.41-.7.13-.68,1.4,0,.59,1.36,1.86,1.32,3.4,0,.05,0,.11.02.1Z"/>
  <path class="cls-2" d="M93.62,79.88c.12.33,2.5.09,2.93-.03.5-.14,1.03-.21,1.49-.45,1-.52,1-.31.82-1.56-.18-1.2-1.3-1.78-1.73-.63-.33.89-3.23,1.81-3.3,2.28,0,.04-.28.2-.21.39Z"/>
  <path class="cls-10" d="M28.32,119.58c.06-2.11.5-4.14,1.13-6.14.5-1.58,1.1-3.13,1.8-4.63.33-.73.7-1.44,1.18-2.08.14-.2.31-.39.49-.54.29-.24.64-.23.94-.03.32.21.48.6.37.96-.04.15-.11.29-.2.41-.91,1.26-1.48,2.69-2.05,4.11-.73,1.83-1.35,3.7-1.64,5.65-.17,1.12-.37,2.24-.24,3.39.05.42.03.86.02,1.29-.01.37-.23.62-.58.75-.42.15-.91-.06-1.05-.49-.1-.32-.15-.66-.17-.99-.03-.55-.01-1.11-.01-1.66h0ZM44.24,168.15c-.45-.31-.84-.45-1.21-.56-.29.18-.46.37-.43.67.07.03.13.09.18.08.45-.05.89-.12,1.46-.2h0ZM98.07,66.16c-.15-.6-.48-.93-.95-1.32-.02.68.06,1.23.21,1.85.27-.19.49-.34.75-.52h0ZM97.19,76.31c-.1-.12-.15-.21-.22-.26-.31-.21-.52-.18-.7.1-.29.46-.48.96-.61,1.57.69-.33,1.21-.71,1.53-1.41h0ZM98.82,65.45c-.27-.32-.52-.63-.79-.91-.27-.29-.58-.54-.86-.83-.28-.28-.68-.41-.93-.79.67-.31,1.34-.26,1.99-.21.64.05,1.26.16,1.83.48.02,1.02-.63,1.59-1.25,2.25h0ZM36.44,63.08c-.09-.04-.14-.1-.19-.09-1.44.03-2.88.06-4.32.1-.03,0-.06.02-.08.04-.01.02-.01.05-.02.09.26.4.53.8.79,1.22.13.2.29.32.52.33.85.04,1.71.11,2.52.1.08-.09.14-.12.16-.17.21-.53.41-1.07.62-1.6h0ZM111.19,69.67c0,.29-.02.53-.02.77,0,.25,0,.49-.02.74,0,.28-.02.55-.04.83-.02.24-.04.49-.07.73-.03.24-.08.48-.12.72-.04.24-.09.48-.13.72-.05.24-.1.48-.16.72-.07.27-.15.53-.23.79-.07.23-.16.47-.24.69-.12.31-.12.31-.08.7.73-.5,1.37-1.06,1.86-1.78,1.2-1.79.96-4.02-.46-5.5-.05-.06-.14-.07-.27-.14h0ZM90.23,68.67c.11.05.16.1.22.1.64.03,1.29.05,1.93.07.21,0,.43-.01.64-.03.34-.03.56-.21.66-.55.31-1.12.3-2.24.08-3.37-.05-.26-.17-.52-.46-.63-1.34.88-2.46,2.48-3.07,4.4h0ZM91.7,77.74c.68-.28.98-.78,1.15-1.34.3-.97.35-1.99.34-3,0-.35-.18-.57-.5-.7-.17-.07-.34-.15-.52-.18-.66-.11-1.33-.21-2-.29-.14-.02-.28.03-.46.05.14,2.02.7,3.82,1.98,5.46h0ZM107.38,65.46c.38-.09.64-.16.86-.21.22.08.26.23.31.38.49,1.44.78,2.9.81,4.43.03,2.02-.22,3.99-.94,5.88-1.11,2.94-2.91,5.33-5.6,7-2.13,1.33-4.45,1.91-6.96,1.66-1.9-.2-3.64-.87-5.19-1.99-.45-.33-.45-.33-.29-1.05.23.17.45.31.67.47,1.53,1.17,3.28,1.82,5.18,1.99,1.65.14,3.25-.17,4.77-.82,2.34-1,4.14-2.63,5.49-4.77,1.61-2.55,2.26-5.36,2.07-8.36-.08-1.29-.37-2.55-.86-3.76-.1-.25-.2-.51-.32-.84h0ZM63.58,122.17c-1.52,1.78-3.14,3.27-5,4.49-1.88,1.24-3.93,2.12-6.22,2.94.39.06.59.11.78.12,1.07.03,2.15.07,3.22.08,1.2.01,2.39-.18,3.55-.48,1.08-.28,2.1-.69,2.98-1.4.69-.56,1.17-1.25,1.39-2.12.14-.55.08-1.09,0-1.64-.11-.67-.27-1.31-.7-2h0ZM104.2,65.33c.46-.06.79.12,1.15.17.78,1.32,1.21,2.72,1.39,4.19.2,1.73.05,3.44-.51,5.1-.94,2.83-2.62,5.07-5.3,6.47-1.54.81-3.19,1.14-4.91.91-2.26-.3-4.11-1.39-5.54-3.18-.41-.51-.74-1.05-.95-1.68-.16-.46-.37-.91-.59-1.35-.24-.47-.4-.96-.49-1.48-.69-4.07.37-7.62,3.22-10.61.53-.55,1.15-1.01,1.75-1.5.11-.09.27-.14.42-.18,1.32-.41,2.47-1.09,3.47-2.04.07-.06.15-.11.26-.18.4.62.76,1.25,1.24,1.95-.33,0-.51-.01-.69-.02-2.76-.16-4.98.94-6.73,3-1.9,2.22-2.63,4.84-2.44,7.72.16,2.45,1.04,4.6,2.77,6.38.94.97,2.04,1.7,3.34,2.06,2.7.76,5.19.28,7.36-1.51,2.07-1.7,3.19-3.93,3.56-6.57.23-1.67.09-3.31-.43-4.92-.24-.74-.56-1.43-.96-2.09-.12-.2-.24-.4-.38-.64h0ZM93.45,86.07c.14.19.22.32.32.42.53.53,1.16.91,1.84,1.2,1.08.47,2.19.77,3.36.97,1.45.24,2.89.17,4.3-.18,1.28-.32,2.41-.93,3.3-1.92.76-.85,1.25-1.83,1.32-2.98.04-.77,0-1.54-.47-2.26-.47.48-.9.95-1.37,1.38-.48.43-.97.85-1.5,1.23-.52.37-1.08.71-1.65,1.01-.57.29-1.17.55-1.78.76-.61.21-1.24.37-1.87.49-.63.12-1.28.19-1.92.24-.64.04-1.29-.02-1.93-.1-.62-.07-1.22-.34-1.95-.26h0ZM38.42,92.26c.18.09.33.22.49.24.52.06,1.04.02,1.55-.15.47-.15.64-.42.57-.91-.03-.21-.1-.42-.17-.62-.07-.23-.18-.46-.24-.69-.18-.63-.08-1.22.35-1.73.16-.19.34-.36.49-.55.25-.32.46-.66.47-1.08.01-.49.04-.99-.02-1.47-.17-1.25-.52-2.46-.9-3.66-.03-.08-.1-.15-.13-.21-.08-.03-.13-.07-.19-.08-1.18-.18-2.37-.37-3.55-.54-.11-.02-.22.03-.35.05-.02.16-.04.28-.05.4,0,.77-.05,1.54,0,2.3.04.83.13,1.65.25,2.47.09.65.36,1.24.92,1.65.15.11.28.24.41.37,1.01,1.01,1.19,2.17.54,3.45-.12.24-.27.48-.43.76h0ZM45.32,169.83c.88,2.04.87,1.5,1.28,4.22.17.02.34.06.52.07,1.29.07,2.58.14,3.87.2,1.97.09,3.94.18,5.9.27.19,0,.42.11.61-.16-1.03-1.09-1.97-2.26-3.14-3.22-1.16-.95-2.44-1.64-3.87-2.08-.98-.3-1.98-.42-2.97-.56q-.65.64-1.55.94c-.23.08-.5.07-.65.31h0ZM81.51,70.14c-.32-1.17-.09-2.2.2-3.2.6-2.09,1.73-3.86,3.32-5.33.09-.08.19-.16.28-.24.26-.23.53-.28.84-.1.21.13.43.23.66.34.9.41,1.82.75,2.8.86.21.02.41.1.59.15.09.2-.04.26-.12.33-1.81,1.94-2.91,4.24-3.41,6.83-.13.66-.13,1.34-.19,2.02-.02.2-.04.41-.07.68-.35-.14-.55-.38-.8-.54-.26-.17-.51-.35-.77-.51-.26-.16-.53-.31-.81-.44-.25-.12-.5-.23-.76-.33-.29-.11-.58-.21-.87-.3-.29-.09-.59-.15-.9-.23h0ZM89.74,71.29c-.01-.61.06-1.09.25-1.59.17-.01.35-.04.53-.04.62,0,1.23.04,1.85.03.37,0,.73-.06,1.09-.13.45-.09.77-.38.93-.81.1-.26.17-.53.22-.8.14-.89.11-1.78.07-2.67-.03-.57-.23-1.07-.59-1.52.29-.35.7-.41,1.06-.63.62.37.86.97,1.03,1.59.1.38.12.79.17,1.18.05.33.07.67.14,1,.09.43.37.61.81.59.29,0,.55-.11.77-.28,1.1-.89,2.2-1.79,2.76-3.16.02-.05.08-.09.15-.17.49.27.99.55,1.51.85-.38,1.1-.83,2.09-1.65,2.88-.2.19-.38.4-.58.6-.49.51-.47,1.11-.25,1.72.11.31.35.51.67.57.24.05.49.05.73.08.91.11,1.84.13,2.69.56.25.13.48.05.57-.12.12-.21.02-.46-.25-.61-.63-.35-1.32-.5-2.03-.57-.4-.04-.8-.04-1.2-.08-.5-.05-.7-.54-.38-.95.09-.12.22-.22.31-.34.4-.47.79-.94,1.18-1.41.06-.06.13-.11.22-.19.56.7.89,1.48,1.08,2.33.04.15.04.31.09.45.06.16.2.23.37.23.18,0,.3-.12.31-.28,0-.3.04-.63-.05-.91-.19-.58-.45-1.14-.71-1.7-.16-.33-.39-.62-.59-.94-.11-.18-.05-.35.06-.51.19-.03.27.11.36.23.8,1.08,1.34,2.29,1.59,3.6.49,2.57.15,5.02-1.22,7.29-1.09,1.8-2.6,3.09-4.67,3.68-1.64.46-3.22.3-4.76-.41-.11-.05-.19-.14-.32-.23.32-.34.61-.63,1.03-.77,1.04-.35,1.92-.95,2.64-1.78.02-.02.05-.02.08-.04.61.47.71.69.71,1.66-.27.3-.66.41-1.04.52-.29.09-.6.13-.9.2-.34.08-.5.24-.48.46.03.27.29.42.63.36.92-.15,1.78-.45,2.62-.97.22-.72.05-1.43-.3-2.08-.37-.71-.91-1.32-1.55-1.82-.85-.67-1.51-.53-2.04.42-.18.32-.32.67-.43,1.02-.31.98-.85,1.77-1.79,2.33-.35-.13-.61-.4-.88-.76.12-.12.22-.24.33-.33.59-.5.91-1.17,1.05-1.9.14-.69.19-1.4.28-2.1.02-.15.02-.31.01-.46-.02-1.01-.33-1.47-1.29-1.78-.46-.15-.95-.23-1.44-.32-.51-.09-1.02-.16-1.59-.24h0ZM18.85,124.44c1,.53,1.98,1.05,2.98,1.57,0,.16.01.34-.02.51-.09.42-.21.83-.29,1.26-.05.24-.07.49-.04.73.04.36.38.66.75.72.31.05.69-.14.84-.45.1-.22.17-.46.23-.7.1-.39.17-.78.26-1.17.03-.11.09-.22.14-.32.49.01.95.03,1.4.04.43,0,.86.02,1.29,0,.46-.02.91-.09,1.36-.14.37.43.71.82,1.06,1.23-.18.82-.36,1.63-.52,2.44-.05.27-.1.55-.09.82,0,.39.3.7.68.77.39.07.76-.1.92-.45.11-.25.18-.52.25-.79.11-.45.2-.9.3-1.37.1.01.2,0,.26.03,1.33.85,2.77,1.45,4.25,1.87.19.19.12.38.09.55-.06.36-.16.72-.19,1.09-.03.45.25.8.64.89.39.09.81-.12.98-.52.12-.28.19-.59.27-.88.06-.2.09-.41.14-.64.46-.1.87.11,1.29.1.4,0,.8.05,1.2.07.43.02.86.02,1.29.03.39,0,.79-.06,1.2.06.06.34-.01.64-.02.94,0,.31-.03.62-.01.92.03.46.33.77.74.81.41.05.85-.27.94-.72.06-.3.07-.61.1-.92.03-.28.06-.55.09-.83.02-.12.05-.24.09-.39.15-.04.28-.11.43-.13.91-.14,1.82-.28,2.73-.42.15-.02.3-.06.45-.08.54-.06.75.12.75.65,0,.52-.03,1.05-.04,1.57,0,.21,0,.43.04.64.07.39.39.67.76.69.4.03.79-.25.89-.66.05-.21.06-.43.07-.64.02-.49.03-.99.05-1.48,0-.15.04-.29.07-.47.94-.09,1.81.06,2.68.23.23.31.09.66.12.99.03.32.11.6.37.81.42.35,1.11.18,1.29-.34.08-.23.07-.48.1-.72.03-.21.06-.41.1-.65l1.69.05c.32.82.2,1.29-.45,1.76-.12.09-.25.17-.39.24-1.38.7-2.78,1.29-4.33,1.51-.98.13-1.94.31-2.93.35-.61.02-1.23.05-1.84.08-2.16.1-4.31-.05-6.45-.26-5.74-.56-11.26-1.97-16.44-4.56-1.07-.54-2.11-1.14-3.14-1.75-.45-.26-.86-.6-1.25-.94-.52-.45-.77-1.03-.66-1.73.1-.66.15-1.34.47-1.94h0ZM89.74,84.17c-.22.33-.37.6-.55.84-1.35,1.89-3.19,2.58-5.46,2.25-1.02-.15-1.96-.51-2.88-.93-1.01-.45-2-.94-3-1.4-1.46-.68-3-1.07-4.61-1.21-.52-.05-1.04-.11-1.56-.16-.14-.01-.29.03-.44.05-.08.44-.07.84.05,1.23.16.5.28,1.01.5,1.48,2.24,4.81,6.1,7.33,11.3,7.88,2.55.27,5.02-.17,7.42-1.05,2.03-.74,3.99-1.6,5.76-2.87.09-.06.23-.11.17-.32-.11-.05-.24-.11-.38-.16-.65-.28-1.31-.53-1.94-.84-.69-.35-1.3-.82-1.81-1.41-.47-.55-.81-1.15-.87-1.89-.02-.18-.07-.36-.1-.54-.52-.31-1.02-.6-1.59-.94h0ZM16.42,44.14c1.03-.57,2.05-.82,3.09-.97,1.06-.15,2.14-.25,3.21-.34.83-.07,1.66-.09,2.49-.15,1.41-.11,2.82-.22,4.23-.37,1.8-.19,3.61-.39,5.4-.66,3.41-.52,6.76-1.32,10.05-2.32,1.59-.48,3.17-.97,4.76-1.45,1.12-.34,2.26-.58,3.43-.69,1.19-.11,2.2.23,2.91,1.23.3.42.59.87.81,1.34.29.61.52,1.25.73,1.89.52,1.58.83,3.21,1,4.87.14,1.38.14,2.77.01,4.15-.12,1.3-.66,2.42-1.62,3.32-.68.64-1.42,1.17-2.22,1.65-1.25.74-2.56,1.34-3.91,1.86-4.16,1.59-8.47,2.55-12.92,2.83-.71.04-1.41.11-2.12.14-1.41.08-2.82.17-4.24.2-2.96.06-5.9-.17-8.8-.79-.06-.01-.78-.03-.5.06,2.05.69,4.18.99,6.33,1.16,2.33.19,4.67.22,7.01.1,1.87-.1,3.75-.25,5.61-.47,2.9-.36,5.76-.94,8.58-1.74,3.13-.88,6.09-2.14,8.81-3.94,1.11-.73,2.14-1.56,3.04-2.53,1.79-1.92,2.43-4.24,2.39-6.78-.02-1.04-.12-2.09-.21-3.13-.14-1.63-.42-3.23-.95-4.78-.24-.7-.54-1.37-.98-1.98-.92-1.3-2.17-1.86-3.74-1.7-.12.01-.24.04-.36.07-.86.22-1.74.4-2.59.67-4.81,1.53-9.65,2.92-14.58,3.99-3.39.74-6.8,1.41-10.23,1.95-1.94.31-3.89.57-5.84.82-2.13.27-4.27.48-6.41.73-.36.04-.72.1-1.08.15-.21.51-.55.93-.58,1.63h0ZM11.32,173.96c.05-.24.06-.46.15-.64.31-.72.82-1.29,1.43-1.78,1.13-.89,2.41-1.47,3.75-1.94,1.4-.48,2.83-.81,4.27-1.15,2.96-.7,5.89-1.52,8.7-2.7.99-.41,1.97-.86,2.95-1.3,1.04-.46,2.09-.91,3.18-1.22.83-.23,1.67-.41,2.54-.36.47.03.91.15,1.33.33.74.32,1.25.88,1.55,1.62.18.43.33.86.5,1.33-.16.24-.33.48-.5.74-.34.53-.54,1.1-.5,1.74.04.65.37,1.11.98,1.32.34.12.72.18,1.08.18.39,0,.63.17.84.47.59.85,1.01,1.76,1.08,2.8.01.15.02.3.04.51-.15.03-.29.07-.43.09-.06.01-.12,0-.18,0-3.2-.05-6.4-.12-9.6-.16-3.11-.03-6.21-.04-9.32-.05-1.35,0-2.71,0-4.06.02-1.78.01-3.57.02-5.35.06-1.35.03-2.7.09-4.05.13-.11,0-.23-.04-.4-.07h0ZM95.78,46.7c.31.43.6.82.89,1.22.74,1.02,1.46,2.06,2.04,3.18.54,1.05.92,2.14.96,3.34.04,1.03-.12,2.02-.5,2.98-.08.2-.2.42-.17.61.11.72.25,1.43.7,2.07,1.7,2.43,4.01,3.64,6.98,3.59.81-.01,1.57-.25,2.28-.66.78-.46,1.2-1.12,1.23-2.03.02-.52.02-1.04-.1-1.56-.12-.51-.2-1.03-.3-1.54-.38-1.87-.56-3.76-.51-5.68.06-1.88.31-3.74.49-5.6.13-1.39.14-2.77-.18-4.13-.47-1.98-1.93-3.21-3.93-3.28-1.03-.04-2.02.1-2.99.44-2.3.79-4.21,2.13-5.76,3.99-.32.38-.56.81-.69,1.29-.14.56-.28,1.13-.44,1.78h0ZM49.12,40.02c.12-.09.2-.19.3-.22,1.09-.32,2.18-.66,3.31-.79,1.4-.17,1.61-.02,2.24,1.11.33.59.58,1.22.8,1.86.61,1.82.98,3.68,1.06,5.6.03.71.04,1.41.05,2.12,0,.18-.02.37-.04.55-.12,1.16-.64,2.1-1.57,2.82-.68.53-1.4,1-2.17,1.4-2.3,1.21-4.74,2.05-7.24,2.73-2.02.55-4.07.95-6.16,1.15-1.32.12-2.63.24-3.95.36-.08,0-.17-.03-.26-.05.28-1.02.56-2.02.82-3.03.08-.33.15-.66.16-1,.02-.46-.27-.8-.67-.87-.42-.08-.8.12-.96.54-.12.31-.2.65-.28.97-.28,1.2-.62,2.37-1.1,3.5-4.06.59-12.34-.53-15.56-2.14-.21-.64-.47-1.34-.67-2.04-.67-2.31-1.06-4.67-1.21-7.08-.02-.26.01-.49.23-.66.02-.02.05-.04.06-.07.74-1.24,1.94-1.61,3.27-1.77.02,0,.04.03.09.06-.23.17-.45.33-.67.49-.54.4-.64.96-.54,1.57.09.53.63.81,1.13.62.11-.04.22-.1.33-.16,1.31-.71,2.72-.95,4.19-.86.75.05,1.44.31,2.1.66.44.23.86.49,1.29.72.68.35,1.41.45,2.15.28.75-.17,1.36-.55,1.69-1.3.15-.35.19-.7.1-1.08-.11-.46-.31-.87-.59-1.24-.16-.22-.33-.44-.53-.7,1.66-.23,3.27-.42,4.86-.67,1.6-.25,3.19-.57,4.84-.87-.13.34-.26.64-.36.95-.25.8-.21,1.59.21,2.32.4.71.99,1.16,1.86,1.15.49,0,.89-.21,1.25-.52.21-.18.39-.39.58-.6,1.08-1.18,2.45-1.73,4.01-1.84.96-.07,1.91.03,2.84.29.32.09.63.24.94.38.17.08.31.2.48.27.47.21.92.06,1.18-.4.43-.74.38-1.35-.18-2.04-.77-.95-1.77-1.61-2.87-2.13-.25-.12-.51-.21-.82-.34h0ZM64.5,176.29c-1.21.32-2.01.39-3.07.22-.43-.07-.82-.14-1.25.04-.23.1-.54.04-.82.02-.58-.04-1.16-.11-1.75-.14-.98-.06-1.97-.09-2.95-.14-2.55-.12-5.1-.25-7.65-.38-.86-.04-1.71-.04-2.57-.07-2.86-.1-5.72-.21-8.58-.17-2.65.03-5.29-.02-7.94-.03-3.05-.01-6.09-.01-9.14-.02-.12,0-.25,0-.37,0-1.97.05-3.94.09-5.9.14-1.01.03-2.03.07-3.04.11-.06,0-.12.04-.18.06-.05.07-.12.14-.14.23-.1.32-.21.65-.27.98-.18.94-.55,1.76-1.3,2.38-.4.33-.61.78-.65,1.28-.06.7-.11,1.41-.07,2.12.03.5.1,1.03.4,1.51.55-.01,1.07-.03,1.58-.03,2,0,4,0,6,0,2.06,0,4.12,0,6.18,0,2,0,4,0,6,0,2.46,0,4.92,0,7.39,0,1.57,0,3.14,0,4.71,0,2.09,0,4.18,0,6.28,0,1.94,0,3.88,0,5.82,0,2.25,0,4.49,0,6.74,0,2.06,0,4.12,0,6.19,0,.21,0,.41-.03.63-.04.01-.14.05-.23.03-.31-.12-.52-.09-1.04-.08-1.56.03-.98.05-1.97.1-2.95.05-.99-.09-1.96-.18-2.94,0-.09-.07-.17-.12-.31h0ZM31.4,163.03c-.59-1.09-1.1-2.11-1.46-3.19-.33-.98-.45-1.98-.19-3,.09-.36.15-.72.22-1.08.18-.96.16-1.9-.25-2.8-.33-.73-.68-1.45-1.06-2.15-1.29-2.38-2.54-4.78-3.59-7.28-1.38-3.3-2.43-6.7-3.37-10.15-.05-.2-.08-.41-.12-.59.15-.16.25-.06.36-.02,2.24.86,4.47,1.74,6.72,2.57,3,1.1,6.04,2.09,9.14,2.86,1.91.48,3.83.91,5.77,1.22,1.27.2,2.55.43,3.83.58,1.44.17,2.89.22,4.33.17.48-.02.96-.13,1.48-.2.05.1.13.19.16.3,1.51,4.68,3.24,9.29,4.9,13.92,1.06,2.95,2.17,5.89,3.23,8.84.94,2.6,1.81,5.23,2.5,7.91.28,1.08.44,2.16.44,3.32-.64.47-1.38.64-2.16.58-1.23-.1-2.34-.53-3.23-1.42-.57-.57-1.12-1.15-1.65-1.74-.91-1.01-1.92-1.91-3.05-2.67-1.42-.96-3-1.56-4.68-1.88-1.12-.21-2.25-.3-3.38-.48-.6-.1-1.21-.23-1.79-.41-.72-.21-1.21-.7-1.46-1.42-.12-.35-.26-.69-.42-1.02-.67-1.41-1.83-2.18-3.32-2.54-1.01-.25-2.02-.16-3.02.03-1.37.27-2.65.77-3.93,1.31-.31.13-.62.27-.99.43h0ZM84.16,59.94c-.2.2-.39.39-.59.58-1.61,1.58-2.79,3.43-3.5,5.57-.34,1.03-.52,2.09-.5,3.17,0,.21-.01.42-.02.68-.16.03-.3.08-.45.07-.86,0-1.72-.02-2.58.11-.21.03-.43.02-.64.03-.29.01-.54-.09-.75-.3-.34-.35-.7-.69-1.05-1.04-.74-.73-1.66-1.16-2.59-1.56-.17-.07-.35-.11-.54-.13-.36-.04-.74.21-.88.55-.12.3-.03.7.24.92.14.12.31.2.47.28.25.12.5.23.75.34.57.26,1.07.61,1.5,1.05.24.24.48.48.71.73.72.81,1.62,1.06,2.67.93.4-.05.79-.08,1.19-.11.43-.03.86-.05,1.29-.07,2.58-.08,4.88.61,6.69,2.52,1.66,1.75,2.61,3.86,2.86,6.26.08.73.01,1.47-.19,2.19-.57,2.09-2.29,3.17-4.54,2.7-.94-.2-1.82-.57-2.68-.98-.83-.4-1.67-.78-2.5-1.17-1.98-.93-4.08-1.36-6.25-1.45-2.15-.1-4.3-.11-6.46-.06-2.58.06-5.08-.42-7.45-1.48-1.1-.49-2.11-1.14-2.93-2.05-1.68-1.85-2.13-3.96-1.33-6.33.34-1,.87-1.9,1.49-2.75,1.05-1.46,2.37-2.67,3.76-3.79,1.22-.98,2.55-1.83,3.85-2.7,1.08-.72,2.14-1.45,3.19-2.2,2.64-1.88,4.31-4.42,5.14-7.54.39-1.49.69-2.99.92-4.51.27-1.73.51-3.47,1.06-5.14.67-2.04,1.64-3.92,3.13-5.48,2-2.08,4.44-3.12,7.34-3.12,1.28,0,2.51.19,3.7.67,1.62.65,2.71,1.77,3.18,3.47.22.8.42,1.6.65,2.4.21.74.42,1.48.66,2.21.58,1.81,1.5,3.43,2.6,4.96.7.97,1.37,1.97,2.02,2.98.42.65.73,1.35.92,2.11.39,1.59.09,3.07-.84,4.39-1.05,1.5-2.5,2.46-4.31,2.78-2.95.53-5.46-.41-7.57-2.47-1.13-1.11-1.99-2.42-2.71-3.82-1.12-2.18-1.85-4.48-2.24-6.9-.05-.3-.08-.61-.15-.91-.11-.49-.47-.75-.93-.72-.43.03-.74.37-.78.88,0,.09,0,.18,0,.28.02.22.02.43.06.64.39,2.09.91,4.14,1.77,6.09.98,2.22,2.21,4.25,3.96,5.96.06.06.09.15.16.26h0ZM52.1,75.81c-.73.35-1.39.6-2.08.76-2.16.51-4.35.84-6.55,1.05-1.9.18-3.81.19-5.72.08-1.7-.1-3.34-.51-4.96-1.01-2.39-.74-4.65-1.78-6.85-2.96-1.66-.89-2.89-2.18-3.71-3.87-1.04-2.14-1.81-4.38-2.08-6.76-.06-.49-.02-.98,0-1.47,0-.11.08-.21.14-.35.77.21,1.51.4,2.25.61,1.57.47,3.18.71,4.8.87,1.51.14,1.77.23,2.8,1.33.35.38.67.81.93,1.26.37.63.87.99,1.6,1.12,1.1.19,2.21.19,3.31.21.65.01,1.1-.36,1.36-.94.17-.39.31-.8.45-1.21.2-.57.54-1.03.99-1.43.26-.23.54-.38.9-.41.95-.1,1.89-.24,2.84-.36,2.41-.31,4.78-.84,7.13-1.46,2.66-.7,5.22-1.66,7.64-2.96,1.93-1.04,3.75-2.24,5.3-3.82,1.32-1.35,2.28-2.9,2.75-4.73.17-.65.27-1.33.35-1.99.18-1.57.03-3.14-.11-4.7-.11-1.22-.26-2.44-.55-3.64-.22-.93-.47-1.85-.86-2.72-.37-.85-.85-1.64-1.53-2.29-1.31-1.28-2.87-1.85-4.71-1.61-1.16.15-2.29.44-3.4.81-5.82,1.9-11.73,3.46-17.74,4.65-3.23.64-6.46,1.23-9.73,1.65-2.35.3-4.7.59-7.05.89-.67.08-1.34.17-2.02.23-.36.03-.73.09-1.11-.04-.18-.4-.28-.82-.3-1.25-.19-3.77,1.26-7.77,2.62-11.25.87-2.23,2.11-4.24,3.61-6.09,4.28-5.27,9.39-9.46,15.67-12.17,2.81-1.21,5.72-2.08,8.73-2.6,2.59-.44,5.2-.56,7.82-.39,7.55.5,14.23,3.16,19.98,8.12,2.62,2.27,4.94,4.81,6.85,7.7,1.9,2.87,3.29,5.98,4.14,9.32.08.33.14.66.22,1.05-.16,0-.28,0-.39-.01-2.18-.29-4.3-.05-6.34.77-1.96.79-3.56,2.06-4.87,3.7-1.53,1.91-2.5,4.09-3.11,6.43-.31,1.19-.5,2.41-.69,3.62-.27,1.76-.59,3.51-1.07,5.24-.72,2.63-2.2,4.73-4.4,6.31-1.3.93-2.63,1.82-3.97,2.7-1.34.88-2.64,1.81-3.86,2.85-1.77,1.51-3.33,3.19-4.44,5.26-.6,1.13-.97,2.33-1.11,3.59-.05.42,0,.86.01,1.29.02.33.06.67.1,1.05h0ZM94.96,93.29c-.27-.05-.47.13-.69.22-.96.41-1.91.84-2.89,1.22-2.14.83-4.37,1.24-6.66,1.32-1.67.06-3.32-.19-4.92-.67-4.37-1.29-7.57-3.97-9.55-8.1-.44-.92-.72-1.9-.85-2.91-.03-.24-.04-.48-.07-.76-.39-.04-.74-.12-1.13.1.05.39.07.79.15,1.18.33,1.81,1.04,3.47,1.96,5.05,2.22,3.79,5.48,6.26,9.66,7.52,1.93.58,3.93.74,5.94.62.32-.02.62.01.89.16.56.31.56,1.13,0,1.44-.13.07-.28.15-.43.15-.64.03-1.29.07-1.94.06-.58-.01-1.17-.07-1.75-.14-.76-.09-1.54-.15-2.28-.33-3.3-.8-6.19-2.35-8.64-4.72-1.65-1.61-2.93-3.48-3.9-5.56-.8-1.71-1.35-3.5-1.5-5.39,0-.05-.07-.09-.13-.17-.95-.04-1.93-.07-2.92-.13-.99-.06-1.95-.28-2.9-.54-.98-.26-1.95-.57-2.85-1.04-.87-.45-1.7-.97-2.55-1.46-1.05.23-1.93.78-2.73,1.47-.75.64-1.52,1.24-2.08,2.08-.26.39-.79.46-1.15.24-.33-.21-.49-.65-.34-1.06.1-.25.27-.48.4-.72.05-.09.18-.18.03-.35-.15,0-.33,0-.51-.02-1.11-.05-2.22-.08-3.32-.15-.64-.04-1.28-.14-1.93-.21-.15-.02-.31-.04-.42.16.03.12.05.27.09.42.27,1.04.56,2.07.67,3.15.14,1.38-.08,2.63-1.04,3.69-.12.14-.22.29-.34.45.05.18.1.36.15.53.1.36.21.71.29,1.07.22,1.05-.14,1.91-1.01,2.48-.56.36-1.2.66-1.85.8-1,.21-2.02.08-3.01-.22-.27-.08-.49-.27-.6-.54-.3-.69-.34-1.37.18-1.99.14-.17.28-.33.41-.5.14-.2.29-.4.39-.63.2-.46.15-.9-.23-1.27-.18-.17-.37-.33-.55-.49-.54-.49-.92-1.07-1.1-1.78-.12-.48-.24-.96-.3-1.44-.08-.7-.11-1.41-.16-2.11,0-.11.02-.25-.16-.32-.16.07-.24.24-.33.39-.58.94-1.2,1.86-1.73,2.83-1.16,2.12-1.99,4.36-2.32,6.77-.09.63-.1,1.29-.45,1.87.19.21.35.39.52.57,1.23,1.28,2.19,2.74,2.85,4.38.22.54.36,1.11.48,1.68.09.44-.24.89-.65.99-.4.1-.79-.09-.99-.5-.07-.14-.11-.29-.15-.43-.36-1.32-.98-2.52-1.78-3.62-.47-.65-1-1.25-1.62-1.77-.28-.24-.58-.33-.94-.27-.12.02-.24.05-.36.07-2,.39-3.78,1.29-5.41,2.47-2.01,1.44-3.54,3.31-4.82,5.41-1.44,2.37-2.34,4.94-2.89,7.64-.33,1.64-.46,3.29-.19,4.95.15.95.38,1.87.8,2.74.39.82.95,1.51,1.74,1.98.38.22.76.39,1.22.28.35-.09.66.03.92.3,1.06,1.12,2.39,1.82,3.79,2.39.77.31,1.58.49,2.42.53,1.05.05,2.09,0,3.12-.23.27-.06.54-.14.81-.17.62-.06,1.07.43.97,1.03-.03.17-.1.34-.16.53.91,1,1.95,1.8,3.15,2.39,1.53.76,3.16,1.2,4.85,1.39,2.46.28,4.92.2,7.36-.18,3.2-.5,6.31-1.36,9.29-2.64,2.49-1.07,4.7-2.55,6.6-4.48,1.09-1.1,1.99-2.33,2.64-3.76.59-1.29.87-2.62.65-4.04-.02-.12-.01-.25-.03-.37-.13-.91-.27-1.81-.55-2.66-.35-.09-.65-.16-.94-.24-1.01-.29-1.95-.76-2.81-1.37-2.74-1.93-4.92-4.36-6.52-7.3-.62-1.14-1.16-2.32-1.34-3.62-.1-.71-.29-1.38-.48-2.06-.12-.44-.22-.9-.33-1.34-.03-.12-.06-.24-.06-.36-.01-.37.23-.71.59-.85.31-.12.68-.03.91.26.11.14.2.31.25.48.09.29.15.6.22.89.45,1.78,1.19,3.43,2.27,4.91,1.19,1.63,2.66,2.98,4.32,4.12,2.96,2.03,6.26,3.13,9.79,3.57,2.39.29,4.79.3,7.18-.11,2.74-.47,5.27-1.44,7.53-3.09,1.5-1.1,2.84-2.36,4.02-3.79.89-1.07,1.63-2.23,2.05-3.58.19-.63.56-1.16,1.07-1.59.28-.24.58-.46.85-.71.78-.69,1.56-1.39,2.34-2.09.15-.14.27-.33.4-.5l.05-.04-.03.07h0ZM9.49,173.69c-.49.19-.89.34-1.28.5-.25.1-.4.29-.48.53-.19.58-.38,1.17-.52,1.77-.17.74-.42,1.39-1.02,1.91-.54.48-.83,1.12-.97,1.84-.25,1.28-.29,2.56.02,3.84.13.51.31.97.6,1.42.31.47.65.7,1.2.68.15,0,.31,0,.46,0,2,0,4,0,6,0,1.78,0,3.57,0,5.36,0,2.28,0,4.56,0,6.83,0,1.78,0,3.57,0,5.36,0,2.28,0,4.55,0,6.83,0,1.79,0,3.57,0,5.36,0,2.28,0,4.56,0,6.83,0,1.72,0,3.45,0,5.17,0,2.62,0,5.23.01,7.85.02.68,0,1.36.03,2.03.01,1.04-.03,1.75-.85,1.54-1.84-.16-.74-.15-1.46-.13-2.2.02-.74.08-1.48.07-2.22-.01-.95-.07-1.91-.12-2.86-.03-.46-.04-.93-.17-1.37-.14-.49-.09-.97-.09-1.46,0-.34.05-.68.02-1.01-.11-.98-.25-1.95-.5-2.91-.67-2.5-1.46-4.96-2.33-7.39-2.15-5.99-4.33-11.98-6.5-17.96-.98-2.72-1.91-5.46-2.7-8.24-.04-.14-.07-.29-.11-.47.3-.14.58-.26.85-.39.61-.3,1.22-.58,1.81-.92,1.1-.63,1.53-1.64,1.47-2.87,0-.18-.11-.36.05-.58.16-.04.36-.12.57-.14.92-.12,1.81-.37,2.68-.68,1.21-.43,2.29-1.06,3.17-2,.87-.93,1.37-2.02,1.43-3.32.06-1.55-.3-2.99-1.08-4.33-.11-.19-.22-.37-.34-.59.13-.27.26-.55.4-.82.91-1.82,1.14-3.74.84-5.75-.19-1.28-.51-2.53-.81-3.79-.03-.11-.09-.24.03-.34.06-.02.11-.06.17-.05.21.04.42.08.63.13,1.52.39,3.06.67,4.63.78,2,.14,4,.12,5.98-.19,2.3-.35,4.5-1,6.55-2.12,2.92-1.59,5.28-3.81,7.26-6.45.63-.84,1.16-1.75,1.46-2.76.18-.62.53-1.1,1.03-1.48.2-.15.38-.32.57-.47,1.71-1.33,3.21-2.87,4.52-4.6.5-.66.98-1.33,1.53-2.07.72.2,1.49.08,2.25.03,1.82-.11,3.5-.65,4.99-1.71,1.05-.75,1.87-1.7,2.38-2.89.85-1.99.84-3.95-.32-5.83-.07-.12-.21-.22-.14-.43.21-.07.45-.15.67-.24,1.79-.71,3.29-1.78,4.3-3.47,1.26-2.11,1.11-5.11-.6-7.08-.53-.61-1.11-1.15-1.84-1.52-.28-.14-.4-.34-.47-.63-.12-.54-.3-1.07-.45-1.6-.06-.23-.13-.46-.19-.7.1-.08.18-.14.25-.19,1.16-.89,1.69-2.07,1.69-3.52,0-.87-.18-1.71-.35-2.55-.23-1.11-.43-2.23-.54-3.37-.19-2-.02-4,.23-5.99.2-1.65.31-3.31.24-4.97-.04-.99-.22-1.96-.62-2.87-.72-1.64-1.91-2.77-3.64-3.3-1.02-.31-2.06-.34-3.11-.2-2.34.32-4.43,1.27-6.28,2.72-1.4,1.1-2.73,2.31-3.45,4.1-.12-.22-.22-.37-.28-.53-.34-1.05-.67-2.11-.99-3.17-.24-.83-.43-1.67-.69-2.49-.61-1.92-1.84-3.31-3.67-4.17-.25-.12-.49-.24-.74-.36-.1-.54-.17-1.05-.29-1.56-.84-3.6-2.29-6.95-4.29-10.05-2.24-3.47-5.01-6.47-8.2-9.07-5.71-4.65-12.28-7.17-19.58-7.81-2.96-.26-5.9-.1-8.83.4-4.91.83-9.5,2.53-13.78,5.06-4.1,2.42-7.61,5.53-10.73,9.1-2.64,3.02-4.62,6.44-6.02,10.2-.8,2.15-1.29,4.36-1.56,6.63-.16,1.38-.17,2.76.11,4.14.1.48.2.98.17,1.46-.02.38-.24.75-.36,1.13-.31.94-.45,1.91-.49,2.9-.11,2.29.21,4.54.67,6.78.27,1.3.64,2.56,1.07,3.82.47,1.4,1.2,2.63,2.31,3.61.09.08.15.19.23.28-.16.61-.32,1.21-.26,1.83.05.52.07,1.05.16,1.56.44,2.54,1.25,4.94,2.47,7.21.92,1.69,2.21,3.01,3.9,3.95,2.89,1.61,5.89,2.92,9.1,3.74.17.04.33.14.5.21.03.25.05.46.1.67.09.42-.05.75-.3,1.1-.74,1.02-1.46,2.06-2.13,3.12-1.9,3-3.21,6.23-3.57,9.79-.01.14-.08.28-.13.43-.96.07-1.87.21-2.75.51-2.61.88-4.9,2.27-6.85,4.22-1.45,1.45-2.62,3.09-3.62,4.87-1.28,2.27-2.11,4.71-2.65,7.25-.36,1.73-.56,3.46-.34,5.23.17,1.35.47,2.67,1.07,3.89.71,1.43,1.77,2.5,3.27,3.1.2.08.39.17.6.26-.02.14-.03.27-.06.38-.23.77-.37,1.55-.45,2.35-.12,1.07.16,2.01.87,2.82.41.47.88.86,1.4,1.2.25.17.37.38.43.67.15.75.31,1.51.5,2.25,1.49,5.87,3.48,11.54,6.42,16.86.49.89.95,1.79,1.44,2.68.58,1.05.75,2.14.4,3.3,0,.03-.02.06-.03.09-.3,1.6-.32,3.18.34,4.72.32.74.65,1.46.98,2.19.1.22.19.44.29.67-.3.31-.67.39-1,.52-2.49,1-5.05,1.74-7.66,2.38-1.49.36-2.98.74-4.46,1.16-1.49.43-2.89,1.05-4.17,1.93-1.43.99-2.56,2.21-2.89,3.99h0ZM99.24,73.27h0s0,0,0,0h0c1.08-.64,1.66-.75,2.98-.58.31.04.61.06.91.13.33.07.66.15.98.26.21.07.41.2.43.44.02.32-.25.38-.48.46-.03,0-.05.03-.12.07-.21.87-.6,1.7-1.07,2.5-.14.24-.3.47-.46.69-.15.19-.42.24-.57.13-.15-.11-.18-.37-.07-.59.1-.19.23-.36.34-.55.37-.64.72-1.29.93-2,.03-.12.07-.24.06-.36,0-.08-.08-.16-.15-.22-.04-.04-.11-.05-.17-.05-.65-.03-1.29-.06-1.94-.09-.26-.01-.48.08-.69.23-.16.11-.23.32-.16.49.09.2.2.38.3.57.2.38.39.77.59,1.15.44.84.5,1.76.62,2.68,0,.06-.01.12-.02.18-.02.14-.17.27-.32.28-.17,0-.32-.05-.38-.21-.08-.2-.16-.41-.17-.62-.04-1.15-.52-2.14-1.08-3.1-.11-.19-.21-.38-.31-.57-.18-.35-.23-.7-.02-1.06.04-.08.04-.18.06-.27h0c-.14.11-.3.21-.42.33-1.33,1.31-3.85,1-4.63-1.19-.39-1.12-.24-2.19.46-3.14.68-.93,1.62-1.41,2.8-1.2,1.13.2,1.85.92,2.22,1.98.3.84.24,1.69-.12,2.51-.11.25-.23.5-.35.74h0ZM98.54,71.61c.06-.06.2-.14.24-.26.08-.21-.11-.45-.32-.44-.17,0-.35.19-.36.36,0,.17.16.33.43.35h0ZM95.44,71.23c0,.23.09.55.28.82.27.37.71.4,1.01.06.43-.49.42-1.37-.02-1.86-.25-.28-.62-.3-.89-.04-.26.24-.37.55-.38,1.02h0ZM96.01,73.21c.58.36.93.42,1.47.23,1.01-.34,1.72-1.46,1.59-2.53-.13-1.09-.72-1.81-1.69-2.06-.38-.1-.55-.06-1.07.22.08.05.15.12.23.14,1.34.38,1.56,2.06,1.11,2.97-.26.53-.66.88-1.25.97-.12.02-.24.03-.39.04h0ZM36.82,152.75c-.47.03-1.17.06-1.88.11-.18.01-.37.06-.54.12-.17.06-.34.14-.48.26-.48.4-.39,1.1.17,1.38.19.09.4.15.62.1.3-.06.61-.07.91-.12,1.18-.19,2.34-.04,3.47.29,1.59.46,2.87,1.38,3.88,2.68.21.27.4.55.61.81.11.14.23.3.37.41.29.22.6.29.95.1.34-.19.46-.5.42-.85-.03-.2-.11-.42-.23-.59-.9-1.39-2.04-2.53-3.47-3.39-1.41-.85-2.96-1.18-4.81-1.31h0ZM51.75,50.03c.23.11.46.21.67.33.38.22.56.57.53,1-.03.41-.38.78-.84.87-.33.07-.67.09-1,.09-.52.01-1.05-.03-1.57,0-.4.02-.81.05-1.18.19-1.69.64-3.43,1.17-5.02,2.07-.54.3-1.06.63-1.57.96-.27.17-.54.29-.86.27-.57-.04-.94-.61-.7-1.13.11-.25.29-.48.48-.67.33-.32.68-.63,1.04-.91,2.08-1.64,4.26-3.13,6.54-4.47.4-.23.8-.46,1.23-.64.31-.13.64-.24.97-.26.93-.08,1.52.56,1.42,1.48-.02.15-.07.3-.1.45-.02.12-.02.24-.03.37h0ZM21.29,53.42c-.29-.26-.49-.41-.65-.58-.17-.18-.33-.37-.44-.59-.38-.75-.04-1.5.76-1.76.49-.16.98-.13,1.46,0,.89.23,1.79.46,2.66.76,1.54.53,3.02,1.22,4.45,2.02.48.27.93.59,1.4.9.31.2.44.51.47.86.06.68-.47,1.19-1.15,1.09-.3-.04-.6-.11-.91-.17-1.75-.36-3.51-.65-5.29-.78-.59-.04-1.16-.04-1.73.15-.32.1-.66.15-.99.19-.27.03-.56.04-.83,0-.44-.05-.77-.36-.84-.74-.08-.41.15-.87.56-1.07.17-.08.35-.13.52-.18.15-.04.3-.05.57-.1Z"/>
</svg>